<?xml version="1.0" standalone="no"?>
<!DOCTYPE svg PUBLIC "-//W3C//DTD SVG 1.1//EN" "http://www.w3.org/Graphics/SVG/1.1/DTD/svg11.dtd" >
<svg xmlns="http://www.w3.org/2000/svg" xmlns:xlink="http://www.w3.org/1999/xlink" version="1.1">
<metadata>
Created by FontForge 20170103 at Thu May 11 08:31:55 2017
 By Gudino, Roberto
</metadata>
<defs>
<font id="hon-dls-icons-flight" horiz-adv-x="512" >
  <font-face 
    font-family="hon-dls-icons-flight"
    font-weight="200"
    font-stretch="normal"
    units-per-em="512"
    panose-1="2 0 3 9 0 0 0 0 0 0"
    ascent="448"
    descent="-64"
    bbox="17 -53 492 431"
    underline-thickness="25"
    underline-position="-76"
    unicode-range="U+F101-F143"
  />
<missing-glyph 
d="M17 0v341h136v-341h-136zM34 17h102v307h-102v-307z" />
    <glyph glyph-name=".notdef" 
d="M17 0v341h136v-341h-136zM34 17h102v307h-102v-307z" />
    <glyph glyph-name=".null" horiz-adv-x="0" 
 />
    <glyph glyph-name="nonmarkingreturn" 
 />
    <glyph glyph-name="ac-atr" unicode="&#xf101;" 
d="M256 405q-5 0 -10.5 -15t-5.5 -27l-1 -87l-79 -48v51l-1 2h-19l-1 -2v-64l-75 -46v-32l175 64v-169l-43 -32v-15l60 16l59 -16v15l-43 32v169l176 -64v32l-75 45v64l-1 2h-19l-1 -2v-50l-80 48v87q0 12 -5.5 27t-10.5 15zM256 427q11 0 19 -8.5t11.5 -20.5t5 -21t1.5 -14
v-75l38 -23v18l9 19h45l9 -18v-57l75 -46v-74l-176 64v-128l43 -32v-54l-80 22l-81 -22v54l43 32v128l-175 -64v74l74 46v56l10 19h45l9 -19v-17l37 22q1 65 1 75q0 8 2.5 21t11.5 28t23 15z" />
    <glyph glyph-name="ac-bga" unicode="&#xf102;" 
d="M256 405q-16 0 -16 -21l-1 -96v-12l-10 -6l-165 -101v-32l146 54l29 10v-94h-36v-24l8 -8h28v-43l-9 -6l-34 -26v-15l55 14l5 2l6 -2l53 -14v15l-34 26l-9 6v43h29l8 8v24h-37v94l29 -10l147 -54v32l-166 101l-10 6v108q0 21 -16 21zM256 427q12 0 21 -6.5t12.5 -16
t3.5 -20.5v-96l176 -107v-74l-176 64v-43h38v-53l-22 -22h-16v-10l43 -32v-54l-80 22l-81 -22v54l43 32v10h-15l-22 22v53h37v43l-175 -64v74l175 107q1 75 1 96q0 18 9.5 30.5t27.5 12.5z" />
    <glyph glyph-name="ac-dns" unicode="&#xf103;" 
d="M459 213l10 -32v-128h-21v16l-155 38v-76l43 -31v-43l-80 11l-81 -11v43l43 31v76l-154 -38v-16h-21v128l10 32l11 -32v-29l154 93q1 74 1 95q0 17 14 52t23 35t23 -35t14 -52v-95l155 -93v29zM299 127l149 -36v36l-166 100l-10 6v107q0 15 -16 51q-16 -36 -16 -51
l-1 -95v-12l-10 -6l-165 -100v-36l148 36l27 7v-113l-9 -7l-34 -25v-7l57 7h3h3l56 -7v7l-34 25l-9 7v113z" />
    <glyph glyph-name="ac-dualprop" unicode="&#xf104;" 
d="M452 239q6 -2 10.5 -8t4.5 -13v-58l-64 6v-19h-64v22h-43v-116l53 -32v-64l-74 11l-11 11v-24h-21v24l-11 -11l-75 -11v64l54 32v116h-43v-21h-64v13l-64 -12v69q0 7 4.5 13t10.5 8l49 15v23l32 11l32 -11v-4l53 14v108l37 10l38 -10v-108l43 -13v3l32 11l32 -11v-23z
M445 183v35l-64 20v24l-10 4l-11 -4v-17l-85 27v106l-17 6l-15 -6v-106l-96 -28v18l-11 4l-11 -4v-24l-64 -20v-43l64 12v-18h22v21h85v-149l-53 -32v-27l44 6l14 10h6v22h21v-22h12l10 -10l42 -6v27l-53 32v149h85v-21h21v20zM115 295v16h43v-16h-43zM350 295v16h42v-16
h-42z" />
    <glyph glyph-name="ac-glider" unicode="&#xf105;" 
d="M256 405l213 -256v-64l-213 43l-213 -43v64zM64 142v-31l35 7v31h16v-28l26 6v54h16v-51l38 7v66h16v-62l37 7v215zM448 111v31l-184 221v-215l37 -7v62h16v-66l38 -7v51h16v-54l26 -6v28h16v-31zM203 85l53 11l53 -11v-32l-32 -74h-42l-32 74v32zM288 58v10l-32 6
l-32 -6v-10l25 -58h14z" />
    <glyph glyph-name="ac-highwing" unicode="&#xf106;" 
d="M257 383l20 -5v-101h192v-37l-121 -37h-69l-14 -154l65 -22v-19l-45 -7l-29 29l-29 -29l-46 7v20l58 21l-5 154h-70l-121 37v37h196v101q14 4 18 5zM256 405zM256 405l43 -10v-97l170 1q9 0 15.5 -6.5t6.5 -15.5v-52l-139 -44h-53l-11 -117l64 -21v-54l-75 -10l-21 21
l-21 -21l-75 10v54l58 21l-5 117h-53l-139 43v53q0 6 3 10.5t8 7.5t11 3h175v97z" />
    <glyph glyph-name="ac-lowwing" unicode="&#xf107;" 
d="M257 383l20 -5v-106l171 -54v-35l-96 9h-75v-151l54 -32v-27l-44 6l-12 12h-38l-12 -12l-44 -6v27l54 32v151h-75l-96 -17v43l175 54v106q14 4 18 5zM256 405zM256 405l43 -10v-108l155 -48q3 -1 6 -3t5 -5t3 -6t1 -7v-58l-117 11h-53v-118l53 -32v-64l-75 11l-10 11h-22
l-10 -11l-75 -11v64l53 32v118h-53l-117 -22v69q0 7 4.5 13t10.5 8l160 48v108zM235 415v16h42v-16h-42z" />
    <glyph glyph-name="ac-profile" unicode="&#xf108;" 
d="M293 128v-85l43 -32v-54l-79 23l-81 -23v54l43 32v128l-176 -64v76l176 105v96v4.5t2 10t5.5 13t11.5 10.5t19 5q17 0 26 -11t10 -21v-11v-96h-21v96q0 21 -16 21t-16 -21v-96v-12l-10 -6l-166 -99v-34l148 54l28 10v-169l-9 -6l-34 -26v-14l54 15l6 1l6 -1l52 -15v14
l-34 26l-9 6v96h21zM272 235v21h22v-21h-22zM272 192v21h21v-21h-21zM320 237v16h139v-16h-139zM320 195v16h139v-16h-139zM272 149v21h21v-21h-21zM320 152v16h139v-16h-139z" />
    <glyph glyph-name="ac-right" unicode="&#xf109;" 
d="M469 192.5q0 6.5 -4.5 11t-11.5 4.5h-101h-12l-6 11l-99 165h-34l54 -146l10 -29h-169l-6 9l-26 34h-14l14 -53l2 -6l-2 -6l-15 -54h15l26 34l6 9h169l-10 -29l-54 -147h34l98 166l7 10h113q7 0 11.5 5t4.5 11.5zM491 192q-1 -15 -11.5 -26t-26.5 -11h-101l-105 -176h-76
l64 176h-128l-32 -43h-54l23 81l-23 80h54l32 -43h128l-64 175h76l105 -175h101q16 -1 27 -12t11 -26z" />
    <glyph glyph-name="ac-settings" unicode="&#xf10a;" 
d="M379 290h-11v-20l-11 -4q-6 -1 -12 -4l-10 -6l-9 9l-6 6l-7 -8l6 -6l8 -8l-5 -10q-3 -6 -5 -11l-3 -12h-21v-11h20l4 -11q2 -6 4 -11l6 -11l-8 -8l-6 -6l7 -8l6 6l9 9l10 -6q6 -3 11 -5l12 -3v-21h11v21l11 3q6 2 11 5l11 6l8 -9l6 -6l8 8l-6 6l-8 8l5 11q3 5 5 11l3 11
h20v11h-20l-3 12q-2 5 -5 10l-5 11l8 8l6 6l-8 8l-6 -6l-8 -8l-11 5q-5 3 -11 5l-11 3v20zM373 162.5q-20 0.5 -34 14.5t-14 33.5t14 33.5t34 14t34 -14t14 -33.5t-14 -34t-34 -14zM395 306v-24q7 -2 14 -6l17 17l30 -30l-17 -17q4 -7 6 -14h24v-43h-24q-2 -7 -6 -14l17 -17
l-30 -30l-17 17q-7 -4 -14 -6v-25h-43v25q-7 2 -14 6l-18 -18l-30 30l18 18q-4 7 -6 14h-25v43h25q2 7 6 14l-18 17l30 30l18 -17q7 4 14 6v24h43zM373.5 178q13.5 0 22.5 9.5t9 23t-9 22.5t-22.5 9t-23 -9t-9.5 -22.5t9.5 -23t23 -9.5zM293 128v-85l43 -32v-54l-79 23
l-81 -23v54l43 32v128l-176 -64v76l176 105v96v4.5t2 10t5.5 13t11.5 10.5t19 5q17 0 26 -11t10 -21v-11v-96h-21v96q0 21 -16 21t-16 -21v-96v-12l-10 -6l-166 -99v-34l148 54l28 10v-169l-9 -6l-34 -26v-14l54 15l6 1l6 -1l52 -15v14l-34 26l-9 6v96h21z" />
    <glyph glyph-name="ac-up" unicode="&#xf10b;" 
d="M255.5 405q-6.5 0 -11 -4.5t-4.5 -11.5v-101v-12l-11 -6l-165 -99v-34l146 54l29 10v-169l-9 -6l-34 -26v-14l53 14l6 2l6 -2l54 -15v15l-34 26l-9 6v169l29 -10l147 -54v34l-166 98l-10 7v113q0 7 -5 11.5t-11.5 4.5zM256 427q7 0 14 -3t12 -8t8 -12t3 -15v-101
l176 -105v-76l-176 64v-128l43 -32v-54l-81 23l-80 -23v54l43 32v128l-175 -64v76l175 105v101q1 16 12 27t26 11z" />
    <glyph glyph-name="airports-directory" unicode="&#xf10c;" 
d="M160 59q-11 0 -19 -8t-8 -19t8 -19t19 -8h240v-21h-240q-20 0 -34 14t-14 34v304q0 26 19 45t45 19h224v-341h-240zM133 336v-264q12 8 27 8h219v299h-203q-18 0 -30.5 -12.5t-12.5 -30.5zM318 239h23v-19h-23q-3 -19 -18.5 -34t-33.5 -18v-24h-20v24q-12 2 -23 9.5
t-19 19t-10 23.5h-23v19h23q3 19 18.5 34t33.5 18v24h20v-24q18 -3 33.5 -18t18.5 -34zM232 195l58 58l-10 10l-58 -57zM165 40h235v-16h-235q-7 1 -7 8t7 8z" />
    <glyph glyph-name="airports-nearby" unicode="&#xf10d;" 
d="M355 181h50v-41h-50q-7 -40 -39 -72t-72 -39v-50h-41v50q-39 7 -71.5 39t-38.5 72h-50v41h50q6 39 38.5 71.5t71.5 38.5v50h41v-50q40 -6 72 -38.5t39 -71.5zM174 88l122 122l-22 22l-122 -122zM447 331h22v-22h-22q-3 -18 -18.5 -33.5t-33.5 -18.5v-22h-22v22
q-18 3 -33.5 18.5t-18.5 33.5h-22v22h22q3 18 18.5 33.5t33.5 18.5v22h22v-22q18 -3 33.5 -18.5t18.5 -33.5zM362 282l60 61l-15 15l-61 -61z" />
    <glyph glyph-name="airports" unicode="&#xf10e;" 
d="M410 216h59v-48h-59q-7 -47 -45 -85t-85 -45v-59h-48v59q-47 7 -85 45t-45 85h-59v48h59q7 47 45 85t85 45v59h48v-59q47 -7 85 -45t45 -85zM197 107l144 144l-26 26l-144 -144z" />
    <glyph glyph-name="cabin-seat" unicode="&#xf10f;" 
d="M149 384h-34l-8 -9v-89l109 -233h189v45l-8 9h-165l-6 12l-75 160l-2 4v101zM171 405v-117l74 -160h160l22 -21v-75h-224l-118 249v103l22 21h64zM235 184v16h128v-16h-128zM224 -21v16h203v-16h-203z" />
    <glyph glyph-name="cabin" unicode="&#xf110;" 
d="M224 -21v16h203v-16h-203zM427 171v-16h-194l12 -27h160l22 -21v-75h-224l-118 249v103l22 21h64v-117l54 -117h202zM397 107h-165l-6 12l-75 160l-2 4v101h-34l-8 -9v-89l109 -233h189v45zM299 213q-22 0 -38 16t-16 38v64q0 22 16 37.5t38 15.5h21q22 0 37.5 -15.5
t15.5 -37.5v-64q0 -22 -15.5 -38t-37.5 -16h-21zM267 331v-64q0 -14 9 -23t23 -9h21q13 0 22.5 9t9.5 23v64q0 13 -9.5 22.5t-22.5 9.5h-21q-14 0 -23 -9.5t-9 -22.5z" />
    <glyph glyph-name="cleaning" unicode="&#xf111;" 
d="M411 310h32v-10q0 -22 -8 -48.5t-22 -50t-30 -38.5l-15 -162h-224l-15 162q-25 23 -42.5 63t-17.5 74v10h32v-21h-10q1 -21 11.5 -48t23.5 -43l-14 155h96v11q0 8 6 13.5t14 5.5h99q4 0 8 -1.5t6.5 -4t4 -6t1.5 -7.5v-11h53l-14 -155q13 16 23.5 43t11.5 48h-10v21z
M224 364v-134h107v134q0 3 -4 3h-99h-1q-3 0 -3 -3zM208 332h-73l15 -159q19 -16 50 -27.5t56 -11.5t56.5 11.5t50.5 27.5l14 159h-30v-118h-139v118zM164 22h184l3 24h-190zM352 62l8 82q-20 -13 -50.5 -22t-53.5 -9t-53.5 9t-50.5 22l8 -82h192z" />
    <glyph glyph-name="eapis-3" unicode="&#xf112;" 
d="M404 106v93h-6q-19 0 -32 17t-13 41v9l-14 -14q2 -26 16.5 -46t35.5 -23v-61zM170 331l-14 13l-1 36l67 20l2 -5q14 -11 32 -11t33 11l1 5l68 -20v-1l-2 -34l-14 -15l2 37l-44 13l-25 -117l-18 -18l27 129q-13 -7 -28 -7t-28 7l27 -128l-18 18l-25 116l-43 -12zM121 123
v60q21 4 35.5 23.5t15.5 46.5l-13 13v-9q0 -24 -13 -41t-32 -17h-6v-93zM249 154v-31h-30l-17 -17h47v-34h-81l-16 -16h97v-14q0 -17 -9.5 -29.5t-22.5 -12.5h-96v26l-13 -10v-32h110q24 0 38 27q14 -27 39 -27h109v32l-13 10v-26h-96q-13 0 -22.5 12.5t-9.5 29.5v14h97
l-16 16h-81v34h48l-16 16h-32v32h-14zM212 181l179 179l18 -19l-179 -179l5 -4l-136 -132l-28 29l136 131zM282 162l-179 179l19 19l179 -179l5 5l135 -131l-28 -29l-136 132z" />
    <glyph glyph-name="eapis-alt" unicode="&#xf113;" 
d="M420 127l28 -10v-117h-384v117l20 7l-9 15l64 21l9 -15l44 15l64 -85l64 85l36 -12l7 12l64 -21zM388 105l15 25l-33 11l-15 -26zM132 141l-33 -11l15 -25l33 10zM427 21v81l-19 6l-13 -23l-64 22l13 23l-16 5l-55 -73l-17 -23l-17 23l-55 73l-25 -9l12 -19l-64 -22
l-12 20l-10 -3v-81h342zM117 45v16h64v-16h-64zM331 45v16h64v-16h-64zM256 256q-41 0 -67.5 5.5t-32.5 10.5l-7 5l-32 54l32 42l107 32l107 -32l32 -42l-32 -54q-2 -2 -7 -5.5t-32 -9.5t-68 -6zM143 329l17 -28l92 19h4h4l92 -19l17 28l-19 26l-94 28l-94 -28zM272 339
l-16 -8l-16 8v32l16 -8l16 8v-32zM235 213h42q12 0 21 -8.5t9 -20.5h-16q0 3 -1 5.5t-3 4t-4.5 2.5t-5.5 1h-42q-6 0 -10 -4t-4 -9h-16q0 5 1.5 9.5t4.5 8t6.5 6t8 4t9.5 1.5z" />
    <glyph glyph-name="eapis" unicode="&#xf114;" 
d="M293 117l9 -21l-61 -60l-173 173l211 211l173 -173l-104 -105l-9 22l83 83l-143 143l-181 -181l143 -143zM317 178l42 -103l-70 -70h-129v93l16 -16v-61h106l58 58l-38 93q-1 2 -3 4h-2h-2l-8 -4q-8 -4 -8 -14q0 -3 1 -6l22 -54v-2l-15 -5l-21 54q-3 7 -3 13q0 9 5 17
t13 12l8 3q4 2 8 2t8 -2q9 -3 12 -12zM160 -46v32h128v-32h-128zM313 224q11 13 20 27q5 -13 5 -27t-5 -27q-9 14 -20 27zM237 198q8 -7 14 -13q-14 -12 -31 -21q-10 7 -17 17q9 16 21 31q6 -7 13 -14zM278 239q2 -2 14 -15q-1 -2 -6 -7l-8 -8q-6 -6 -15 -14q-1 2 -6 6.5
t-8 7.5q-7 6 -15 15l8 8l7 7q6 7 14 14q13 -12 15 -14zM213 224q-10 -13 -19 -27q-5 13 -5 27t5 27q9 -14 19 -27zM220 284q17 -9 31 -21q-7 -6 -14 -13q-6 -6 -13 -14q-12 14 -21 31q7 10 17 17zM307 284q10 -7 17 -17q-9 -16 -21 -31q-6 7 -13 14q-6 6 -14 13q14 12 31 21
zM263 274q-12 11 -26 20q13 5 26.5 5t26.5 -5q-14 -9 -27 -20z" />
    <glyph glyph-name="egi 2" unicode="&#xf115;" 
d="M427 363h-342v-342h342v342zM448 384v-384h-384v384h384zM148 239h69v-17h-48v-19h41v-17h-41v-20h49v-17h-70v90zM236 194q0 47 44 47q26 0 35 -19l-17 -9q-5 10 -17 10h-1q-23 0 -23 -29q0 -30 23 -30h1q8 0 13 5t5 12v1h-19v16h38v-49h-15l-2 11q-8 -12 -23 -12h-2
q-40 0 -40 46zM343 239h21v-90h-21v90z" />
    <glyph glyph-name="egi" unicode="&#xf116;" 
d="M438 128h35v-21h-53v16q0 66 -47 113t-113 47t-113 -47t-47 -113v-16h-53v21h30q3 66 47 114l-22 24l12 11l21 -21q22 20 57.5 34t65 14t65 -14t57.5 -34l21 21l11 -12l-21 -23q44 -48 47 -114zM236 331h43l-22 -32zM293 224h-71l35 53zM164 171v21h192v-21h-192zM164 43
v21h192v-21h-192zM185 128v21h150v-21h-150zM185 85v22h150v-22h-150z" />
    <glyph glyph-name="fbo-1" unicode="&#xf117;" 
d="M491 107h-35v-75h35v-21h-363v117h363v-21zM362 107h-62v-75h62v75zM284 107h-63v-75h63v75zM149 107v-75h56v75h-56zM440 32v75h-62v-75h62zM149 149v64h-42v-202h-22v202h-10v22h106v-22h-10v-64h-22zM128 379q7 0 11.5 -5t4.5 -11h-32q0 6 4.5 11t11.5 5zM43 245v22h7
l-16 32l16 32h-7v21h170v-21h-7l16 -32l-16 -32h7v-22h-170zM188 331h-20v-64h20l16 32zM152 331h-48v-64h48v64zM52 299l16 -32h20v64h-20z" />
    <glyph glyph-name="fbo-2" unicode="&#xf118;" 
d="M392 147l35 -92v-87h-83v88h-176v-88h-83v88l22 42v137h-11v21h107v-21h-11v-70q32 6 64 6q67 -1 131 -22zM128 235v-94l3 6l4 1q17 7 36 12v75h-43zM405 -11v62l-29 79q-59 18 -120 19q-56 0 -110 -19l-39 -79v-62h45v83h208v-83h45zM149 88v16h64v-16h-64zM224 88v16
h64v-16h-64zM299 88v16h64v-16h-64zM149.5 400q6.5 0 11 -4.5t4.5 -11.5h-32q0 7 5 11.5t11.5 4.5zM64 267v21h7l-16 32l16 32h-7v21h171v-21h-7l16 -32l-16 -32h7v-21h-171zM210 352h-21v-64h21l16 32zM173 352h-48v-64h48v64zM73 320l16 -32h20v64h-20z" />
    <glyph glyph-name="fbo" unicode="&#xf119;" 
d="M491 106.5q0 -26.5 -19 -48t-45 -25.5v-33h-171v213h171v-33q26 -3 45 -25t19 -48.5zM405 21v171h-128v-171h128zM427 54q17 4 29.5 19.5t12.5 33.5t-12.5 33t-29.5 19v-105zM371 235v-11h-16v11q0 12 8.5 20.5t20.5 8.5q6 0 9.5 4t3.5 9.5t-3.5 9.5t-9 4t-9.5 -4t-4 -10
h-16q0 12 8.5 21t20.5 9t20.5 -9t8.5 -21t-8.5 -20.5t-20.5 -8.5q-5 0 -9 -4t-4 -9zM299 259q-12 0 -20 8.5t-8 20.5t8 20.5t20 8.5q5 0 9 4t4 10v21h16v-21q0 -13 -8.5 -21.5t-20.5 -8.5q-5 0 -9 -4t-4 -9t4 -9t9 -4q12 0 20.5 -9t8.5 -21v-21h-16v21q0 6 -4 10t-9 4z
M214 218l2 13l-9 9l13 2l5 12l6 -12l13 -2l-9 -9l2 -13l-12 6zM225 277q19 0 31 -13v-18q-4 9 -13 15t-18 6q-14 0 -23.5 -10t-9.5 -24t9.5 -23.5t23.5 -9.5q5 0 10 1v-11q-5 -1 -10 -1v0q-10 0 -20.5 6t-15.5 14h-25q-4 1 -4 6t4 6h21q-2 3 -2 6h-25q-4 1 -4 6t4 6h25
q0 3 2 6h-39q-5 2 -5 6.5t5 6.5h43q4 5 9.5 9.5t12.5 7t14 2.5zM235 43v-22h-11q-30 0 -55 5.5t-41 14.5t-28.5 19.5t-19 21t-10.5 19.5t-5 14l-1 6v40l-40 108q26 0 48.5 11t37 25t44.5 25t70 11q16 0 32 -2v-21q-16 2 -31 2h-1q-27 0 -49 -6t-32.5 -12.5t-27.5 -18.5
q-36 -27 -62 -33q1 -2 31 -81h151v-16h-150v-24h150v-16h-147q4 -11 11.5 -21t22 -22t41 -19.5t61.5 -7.5h11z" />
    <glyph glyph-name="flight-attendant" unicode="&#xf11a;" 
d="M383 100q6 -5 11 -13t8 -17t3 -17v-74h-298v74q0 12 6.5 26t15.5 21l42 35h-11q-18 0 -30.5 12.5t-12.5 30.5q18 0 30.5 12.5t12.5 29.5v32v1q0 14 6.5 31.5t14.5 28.5l23 -7q-10 -9 -16.5 -24.5t-6.5 -28.5v-1v-32q0 -16 -10.5 -33t-25.5 -24q6 -7 15 -7l53 2v-23
l-23 -13h27l39 -46l39 46h27l-23 13v21h53q9 0 15 7q-15 7 -25.5 24t-10.5 33v33q0 6 -2 13.5t-5 14.5t-7 13.5t-8 11.5l22 7q5 -7 10 -17.5t8 -22t3 -20.5v-1v-32q0 -8 3.5 -16t9 -13.5t13.5 -9t17 -3.5q0 -18 -12.5 -30.5t-30.5 -12.5h-11zM384 0v53q0 19 -14 31l-27 22
h-41l-46 -54l-46 54h-39v2l-29 -24q-14 -12 -14 -31v-53h256zM331 327l-75 -21l-75 21v54q13 11 34.5 17.5t40.5 6.5q9 0 19.5 -1.5t20.5 -4.5t19 -8t16 -10v-54zM197 373v-34l59 -16l59 16v34q-27 16 -59 16t-59 -16zM277 359.5q0 4.5 3.5 7.5t7.5 3t7.5 -3t3.5 -7.5
t-3.5 -7.5t-7.5 -3t-7.5 3t-3.5 7.5z" />
    <glyph glyph-name="flight-plan-doc" unicode="&#xf11b;" 
d="M85 427h197l145 -145v-325h-342v470zM390 288l-102 102v-102h102zM107 405v-426h298v288h-138v138h-160zM383 116q0 -14 -10 -23.5t-23 -9.5q-9 0 -16.5 4.5t-12 12t-4.5 16.5q0 13 9 23l-31 45q-6 -2 -11.5 -2t-10.5 2q0 -1 -1 -2l-20 -29l-14 9l22 31q-9 9 -9 22
q0 14 9.5 23.5t23 9.5t23 -9.5t9.5 -23.5q0 -13 -8 -22h1l32 -46q4 2 9 2q13 0 23 -9.5t10 -23.5zM268 215q0 -4 2 -8t6 -6t8 -2q7 0 11.5 5t4.5 11.5t-4.5 11.5t-11.5 5q-5 0 -8.5 -2.5t-5.5 -6t-2 -8.5zM350 100q7 0 11.5 4.5t4.5 11t-4.5 11.5t-11.5 5q-4 0 -8 -2t-6 -6
t-2 -8q0 -7 4.5 -11.5t11.5 -4.5zM197 103l14 -9l-26 -38q9 -9 9 -22q0 -14 -10 -23.5t-23.5 -9.5t-23 9.5t-9.5 23.5t9.5 23.5t22.5 9.5q6 0 11 -2zM160.5 18q6.5 0 11.5 4.5t5 11.5t-5 11.5t-11.5 4.5t-11.5 -4.5t-5 -11.5t5 -11.5t11.5 -4.5zM212 110l-29 9l56 31l-8 -64
z" />
    <glyph glyph-name="flight-plan-new" unicode="&#xf11c;" 
d="M383 181q0 -18 -12.5 -30t-30 -12t-29.5 12t-12 30q0 17 12 29l-41 59q-7 -2 -14 -2t-14 2l-2 -2l-26 -38l-18 12l28 40q-11 12 -11 29q0 18 12.5 30.5t30 12.5t30 -12.5t12.5 -30.5q0 -17 -12 -29h1l42 -59q5 2 12 2q17 0 29.5 -12.5t12.5 -30.5zM235 309q0 -9 6 -15
t15 -6t15 6t6 15t-6 15t-15 6t-15 -6t-6 -15zM341 160v0q6 0 11 3t8 7.5t3 10.5q0 9 -6.5 15t-15 6t-15 -6t-6.5 -15t6.5 -15t14.5 -6zM143 164l18 -13l-34 -48q12 -12 12 -29t-12.5 -29.5t-30.5 -12.5t-30.5 12.5t-12.5 30t12.5 30t30.5 12.5q7 0 14 -2zM96.5 54
q8.5 0 15 6.5t6.5 15t-6.5 15t-15.5 6.5q-5 0 -10 -3t-8 -8t-3 -11q0 -8 6.5 -14.5t15 -6.5zM427 96h42v-21h-42v-43h-22v43h-42v21h42v43h22v-43zM163 173l-38 11l73 41l-11 -83z" />
    <glyph glyph-name="flight-plan" unicode="&#xf11d;" 
d="M383 181q0 -18 -12.5 -30t-30 -12t-29.5 12t-12 30q0 17 12 29l-41 59q-7 -2 -14 -2t-14 2l-2 -2l-26 -38l-18 12l28 40q-11 12 -11 29q0 18 12.5 30.5t30 12.5t30 -12.5t12.5 -30.5q0 -17 -12 -29h1l42 -59q5 2 12 2q17 0 29.5 -12.5t12.5 -30.5zM235 309q0 -9 6 -15
t15 -6t15 6t6 15t-6 15t-15 6t-15 -6t-6 -15zM341 160v0q6 0 11 3t8 7.5t3 10.5q0 9 -6.5 15t-15 6t-15 -6t-6.5 -15t6.5 -15t14.5 -6zM143 164l18 -13l-34 -48q12 -12 12 -29t-12.5 -29.5t-30.5 -12.5t-30.5 12.5t-12.5 30t12.5 30t30.5 12.5q7 0 14 -2zM96.5 54
q8.5 0 15 6.5t6.5 15t-6.5 15t-15.5 6.5q-5 0 -10 -3t-8 -8t-3 -11q0 -8 6.5 -14.5t15 -6.5zM163 173l-38 11l73 41l-11 -83z" />
    <glyph glyph-name="flight-schedule-alt" unicode="&#xf11e;" 
d="M392 331h45v-320h-373v320h45v32h16v-32h51v32h16v-32h51v32h16v-32h50v32h16v-32h51v32h16v-32zM416 32v216h-331v-216h331zM85 264h331v45h-24v-21h-16v21h-51v-21h-16v21h-50v-21h-16v21h-51v-21h-16v21h-51v-21h-16v21h-24v-45zM128 64v53h53v-53h-53zM128 160v53h53
v-53h-53zM224 64v53h53v-53h-53zM224 160v53h53v-53h-53zM320 64v53h53v-53h-53zM320 160v53h53v-53h-53z" />
    <glyph glyph-name="flight-schedule" unicode="&#xf11f;" 
d="M392 331h45v-320h-373v320h45v32h16v-32h51v32h16v-32h51v32h16v-32h50v32h16v-32h51v32h16v-32zM416 32v216h-331v-216h331zM85 264h331v45h-24v-21h-16v21h-51v-21h-16v21h-50v-21h-16v21h-51v-21h-16v21h-51v-21h-16v21h-24v-45zM330 217h-1q5 -6 5 -11t-3 -9l-3 -3
l-29 -29l21 -83l-22 -22l-33 71l-38 -38l3 -22l-16 -16l-16 30l-31 18l16 15l22 -3l38 38l-71 33l22 23l83 -21l29 28q1 1 3.5 2.5t9 3.5t11.5 -5z" />
    <glyph glyph-name="fuel" unicode="&#xf120;" 
d="M405 331q36 0 61 -25t25 -60.5t-25 -60.5t-61 -25h-106q-36 0 -61 25t-25 60.5t25 60.5t61 25h106zM405 181q27 0 45.5 19t18.5 45.5t-18.5 45t-45.5 18.5h-106q-27 0 -45.5 -18.5t-18.5 -45t18.5 -45.5t45.5 -19h106zM149.5 117q17.5 0 30 -12.5t12.5 -30t-12.5 -30
t-30 -12.5t-30 12.5t-12.5 30t12.5 30t30 12.5zM149 48q11 0 19 8t8 19t-8 18.5t-19 7.5t-18.5 -7.5t-7.5 -18.5t7.5 -19t18.5 -8zM352 117q18 0 30.5 -12.5t12.5 -29.5q0 -12 -6 -22t-15.5 -15.5t-21.5 -5.5q-18 0 -30.5 12.5t-12.5 30t12.5 30t30.5 12.5zM352 48
q11 0 19 8t8 19q0 7 -3.5 13t-10 9.5t-13.5 3.5t-13.5 -3.5t-10 -9.5t-3.5 -13q0 -11 8 -19t19 -8zM395 149l21 -32h32v-32h-21v11h-22l-22 32h-62l-22 -32h-96l-32 45v115h-85l-43 -91v-58h42v-32h-21v10h-43v86l54 106h117v-128l21 -32h75l21 32h86zM149 235v-64h-74
l21 64h53zM133 187v32h-25l-11 -32h36zM380 285q3 3 6 3q4 0 6 -2q2 -3 2 -6q0 -4 -3 -6l-14 -15l11 -41l-12 -12l-16 36l-19 -19l1 -11l-8 -8l-8 15l-16 9l8 8l11 -2l19 19l-35 17l11 11l42 -10zM309 344v16h86v-16h-86zM203 67v16h96v-16h-96z" />
    <glyph glyph-name="hangar" unicode="&#xf121;" 
d="M256 248v0q8 0 12.5 -4.5t4.5 -9.5v-5v-44l81 -49v-35l-81 29v-59l20 -14v-25l-37 11l-37 -11v25l19 14v59l-81 -30v36l81 48v45q0 19 18 19zM459 21h-22v282l-181 90l-181 -90v-282h-22v295l203 101l203 -101v-295zM160 280v16h160v-16h-160zM213 280v16h139v-16h-139z
M192 312v16h128v-16h-128z" />
    <glyph glyph-name="helicopter" unicode="&#xf122;" 
d="M152 171v121h16v-121h-16zM344 171v121h16v-121h-16zM195 -43v96h16v-96h-16zM300 213l9 18v19l22 21v-45l-15 -29zM181 271l22 -21v-19l9 -18l-16 -16l-15 29v45zM285 151v-55h24v-22h-24v-77q0 -12 -8.5 -20.5t-20.5 -8.5t-20.5 8.5t-8.5 20.5v77h-24v22h24v55l-8 8
l15 15l15 -14v-163q0 -8 7.5 -8t7.5 8v163l14 14l15 -15zM203 332v-22l-22 21v1q0 31 22 57.5t53 26.5t53 -26.5t22 -57.5v-1l-22 -21v22q0 23 -15.5 43t-37.5 20t-37.5 -20t-15.5 -43zM280 226.5q0 -3.5 -2 -7.5l175 -175l-15 -15l-174 175q-4 -1 -8 -1t-7 1l-175 -175
l-15 15l175 175q-2 4 -2 7.5t2 7.5l-175 174l15 16l175 -175q3 1 7 1t7 -1l175 175l15 -16l-174 -174q1 -4 1 -7.5zM152 363v21h16v-21h-16zM344 363v21h16v-21h-16z" />
    <glyph glyph-name="intl-trip" unicode="&#xf123;" 
d="M444 381v0q4 -5 3.5 -8.5t-2.5 -6.5l-2 -3l-21 -21l15 -62l-17 -17l-24 54l-29 -29l3 -16l-12 -12l-12 22l-23 13l12 12l16 -3l28 29l-52 24l16 17l62 -16l22 22q1 1 2.5 2t6.5 2t8 -3zM117 187v12l13 2l11 12l12 -23l13 -25l-13 -24l-23 -13l-13 12l13 25zM450 247
q8 -27 8 -56q0 -83 -59 -142.5t-143 -59.5q-28 0 -63.5 12t-58.5 29l16 15q13 -10 28 -17l4 4l29 10h13l9 24l33 -13l11 -10l11 14l32 18l40 -30q32 22 54.5 65t22.5 82q0 19 -4 37zM234 261v16h14l13 11h16v-14l8 -14l-11 -15h-26zM170 232v13l26 -13l14 -26l-13 -15
l-27 14l11 13zM256 120v24l69 70l12 -12h12l6 6l11 -21l8 -9l10 -23l-12 -29l-10 -20h-13l-11 21l-12 14l-13 11l-11 -14h-12l-14 -12zM78.5 17q-13.5 0 -23.5 9.5t-10 23t10 23.5l9 9l11 -11l-9 -9q-5 -5 -5 -12t5 -12t12 -5t12 5l235 234l11 -11l-235 -235q-9 -9 -22.5 -9
zM310 387l-17 -18l-8 2l-19 -19l-10 11l-11 -22l11 -10l-11 -11l-23 -11h-9l-11 -10l11 -11l-11 -22h-10l10 -21l-21 11v21l-11 11l-16 10h-16v-21l-21 -10l10 -11l-10 -11v-21l-11 10h-11l-10 20q-11 -30 -11 -62q0 -24 10 -55t24 -51l-15 -15q-17 22 -28.5 57.5
t-11.5 63.5q0 84 59 143.5t143 59.5h1q28 0 54 -8z" />
    <glyph glyph-name="luggage" unicode="&#xf124;" 
d="M489 299l3 -22l-55 -9v-215h-61q8 -9 8 -21q0 -13 -9.5 -22.5t-22.5 -9.5t-22.5 9.5t-9.5 22.5q0 12 8 21h-208q8 -9 8 -21q0 -13 -9.5 -22.5t-22.5 -9.5t-22.5 9.5t-9.5 22.5q0 12 8 21h-51v22h395v211zM395 341v-245h-352v245h106v54h139v-54h107zM171 373v-32h96v32
h-96zM373 117v203h-309v-203h309zM323 149v139h16v-139h-16zM99 149v139h16v-139h-16z" />
    <glyph glyph-name="notams-2" unicode="&#xf125;" 
d="M117 128v21h22v-21h-22zM171 128v21h224v-21h-224zM117 75v21h22v-21h-22zM171 75v21h224v-21h-224zM117 21v22h22v-22h-22zM171 21v22h224v-22h-224zM256 405l149 -213h-298zM265 326h-18l2 -76h14zM256 218h1q10 0 10 9v1q0 3 -1.5 5.5t-4 3.5t-5 1t-5 -1t-4 -3.5
t-1.5 -5.5q0 -10 10 -10z" />
    <glyph glyph-name="notams-3" unicode="&#xf126;" 
d="M197 5h-37q-13 0 -24 6.5t-17.5 17.5t-6.5 24v304q0 27 19 45.5t45 18.5h224v-341h-240q-11 0 -19 -8t-8 -19t8 -18.5t19 -7.5h37v-22zM176 400q-18 0 -30.5 -12.5t-12.5 -30.5v-264q12 8 27 8h219v299h-203zM283 -37l-32 32l-32 -32v96h64v-96zM400 5h-96v22h75v32h21
v-54zM256 208q21 0 21 -20q0 -19 -21 -19q-20 0 -20 19q0 20 20 20zM269 222h-27l-5 114h38z" />
    <glyph glyph-name="notams" unicode="&#xf127;" 
d="M224 72v16h128v-16h-128zM160 72v16h21v-16h-21zM224 22v16h128v-16h-128zM160 22v16h21v-16h-21zM282 427l145 -145v-325h-342v470h197zM288 390v-102h102zM405 -21v288h-138v138h-160v-426h298zM160 118l96 149l96 -149h-192zM256 134q4 0 7.5 3t3.5 7.5t-3.5 7.5
t-7.5 3t-7.5 -3t-3.5 -7.5t3.5 -7.5t7.5 -3zM263 162l3 62h-20l3 -62h14z" />
    <glyph glyph-name="pilot-crushcap" unicode="&#xf128;" 
d="M255 352q40 0 70.5 -11.5t45.5 -25t37.5 -25t49.5 -11.5l-41 -107v-40q0 -4 -2 -11t-12.5 -24t-26.5 -30t-48 -24t-73 -11q-30 0 -55.5 5.5t-41.5 14.5t-28 19.5t-18.5 21t-10.5 19.5t-5 14l-1 6v40l-40 107q26 0 48 11.5t37 25t45 25t70 11.5zM116 164v-25h280v25h-280z
M255 53q28 0 51 5.5t37.5 13t25.5 18t16 18t8 16.5h-274q4 -11 11 -21t22 -22.5t41.5 -20t61.5 -7.5zM397 180q27 72 31 81q-26 6 -62 32q-18 13 -28.5 19t-33 12.5t-49.5 6.5t-49 -6.5t-32.5 -12.5t-27.5 -19q-36 -26 -62 -32q12 -31 31 -81h282zM245 229l2 13l-10 9l13 2
l6 11l6 -11l13 -2l-9 -9l2 -13l-12 6zM177 256q-5 1 -5 6t5 6h43q5 8 15.5 14t20.5 6t20.5 -6t15.5 -14h43q5 -1 5 -6t-5 -6h-39q2 -3 3 -6h24q5 -1 5 -6t-5 -6h-24q-1 -4 -3 -6h21q5 -2 5 -6.5t-5 -6.5h-25q-3 -5 -9 -9.5t-13.5 -7t-13.5 -2.5q-10 0 -20.5 5.5t-15.5 13.5
h-25q-5 2 -5 6.5t5 6.5h20l-2 6h-24q-5 1 -5 6t5 6h25q0 3 2 6h-39zM256 277q-14 0 -23.5 -9.5t-9.5 -23.5t9.5 -24t23.5 -10t23.5 10t9.5 24t-9.5 23.5t-23.5 9.5z" />
    <glyph glyph-name="plane-approach-1" unicode="&#xf129;" 
d="M454 68l25 -25l-47 -26l-27 -48l-24 25l4 34l-59 59l-51 -110l-36 35l33 130l-44 44q-1 1 -2 2.5t-3.5 5.5t-3.5 8.5t0.5 10t6.5 10.5q6 7 15 7q13 -1 21 -10l44 -44l130 33l35 -35l-110 -52l59 -59zM424 31l28 16l-4 4l-26 -3l-8 -1l-6 5l-59 59l-16 16l20 10l90 42
l-12 13l-121 -31l-9 -2l-6 6l-45 45v0q-3 3 -9 4q-2 0 -4 -2q-6 -6 2 -15l44 -44l7 -6l-3 -9l-30 -121l13 -12l41 90l10 20l16 -16l59 -59l6 -6l-1 -7l-4 -27l4 -4l16 29l3 4zM180 283v71h21v-107h-107v21h71l-131 131l15 15z" />
    <glyph glyph-name="plane-approach-2" unicode="&#xf12a;" 
d="M292 156q6 4 11 4t9 -3l3 -3l27 -27l80 20l22 -22l-68 -32l36 -36l21 3l15 -15l-28 -17l-17 -29l-15 15l3 22l-37 36l-31 -68l-22 22l20 79l-27 28q-2 1 -3 3t-3 8.5t4 11.5zM245 288h22v-107h-107v22h70l-163 163l15 15l163 -163v70z" />
    <glyph glyph-name="psngr-boarding" unicode="&#xf12b;" 
d="M352 352h117v-111l-262 -294h-164v106h85v75h75v75l-2 111q2 2 4.5 5t10 9.5t15 9t18 -2t20.5 -17.5q14 -18 18 -41h65v75zM448 249v82h-75v-75h-74v-75h-75v-74h-75v-75h-85v-64h134zM123 165v59h-59v21h80v-80h-21zM206 384q0 13 9 22.5t22.5 9.5t22.5 -9.5t9 -22.5
t-9 -22.5t-22.5 -9.5t-22.5 9.5t-9 22.5z" />
    <glyph glyph-name="psngr-deboarding" unicode="&#xf12c;" 
d="M352 395h117v-111l-262 -295h-164v107h14q-19 72 14 116q18 20 33 19t25 -12l10 -12l-1 -36h65v74h74v75h75v75zM448 292v81h-75v-74h-74v-75h-75v-75h-75v-74h-85v-64h134zM248 331v-22h-80v80h21v-58h59zM71 277.5q0 13.5 9 22.5t22.5 9t22.5 -9t9 -23q0 -8 -4 -15.5
t-11.5 -11.5t-15.5 -4q-14 0 -23 9t-9 22.5z" />
    <glyph glyph-name="ramp-1" unicode="&#xf12d;" 
d="M154.5 95q17.5 0 30 -12.5t12.5 -30.5t-12.5 -30.5t-30 -12.5t-30 12.5t-12.5 30.5t12.5 30.5t30 12.5zM155 25q11 0 18.5 8t7.5 19t-7.5 19t-18.5 8t-19 -8t-8 -19t8 -19t19 -8zM357.5 95q17.5 0 30 -12.5t12.5 -30.5t-12.5 -30.5t-30 -12.5t-30 12.5t-12.5 30.5
t12.5 30.5t30 12.5zM357 25q11 0 19 8t8 19t-8 19t-19 8t-18.5 -8t-7.5 -19t7.5 -19t18.5 -8zM400 127l21 -32h32v-32h-21v10h-22l-21 32h-63l-21 -32h-97l-32 45v115h-84l-44 -91v-58h43v-32h-22v11h-42v85l53 107h117v-128l22 -32h74l22 32h85zM155 212v-64h-75l21 64h54z
M139 164v32h-26l-11 -32h37zM208 44v16h96v-16h-96zM275 353h-203v-67h144l6 -5l143 -122h99v30zM283 375l202 -176v-62h-128l-149 128h-158v110h233z" />
    <glyph glyph-name="ramp-2" unicode="&#xf12e;" 
d="M27 58.5q0 16.5 12 28.5t28.5 12t28.5 -12t12 -28q0 -11 -5.5 -20.5t-14.5 -15t-20 -5.5q-17 0 -29 12t-12 28.5zM60 112v117h16v-117h-16zM122 48v16h203v-16h-203zM464 69v66l-229 222h-177v-101h111h9l6 -6l182 -181l-9 -21l-188 186h-132v145h207l241 -235v-96h-21
v21zM395 9.5q-15 7.5 -20.5 23t1.5 31t23 21t31 -2t20.5 -23.5t-1.5 -31t-23 -20.5t-31 2zM395 9.5q-15 7.5 -20.5 23t1.5 31t23 21t31 -2t20.5 -23.5t-1.5 -31t-23 -20.5t-31 2z" />
    <glyph glyph-name="ramp-3" unicode="&#xf12f;" 
d="M256 232q7 0 12 -5t5 -12v-2v-43l79 -48v-34l-79 29v-57l19 -15v-24l-36 10l-36 -10v24l19 14v58l-79 -28v33l79 48v43v2q0 7 5 12t12 5zM427 21h-22v320h-298v-320h-22v342h342v-342zM240 256v53h32v-53h-32zM299 235h53v-32h-53v32z" />
    <glyph glyph-name="runway-analysis-1" unicode="&#xf130;" 
d="M395 329v0q5 0 7.5 -3.5t3.5 -6.5v-3v-28l53 -32v-23l-53 20v-39l13 -9v-17l-24 7l-24 -7v16l12 10v38l-52 -19v23l52 32v29q0 3 1.5 6t4.5 4.5t6 1.5zM320 152v22h149v-22h-149zM43 152v22h149v-22h-149zM56 184v171h16v-171h-16zM163 184v171h16v-171h-16zM109 184v22
h16v-22h-16zM125 224h-16v36h16v-36zM125 279h-16v36h16v-36zM109 334v21h16v-21h-16zM403 100h-99l-48 21l-44 -21h-103v42h16v-26h84l47 22l51 -22h80v26h16v-42zM248 64v66h16v-66h-16zM330 27h-16v28h-116v-28h-16v44h148v-44z" />
    <glyph glyph-name="runway-analysis-2" unicode="&#xf131;" 
d="M245 21v32h22v-32h-22zM428 21h-24l-91 182h23zM245 169v33h22v-33h-22zM245 84v54h22v-54h-22zM107 21h-24l82 182h23zM404 251l-16 -7l-108 20q-9 -5 -20 -5q-13 0 -24 9t-13 23l-85 70l-5 17l104 -60q7 5 15 7q-2 3 -2 5t1 4q2 6 9 6q3 0 5 -2q2 -1 4 -3l10 16l-14 19
l2 5l22 -17l27 -6l-2 -5l-25 -1l-5 -18q3 0 5 -1q6 -3 6 -9v-5q-2 -4 -7 -4q2 -8 3 -16z" />
    <glyph glyph-name="runway-analysis-3" unicode="&#xf132;" 
d="M331 277q6 0 9 -3.5t4 -7.5v-4v-33l61 -37v-27l-61 23v-45l15 -11v-19l-28 8l-28 -8v19l15 11v45l-62 -23v27l62 37v33q0 15 13 15zM160 363q-26 0 -45 -19t-19 -45.5t19 -45t45 -18.5t45 18.5t19 45t-19 45.5t-45 19zM160 384q35 0 60 -25t25 -60.5t-25 -60.5t-60 -25
q-17 0 -33 7t-27.5 18.5t-18 27t-6.5 33.5q0 35 25 60t60 25zM149 53v173h22v-173h-22zM405 53h-298v-32h298v32zM427 75v-75h-342v75h342zM107 -29v16h42v-16h-42zM363 -29v16h42v-16h-42zM153 284l-21 37l14 8l21 -37zM149 288q0 4 3.5 7.5t7.5 3.5t7.5 -3.5t3.5 -7.5
t-3.5 -7.5t-7.5 -3.5t-7.5 3.5t-3.5 7.5z" />
    <glyph glyph-name="runway" unicode="&#xf133;" 
d="M152 286l96 -71l9 -6l11 3l113 38q4 1 8 1h2q7 0 8 -6q1 -2 1 -4v-2q-5 -6 -11 -8v0l-78 -26l-94 -32l-97 -34l-46 10l-19 28l7 3l33 -19l8 -5l9 4l71 24l29 9l-19 24l-52 65zM155 310l1 -1l105 -76l114 38q7 2 14 2h2q9 0 17.5 -6t10.5 -15q5 -14 -1 -24t-15 -14l-8 -3
l-77 -26l-94 -32l-102 -35l-60 12l-41 58l43 15l41 -23l71 24l-71 88zM64 35v16h213v-16h-213zM299 35v16h85v-16h-85zM405 35v16h86v-16h-86z" />
    <glyph glyph-name="screen-seat" unicode="&#xf134;" 
d="M459 124q9 -12 10 -28v-75h-21v75q-2 9 -7 16l-18 29q-7 11 -7 23v128q0 17 -11.5 30.5t-27.5 17.5q-60 12 -121 12t-121 -12q-16 -4 -27 -18t-11 -30v-128q0 -12 -7 -23l-19 -29q-5 -7 -7 -16v-75h-21v75q1 16 10 28l19 29q3 5 3 11v128q0 24 16.5 44t39.5 25
q62 12 125 12t126 -12q15 -4 27.5 -14t20 -25t7.5 -30v-128q0 -6 3 -12zM128 139v170h256v-170h-256zM144 155h224v19h-224v-19zM368 293h-224v-103h224v103zM228 276l56 -35l-56 -27v62z" />
    <glyph glyph-name="speed-indicator-air" unicode="&#xf135;" 
d="M312 89l-9 -5l-71 108l14 19h24zM256 406q88 0 150.5 -62.5t62.5 -150.5t-62.5 -150.5t-150.5 -62.5t-150.5 62.5t-62.5 150.5t62.5 150.5t150.5 62.5zM256.5 1q79.5 0 135.5 56t56 136q0 38 -14 73l-49 -23l-7 15l49 22q-8 16 -23.5 34.5t-29.5 29.5l-31 -44l-13 10
l31 43q-18 12 -46.5 21.5t-50.5 9.5v-53h-16v54q-21 -1 -48 -9.5t-44 -19.5l29 -44l-13 -9l-30 44q-9 -6 -19.5 -17t-20 -23t-14.5 -22l47 -24l-7 -14l-47 24q-17 -38 -17 -78q0 -80 56.5 -136t136 -56zM395 192h32q0 -71 -50 -121t-121 -50t-121 50t-50 121h32
q0 -57 41 -98t98 -41t98 41t41 98z" />
    <glyph glyph-name="speed-indicator-vertical" unicode="&#xf136;" 
d="M256 405q88 0 150.5 -62.5t62.5 -150.5t-62.5 -150.5t-150.5 -62.5q-50 0 -104 30t-79 73v1q-4 7 -7 13v0q-9 17 -15 36l-3 15q-4 18 -5 37v16q0 19 4 38l4 15q6 18 14 35l3 5l1 1l4 8q10 16 23 31l11 11q25 26 69 43.5t80 17.5zM325 13q22 8 47 27.5t38 37.5l-52 36
l8 13l53 -35q11 17 19.5 44t9.5 48h-64v16h64q-1 21 -9.5 48t-19.5 44l-52 -35l-9 13l52 36q-13 18 -38 37.5t-47 27.5l-20 -60l-16 5l21 60q-27 8 -54 8q-32 0 -71.5 -16t-62.5 -38l23 -22l-11 -12l-22 22q-11 -13 -20 -26l28 -15l-8 -15l-28 16q-7 -15 -12 -30l31 -8
l-4 -16l-31 8q-3 -16 -4 -32h32v-16h-32q1 -16 4 -32l31 8l4 -15l-31 -8q5 -16 12 -30l28 15l8 -14l-28 -16q8 -13 19 -26l23 22l11 -11l-23 -22q23 -23 62 -39t72 -16q27 0 54 8l-21 60l15 5zM139 187v10l127 16l11 -21l-10 -21zM348 246q15 -25 15 -54q0 -44 -31.5 -75.5
t-75.5 -31.5q-13 0 -26 4l5 20q10 -2 21 -2q35 0 60 25t25 60q0 27 -18.5 51.5t-45.5 31.5l6 20q17 -4 36.5 -18.5t28.5 -30.5z" />
    <glyph glyph-name="speed-indicator" unicode="&#xf137;" 
d="M264 223q10 -3 17 -12t7 -19q0 -13 -9.5 -22.5t-22.5 -9.5t-22.5 9.5t-9.5 22.5q0 7 3 13.5t9 11t12 6.5v86h16v-86zM256 176q7 0 11.5 4.5t4.5 11.5t-4.5 11.5t-11.5 4.5t-11.5 -4.5t-4.5 -11.5t4.5 -11.5t11.5 -4.5zM256 405q88 0 150.5 -62.5t62.5 -150.5
t-62.5 -150.5t-150.5 -62.5q-50 0 -104 30t-79 73v1q-4 7 -7 13v0q-9 17 -15 36l-3 15q-4 18 -5 37v16q0 19 4 38l4 15q6 18 14 35l3 5l1 1l4 8q10 16 23 31l11 11q25 26 69 43.5t80 17.5zM325 13q22 8 47 27.5t38 37.5l-52 36l8 13l53 -35q11 17 19.5 44t9.5 48h-64v16h64
q-1 21 -9.5 48t-19.5 44l-52 -35l-9 13l52 36q-13 18 -38 37.5t-47 27.5l-20 -60l-16 5l21 60q-27 8 -54 8q-32 0 -71.5 -16t-62.5 -38l23 -22l-11 -12l-22 22q-11 -13 -20 -26l28 -15l-8 -15l-28 16q-7 -15 -12 -30l31 -8l-4 -16l-31 8q-3 -16 -4 -32h32v-16h-32
q1 -16 4 -32l31 8l4 -15l-31 -8q5 -16 12 -30l28 15l8 -14l-28 -16q8 -13 19 -26l23 22l11 -11l-23 -22q23 -23 62 -39t72 -16q27 0 54 8l-21 60l15 5z" />
    <glyph glyph-name="track-up-centered" unicode="&#xf138;" 
d="M469 341h-426v-277h426v277zM491 363v-320h-470v320h470zM256 308q7 0 12 -5t5 -12v-2v-43l79 -48v-34l-79 29v-58l19 -14v-24l-36 10l-36 -10v24l19 14v58l-79 -29v34l79 48v43v2q0 7 5 12t12 5z" />
    <glyph glyph-name="track-up" unicode="&#xf139;" 
d="M256 235q7 0 12 -5.5t5 -12.5v-2v-43l79 -48v-33l-79 28v-57l19 -14v-24l-36 9l-36 -10v24l19 15v57l-79 -28v33l79 48v43v2q0 7 5 12.5t12 5.5zM491 43h-150v21h128v277h-426v-277h128v-21h-150v320h470v-320z" />
    <glyph glyph-name="trip-kit-add" unicode="&#xf13a;" 
d="M219 210l10 -20l23 -3l-17 -16l4 -23l-20 10l-21 -10l4 23l-16 16l22 3zM333 199q0 -6 -6 -8h-53q2 -4 3 -8h33q6 -2 6 -8.5t-6 -8.5h-34q-1 -5 -3 -8h29q6 -2 6 -8.5t-6 -8.5h-34q-7 -11 -21.5 -19t-28 -8t-28 8t-21.5 19h-34q-6 2 -6 8.5t6 8.5h29q-3 3 -3 8h-34
q-6 2 -6 8.5t6 8.5h34q1 4 3 8h-54q-6 2 -6 8.5t6 8.5h59q7 11 21.5 19t28 8t28 -8t21.5 -19h59q6 -2 6 -9zM219 128q12 0 22.5 6t17 16.5t6.5 23.5q-1 19 -14 32.5t-32 13.5t-32.5 -13.5t-13.5 -32.5t13.5 -32.5t32.5 -13.5zM395 43v128h21v-150h-395v267h118v43h160v-43
h10v-21h-226v-224h272v128h16v-128h24zM160 309v-21h117v21h-117zM43 267v-224h24v224h-24zM409 352q22 0 41 -11t30 -30t11 -41q0 -34 -24 -58t-58 -24q-22 0 -41 11t-30 30t-11 41t11 41t30 30t41 11zM417 262h51v16h-51v46h-16v-46h-51v-16h51v-45h16v45z" />
    <glyph glyph-name="trip-kit-refresh" unicode="&#xf13b;" 
d="M219 210l10 -20l23 -3l-17 -16l4 -23l-20 10l-21 -10l4 23l-16 16l22 3zM333 199q0 -6 -6 -8h-53q2 -4 3 -8h33q6 -2 6 -8.5t-6 -8.5h-34q-1 -5 -3 -8h29q6 -2 6 -8.5t-6 -8.5h-34q-7 -11 -21.5 -19t-28 -8t-28 8t-21.5 19h-34q-6 2 -6 8.5t6 8.5h29q-3 3 -3 8h-34
q-6 2 -6 8.5t6 8.5h34q1 4 3 8h-54q-6 2 -6 8.5t6 8.5h59q7 11 21.5 19t28 8t28 -8t21.5 -19h59q6 -2 6 -9zM219 128q12 0 22.5 6t17 16.5t6.5 23.5q-1 19 -14 32.5t-32 13.5t-32.5 -13.5t-13.5 -32.5t13.5 -32.5t32.5 -13.5zM395 43v128h21v-150h-395v267h118v43h160v-43
h10v-21h-226v-224h272v128h16v-128h24zM160 309v-21h117v21h-117zM43 267v-224h24v224h-24zM409 352q22 0 41 -11t30 -30t11 -41q0 -34 -24 -58t-58 -24q-22 0 -41 11t-30 30t-11 41t11 41t30 30t41 11zM409 220q12 1 23 7t18 16.5t8 23.5h-16q-1 -13 -11 -21.5t-22 -8.5
q-14 0 -24 9.5t-10 23.5t10 24t24 10q12 0 21 -8h-25v-16h51v51h-16v-22q-13 11 -31 11q-21 0 -35.5 -14.5t-14.5 -35t14.5 -35.5t35.5 -15z" />
    <glyph glyph-name="trip-kit" unicode="&#xf13c;" 
d="M232 145l4 22l-16 16l22 4l11 20l10 -20l23 -4l-16 -16l3 -22l-20 10zM114 192q-8 2 -8 10.5t8 10.5h76q9 15 27 25t35 10t35.5 -10t27.5 -25h76q8 -2 8 -10.5t-8 -10.5h-68q1 0 2.5 -5.5l1.5 -5.5h43q8 -2 8 -10.5t-8 -10.5h-43l-1.5 -5.5t-2.5 -5.5h36q8 -2 8 -10.5
t-8 -10.5h-44q-9 -14 -27.5 -24.5t-35.5 -10.5t-35 10.5t-28 24.5h-43q-8 2 -8 10.5t8 10.5h36q-1 0 -2.5 5.5l-1.5 5.5h-43q-8 2 -8 10.5t8 10.5h43l1.5 5.5t2.5 5.5h-68zM252 229q-15 0 -28.5 -7.5t-21.5 -21t-8 -29.5q0 -25 17 -42t41.5 -17t41.5 17t17 41.5t-17 41.5
t-42 17zM352 341h139v-341h-470v341h139v43h192v-43zM181 363v-22h150v22h-150zM75 21v299h-32v-299h32zM416 21v299h-320v-299h320zM469 21v299h-32v-299h32z" />
    <glyph glyph-name="uav" unicode="&#xf13d;" 
d="M364 168q35 0 59 -25t24 -59q0 -35 -24.5 -59.5t-59 -24.5t-59.5 24.5t-25 59.5q0 29 19 52q-19 14 -42.5 14t-42.5 -14q18 -23 18 -52q0 -35 -24.5 -59.5t-59 -24.5t-59.5 24.5t-25 59.5t25 59.5t59 24.5q30 0 53 -18q13 19 13 42t-13 42q-23 -18 -53 -18
q-22 0 -41.5 11.5t-31 30.5t-11.5 42q0 35 25 59.5t59.5 24.5t59 -24.5t24.5 -59.5q0 -29 -18 -52q16 -12 36 -13h7h7q10 1 18 4q9 4 17 9q-18 23 -18 52q0 23 11.5 42.5t30.5 30.5t42 11q35 0 59.5 -24.5t24.5 -59.5t-24.5 -59.5t-59.5 -24.5q-29 0 -52 18q-14 -19 -14 -42
t14 -42q23 18 52 18zM80 300q0 -28 20 -48t48 -20q23 0 41 14l-34 34h-4q-4 0 -8 1l-20 -20l-11 11l20 21q-1 3 -1 7q0 8 5.5 14t14.5 6q3 0 7 -1l18 17l11 -11l-18 -18q2 -3 2 -7t-2 -8l33 -33q14 18 14 41q0 28 -20 48t-48 20t-48 -20t-20 -48zM148 16q28 0 48 20t20 48
q0 23 -14 41l-35 -35q1 -3 1 -6t-1 -5l20 -20l-11 -11l-19 18q-4 -2 -9 -2q-8 0 -14 6t-6 14q0 5 2 9l-18 19l11 11l20 -20q2 1 5 1t6 -1l35 35q-18 14 -41 14q-28 0 -48 -20t-20 -48t20 -48t48 -20zM364 368q-28 0 -48 -20t-20 -48q0 -23 14 -41l35 35q-1 3 -1 6t1 5
l-20 20l11 11l19 -18q4 2 9 2q8 0 14 -6t6 -14q0 -5 -2 -9l18 -19l-11 -11l-20 20q-2 -1 -5 -1t-6 1l-35 -35q18 -14 41 -14q28 0 48 20t20 48t-20 48t-48 20zM364 16q28 0 48 20t20 48t-20 48t-48 20q-23 0 -41 -14l35 -35q3 1 6 1t5 -1l20 20l11 -11l-18 -19q2 -4 2 -9
q0 -8 -6 -14t-14 -6q-5 0 -9 2l-19 -18l-11 11l20 20q-1 2 -1 5t1 6l-35 35q-14 -18 -14 -41q0 -28 20 -48t48 -20z" />
    <glyph glyph-name="valance" unicode="&#xf13e;" 
d="M469 288h22v-117h-470v117h22v-96h426v96zM99 96v32h16v-32h-16zM70 112l-12 11l22 21l11 -11zM144 112l-22 21l12 11l21 -21zM397 96v32h16v-32h-16zM368 112l-11 11l21 21l12 -11zM442 112l-21 21l11 11l22 -21zM248 96v32h16v-32h-16zM219 112l-11 11l21 21l11 -11z
M293 112l-21 21l11 11l21 -21z" />
    <glyph glyph-name="weather-chart" unicode="&#xf13f;" 
d="M87 427h196l145 -145v-325h-341v470zM392 288l-103 102v-102h103zM108 405v-426h299v288h-139v138h-160zM271 216v19h14v-19h-14zM343 186l-10 10l13 13l10 -10zM363 124v14h19v-14h-19zM346 52l-13 14l10 10l13 -14zM213 186l-14 13l10 10l14 -13zM344 131v-1
q0 -15 -9.5 -31.5t-22.5 -24.5q-2 -9 -10 -15.5t-18 -6.5h-113q-16 2 -27 14.5t-11 27.5v1q0 18 13 30t34 12q6 10 18 18.5t23 9.5q8 13 24.5 22.5t32.5 9.5q27 0 46.5 -19.5t19.5 -46.5zM284 67v-1q6 0 10.5 4.5t4.5 10.5t-4.5 10t-10.5 4h-14v14q0 18 -12.5 30.5
t-30.5 12.5q-10 0 -20 -6t-15 -15l-4 -7h-8q-14 0 -23.5 -8t-9.5 -21q0 -10 7.5 -18.5t17.5 -9.5h112zM308 95q16 14 16 35q0 19 -14 33t-34 14q-18 0 -32 -13q1 0 1 -1q11 -3 20 -11.5t14 -20t5 -22.5q16 0 24 -14z" />
    <glyph glyph-name="wheel-chocks" unicode="&#xf140;" 
d="M230 318q34 0 57 -36t23 -87.5t-23 -87t-57 -35.5t-57.5 35.5t-23.5 87t23.5 87.5t57.5 36zM230 93q24 0 41.5 30t17.5 71.5t-17.5 71.5t-41.5 30t-41.5 -30t-17.5 -71.5t17.5 -71.5t41.5 -30zM428 44l54 -51l-161 -21l-31 2l-32 2l17 26l18 27zM268 11l-12 -18h-23
q-62 0 -105.5 61.5t-43.5 149t43 148t106 60.5h39q73 0 121 -59.5t48 -148.5q0 -94 -40 -152l-30 -3q49 53 49 155q0 68 -31.5 117.5t-81.5 63.5q35 -26 55.5 -74.5t20.5 -106.5q0 -96 -51 -159l-33 -4q29 25 46 68.5t17 94.5q0 77 -37.5 132t-91.5 55t-91 -54.5t-37 -132.5
t37.5 -134t90.5 -56q24 0 45 12zM107 66q18 -30 44 -53l-58 -9l-32 2l-31 2l17 26l17 27z" />
    <glyph glyph-name="window-down" unicode="&#xf141;" 
d="M256 405q-27 0 -47.5 -3t-34 -7.5t-22.5 -15t-14 -18t-7 -24.5t-2.5 -27.5t-0.5 -32.5v-170v-26.5t1 -23t3.5 -21t6.5 -17t10.5 -15t16 -10.5t22.5 -8.5t30 -4.5t38 -2t38 2t30 4.5t22.5 8.5t16 10.5t10.5 15t6.5 17t3.5 21t1 23v26.5v170q0 22 -0.5 32.5t-2.5 27.5
t-7 24.5t-14 18t-22.5 15t-34 7.5t-47.5 3zM256 427q31 0 55 -4.5t39.5 -10.5t26.5 -18.5t16.5 -22.5t8 -28.5t3 -30.5t0.5 -35v-170q0 -23 -0.5 -35t-3 -30.5t-8 -28.5t-16.5 -22.5t-26.5 -18.5t-39.5 -10.5t-55 -4.5t-55 4.5t-39.5 10.5t-26.5 18.5t-16.5 22.5t-8 28.5
t-3 30.5t-0.5 35v170q0 23 0.5 35t3 30.5t8 28.5t16.5 22.5t26.5 18.5t39.5 10.5t55 4.5zM224 13v16h64v-16h-64z" />
    <glyph glyph-name="window-mid" unicode="&#xf142;" 
d="M256 427q31 0 55 -4.5t39.5 -10.5t26.5 -18.5t16.5 -22.5t8 -28.5t3 -30.5t0.5 -35v-170q0 -23 -0.5 -35t-3 -30.5t-8 -28.5t-16.5 -22.5t-26.5 -18.5t-39.5 -10.5t-55 -4.5t-55 4.5t-39.5 10.5t-26.5 18.5t-16.5 22.5t-8 28.5t-3 30.5t-0.5 35v170q0 23 0.5 35t3 30.5
t8 28.5t16.5 22.5t26.5 18.5t39.5 10.5t55 4.5zM128 277v-85h256v85q0 22 -0.5 32.5t-2.5 27.5t-7 24.5t-14 18t-22.5 15t-34 7.5t-47.5 3t-47.5 -3t-34 -7.5t-22.5 -15t-14 -18t-7 -24.5t-2.5 -27.5t-0.5 -32.5zM165 176v-54q0 -19 0.5 -27.5t2 -22.5t5 -20.5t10 -15
t16 -12t24 -6t33.5 -2.5t33.5 2.5t24 6t16 12t10 15t5 20.5t2 22.5t0.5 27.5v54h-182zM256 -21q21 0 38 2t30 4.5t22.5 8.5t16 10.5t10.5 15t6.5 17t3.5 21t1 23v26.5v69h-21v-54q0 -19 -0.5 -28.5t-2.5 -25t-6 -23.5t-11.5 -18t-19 -15t-28.5 -8.5t-39 -3.5t-39 3.5
t-28.5 8.5t-19 15t-11.5 18t-6 23.5t-2.5 25t-0.5 28.5v54h-21v-69v-26.5t1 -23t3.5 -21t6.5 -17t10.5 -15t16 -10.5t22.5 -8.5t30 -4.5t38 -2zM224 205v16h64v-16h-64z" />
    <glyph glyph-name="window-up" unicode="&#xf143;" 
d="M256 427q31 0 55 -4.5t39.5 -10.5t26.5 -18.5t16.5 -22.5t8 -28.5t3 -30.5t0.5 -35v-170q0 -23 -0.5 -35t-3 -30.5t-8 -28.5t-16.5 -22.5t-26.5 -18.5t-39.5 -10.5t-55 -4.5t-55 4.5t-39.5 10.5t-26.5 18.5t-16.5 22.5t-8 28.5t-3 30.5t-0.5 35v170q0 23 0.5 35t3 30.5
t8 28.5t16.5 22.5t26.5 18.5t39.5 10.5t55 4.5zM256 405q-50 0 -78 -10.5t-37.5 -27.5t-11.5 -47h254q-3 45 -28.5 65t-98.5 20zM165 194v-72q0 -19 0.5 -27.5t2 -22.5t5 -20.5t10 -15t16 -12t24 -6t33.5 -2.5t33.5 2.5t24 6t16 12t10 15t5 20.5t2 22.5t0.5 27.5v182h-182
v-110zM384 107v170v27h-21v-182q0 -19 -0.5 -28.5t-2.5 -25t-6 -23.5t-11.5 -18t-19 -15t-28.5 -8.5t-39 -3.5t-39 3.5t-28.5 8.5t-19 15t-11.5 18t-6 23.5t-2.5 25t-0.5 28.5v182h-21v-27v-170v-26.5t1 -23t3.5 -21t6.5 -17t10.5 -15t16 -10.5t22.5 -8.5t30 -4.5t38 -2
t38 2t30 4.5t22.5 8.5t16 10.5t10.5 15t6.5 17t3.5 21t1 23v26.5z" />
  </font>
</defs>
</svg>
