<?xml version="1.0" standalone="no"?>
<!DOCTYPE svg PUBLIC "-//W3C//DTD SVG 1.1//EN" "http://www.w3.org/Graphics/SVG/1.1/DTD/svg11.dtd" >
<svg xmlns="http://www.w3.org/2000/svg" xmlns:xlink="http://www.w3.org/1999/xlink" version="1.1">
<metadata></metadata>
<defs>
<font id="honeywell_sans_webextrabold" horiz-adv-x="625" >
<font-face units-per-em="1000" ascent="774" descent="-226" />
<missing-glyph horiz-adv-x="235" />
<glyph unicode="fi" horiz-adv-x="691" d="M451 643q0 43 23.5 62.5t67.5 19.5q43 0 67 -19.5t24 -62.5q0 -42 -24 -61.5t-67 -19.5q-44 0 -67.5 19.5t-23.5 61.5zM97 0v382h-81v115h81v38q0 51 13.5 88t38 60.5t58.5 35t76 11.5q29 0 62.5 -6.5t54.5 -20.5l-27 -103q-24 14 -57 14q-32 0 -48.5 -18.5t-16.5 -63.5 v-35h130v-115h-130v-382h-154zM462 497h158v-497h-158v497z" />
<glyph unicode="fl" horiz-adv-x="708" d="M97 0v382h-81v115h81v38q0 102 52 148.5t137 46.5q35 0 64 -8.5t47 -20.5l-27 -103q-12 6 -25.5 10t-28.5 4q-32 0 -48.5 -17.5t-16.5 -62.5v-35h130v-115h-130v-382h-154zM606 0q-69 0 -106.5 32t-37.5 109v559h158v-538q0 -24 8.5 -34.5t34.5 -10.5h32v-117h-89z" />
<glyph horiz-adv-x="176" />
<glyph horiz-adv-x="176" />
<glyph unicode="&#xd;" horiz-adv-x="176" />
<glyph unicode=" "  horiz-adv-x="235" />
<glyph unicode="&#x09;" horiz-adv-x="235" />
<glyph unicode="&#xa0;" horiz-adv-x="235" />
<glyph unicode="!" horiz-adv-x="256" d="M208 701l-23 -484h-114l-24 484h161zM41 74q0 42 22.5 62.5t64.5 20.5t65 -20.5t23 -62.5q0 -39 -23 -60t-65 -21t-64.5 20.5t-22.5 60.5z" />
<glyph unicode="&#x22;" horiz-adv-x="394" d="M227 442l-11 272h133l-20 -272h-102zM170 442h-103l-19 272h131z" />
<glyph unicode="#" horiz-adv-x="769" d="M342 415l-37 -119h130l36 119h-129zM80 415l30 107h109l52 178h153l-53 -178h131l52 178h153l-52 -178h108l-30 -107h-109l-36 -119h114l-31 -107h-113l-55 -189h-154l55 189h-128l-55 -189h-154l56 189h-105l31 107h104l35 119h-108z" />
<glyph unicode="$" horiz-adv-x="602" d="M266 428v146q-40 -5 -57 -22t-17 -45q0 -29 18 -47.5t56 -31.5zM345 124q77 12 77 73q0 26 -17 42.5t-60 30.5v-146zM345 -62h-79v68q-73 5 -133 34.5t-99 94.5l101 77q26 -39 57 -60.5t74 -27.5v165l-9 2q-101 23 -153 75.5t-52 134.5q0 81 53 132.5t161 59.5v73h79v-73 q69 -7 120 -35.5t83 -84.5l-105 -72q-20 29 -42.5 46.5t-55.5 24.5v-164l12 -3q60 -14 100.5 -33t65 -43t35 -54t10.5 -66q0 -92 -56.5 -143.5t-166.5 -59.5v-68z" />
<glyph unicode="%" horiz-adv-x="1073" d="M32 0zM660 203q0 110 45 164t144 54q100 0 145 -54t45 -164q0 -109 -45 -162.5t-145 -53.5q-99 0 -144 53.5t-45 162.5zM924 203q0 73 -19.5 100.5t-55.5 27.5t-55.5 -27.5t-19.5 -99.5q0 -73 19.5 -100.5t55.5 -27.5t55.5 27.5t19.5 99.5zM32 496q0 110 45 164t144 54 q100 0 145 -54t45 -164q0 -109 -45 -162.5t-145 -53.5q-99 0 -144 53.5t-45 162.5zM296 496q0 73 -19.5 100.5t-55.5 27.5t-55.5 -27.5t-19.5 -99.5q0 -73 19.5 -100.5t55.5 -27.5t55.5 27.5t19.5 99.5zM775 700l-346 -700h-137l348 700h135z" />
<glyph unicode="&#x26;" horiz-adv-x="729" d="M563 483h130q0 -101 -20 -184.5t-59 -146.5q24 -16 49.5 -32.5t54.5 -33.5l-70 -105q-11 7 -28 17.5t-35.5 22t-35 22t-25.5 16.5q-94 -73 -238 -73q-56 0 -103 11.5t-80.5 34.5t-52.5 59t-19 85q0 37 10 66t27.5 52.5t41 42.5t49.5 36q-38 53 -52.5 94t-14.5 73 q0 84 53 129t156 45q97 0 142.5 -38t45.5 -109q0 -68 -37.5 -117t-107.5 -96q29 -29 69 -62t94 -71q29 49 43.5 114.5t12.5 147.5zM220 539q0 -19 9 -44.5t36 -60.5q52 33 75.5 58t23.5 57q0 59 -69 59q-38 0 -56.5 -18t-18.5 -51zM295 95q70 0 120 40q-59 44 -104 81.5 t-78 71.5q-29 -20 -47.5 -42t-18.5 -57q0 -42 32 -68t96 -26z" />
<glyph unicode="'" horiz-adv-x="225" d="M62 442l-14 272h131l-14 -272h-103z" />
<glyph unicode="(" horiz-adv-x="365" d="M338 -12l-12 -126q-150 11 -221 119.5t-71 312.5t70.5 312t217.5 120l16 -126q-42 -5 -74 -23t-53.5 -54t-32.5 -92t-11 -137t11 -137t32.5 -92t53.5 -54t74 -23z" />
<glyph unicode=")" horiz-adv-x="365" d="M27 -12q42 5 74 23t53.5 54t32.5 92t11 137t-11 137t-32.5 92t-53.5 54t-74 23l16 126q147 -12 217.5 -120t70.5 -312t-71 -312.5t-221 -119.5z" />
<glyph unicode="*" horiz-adv-x="439" d="M147 325l-93 74l73 88l-103 28l30 110l106 -35l-7 124h128l-7 -124l107 35l30 -111l-103 -27l73 -88l-94 -74l-70 98z" />
<glyph unicode="+" horiz-adv-x="510" d="M308 110h-106v154h-152v93h152v156h106v-156h152v-93h-152v-154z" />
<glyph unicode="," horiz-adv-x="257" d="M73 -150l-32 65q30 9 51 29t29 50q-40 2 -60.5 23t-20.5 58q0 41 23 61.5t64 20.5q43 0 67 -25t24 -79q0 -79 -37 -132t-108 -71z" />
<glyph unicode="-" horiz-adv-x="477" d="M429 328v-123h-378v123h378z" />
<glyph unicode="." horiz-adv-x="257" d="M41 74q0 42 23 62.5t65 20.5t64.5 -20.5t22.5 -62.5q0 -39 -22.5 -60t-64.5 -21t-65 20.5t-23 60.5z" />
<glyph unicode="/" horiz-adv-x="558" d="M555 700l-380 -700h-172l379 700h173z" />
<glyph unicode="0" d="M25 350q0 189 72 276.5t215 87.5t215 -87.5t72 -276.5q0 -187 -74 -275.5t-213 -88.5q-143 0 -215 88t-72 276zM449 350q0 67 -9 113t-26.5 73.5t-43 39.5t-58.5 12t-58.5 -12t-43 -40t-26.5 -73.5t-9 -112.5q0 -68 9 -113.5t26.5 -73.5t42.5 -40t58 -12t59 12t43.5 40 t26.5 73.5t9 113.5z" />
<glyph unicode="1" d="M75 0v134h160v383l-80 -53l-60 126l194 116h101v-572h162v-134h-477z" />
<glyph unicode="2" d="M51 0v119l228 207q54 49 84.5 87t30.5 83q0 47 -28 67t-76 20q-58 0 -91.5 -24.5t-59.5 -75.5l-106 77q44 84 111.5 119t162.5 35q53 0 98 -11t77.5 -35t51 -61.5t18.5 -90.5q0 -36 -9.5 -69t-28.5 -65t-48.5 -65.5t-69.5 -70.5l-126 -117l310 4v-133h-529z" />
<glyph unicode="3" d="M312 -14q-93 0 -159 31.5t-108 104.5l109 75q27 -48 62 -68t86 -20q58 0 91.5 24t33.5 75q0 43 -27.5 65.5t-87.5 22.5h-80v118h80q47 0 73 22t26 63q0 46 -29 67.5t-83 21.5q-49 0 -78 -20t-54 -64l-108 65q40 78 102.5 111.5t155.5 33.5q120 0 184 -51t64 -145 q0 -54 -24 -92.5t-67 -63.5q50 -21 78 -59t28 -100q0 -48 -17.5 -88t-51 -68.5t-83.5 -44.5t-116 -16z" />
<glyph unicode="4" d="M20 152v114l229 434h152l-217 -415h189v193h150v-193h80v-133h-80v-152h-150v152h-353z" />
<glyph unicode="5" d="M228 573l-14 -147q27 14 61 20.5t70 6.5q54 0 98.5 -13.5t76 -41.5t48.5 -69.5t17 -97.5q0 -115 -71 -180t-209 -65q-86 0 -154.5 29t-110.5 95l108 81q26 -43 62 -64t87 -21q65 0 99 32.5t34 89.5q0 59 -34.5 85t-90.5 26q-44 0 -76 -12.5t-57 -35.5l-99 48l32 361h450 v-127h-327z" />
<glyph unicode="6" d="M336 -14q-71 0 -127 21.5t-95 65.5t-59.5 112.5t-20.5 161.5q0 183 76 275t228 92q87 0 151 -28.5t94 -88.5l-98 -83q-18 34 -50 56t-88 22q-39 0 -69 -13t-50.5 -41.5t-31 -74.5t-10.5 -112v-22q20 51 68 81t114 30q51 0 92 -14t70 -41.5t45 -68t16 -94.5q0 -52 -16 -95 t-47.5 -74.5t-79.5 -49t-112 -17.5zM208 215q0 -48 31 -78.5t85 -30.5q53 0 84.5 28t31.5 83q0 51 -27.5 81t-86.5 30q-51 0 -84.5 -29.5t-33.5 -83.5z" />
<glyph unicode="7" d="M176 0q0 85 16 165.5t45 153t70.5 135t91.5 111.5l-343 -4v139h513v-112q-104 -104 -162 -247t-58 -341h-173z" />
<glyph unicode="8" d="M311 -14q-133 0 -203 53.5t-70 155.5q0 68 32.5 110t88.5 60q-45 20 -70 58.5t-25 94.5q0 101 63 148.5t185 47.5q123 0 186 -47.5t63 -147.5q0 -57 -25.5 -95.5t-70.5 -58.5q55 -18 88 -59.5t33 -110.5q0 -102 -69.5 -155.5t-205.5 -53.5zM420 511q0 43 -28 66t-79 23 q-52 0 -80.5 -23t-28.5 -66q0 -42 28.5 -66t80.5 -24q51 0 79 24t28 66zM433 198q0 48 -32.5 73.5t-86.5 25.5q-57 0 -90 -25.5t-33 -73.5q0 -50 32.5 -75t89.5 -25q55 0 87.5 25t32.5 75z" />
<glyph unicode="9" d="M417 482q0 49 -30.5 79.5t-84.5 30.5q-53 0 -84.5 -28.5t-31.5 -85.5q0 -51 27 -81t87 -30q51 0 84 30.5t33 84.5zM289 -14q-88 0 -153 26.5t-97 83.5l96 84q43 -72 146 -72q38 0 68 12.5t50.5 41t31 74t10.5 111.5v21q-20 -51 -67 -82t-113 -31q-102 0 -163 57t-61 166 q0 52 15.5 95.5t47 74.5t79.5 48.5t112 17.5q71 0 127 -21.5t95 -65.5t59.5 -112.5t20.5 -161.5q0 -182 -76 -274.5t-228 -92.5z" />
<glyph unicode=":" horiz-adv-x="257" d="M41 0zM41 74q0 42 23 62.5t65 20.5t64.5 -20.5t22.5 -62.5q0 -39 -22.5 -60t-64.5 -21t-65 20.5t-23 60.5zM41 414q0 42 23 62.5t65 20.5t64.5 -20.5t22.5 -62.5q0 -39 -22.5 -60t-64.5 -21t-65 20.5t-23 60.5z" />
<glyph unicode=";" horiz-adv-x="257" d="M40 0zM73 -150l-32 65q30 9 51 29t29 50q-40 2 -60.5 23t-20.5 58q0 41 23 61.5t64 20.5q43 0 67 -25t24 -79q0 -79 -37 -132t-108 -71zM41 414q0 42 23 62.5t65 20.5t64.5 -20.5t22.5 -62.5q0 -39 -22.5 -60t-64.5 -21t-65 20.5t-23 60.5z" />
<glyph unicode="&#x3c;" horiz-adv-x="501" d="M363 541l59 -78l-213 -152l216 -153l-62 -82l-286 203v59z" />
<glyph unicode="=" horiz-adv-x="510" d="M460 430v-93h-410v93h410zM460 281v-93h-410v93h410z" />
<glyph unicode="&#x3e;" horiz-adv-x="501" d="M140 76l-59 78l214 152l-217 154l62 81l286 -203v-58z" />
<glyph unicode="?" horiz-adv-x="518" d="M183 217l-6 175h58q122 0 122 109q0 46 -30 72.5t-92 26.5q-47 0 -80 -20.5t-59 -74.5l-97 65q73 150 256 150q118 0 182 -53.5t64 -156.5q0 -97 -51.5 -148.5t-138.5 -60.5l-4 -84h-124zM154 74q0 42 23 62.5t65 20.5t64.5 -20.5t22.5 -62.5q0 -39 -22.5 -60t-64.5 -21 t-65 20.5t-23 60.5z" />
<glyph unicode="@" horiz-adv-x="815" d="M684 -5q-45 -48 -112.5 -74.5t-155.5 -26.5q-83 0 -148.5 25t-110.5 70.5t-69 110t-24 142.5t24 142t69 109.5t110.5 70t148.5 24.5q81 0 143.5 -23t104.5 -66t64 -103t22 -133q0 -89 -44 -138t-124 -49q-39 0 -65.5 13.5t-37.5 42.5q-17 -29 -47 -46t-72 -17 q-52 0 -84.5 26t-32.5 75q0 56 40.5 84.5t112.5 28.5h66q-2 37 -22 49t-53 12q-65 0 -95 -38l-40 60q49 60 151 60q35 0 64.5 -7.5t51.5 -25t34 -45.5t12 -69v-90q0 -28 10.5 -42t36.5 -14q37 0 60.5 32t23.5 98q0 70 -20.5 121.5t-57.5 86t-88.5 51.5t-113.5 17 q-65 0 -119.5 -18.5t-94 -55.5t-61.5 -93t-22 -130q0 -75 22 -131t61.5 -92.5t94 -55t120.5 -18.5q72 0 131 21.5t100 65.5zM387 137q34 0 54 21t21 59v6h-60q-33 0 -49 -10.5t-16 -34.5q0 -41 50 -41z" />
<glyph unicode="A" horiz-adv-x="688" d="M341 541l-97 -306h194zM512 0l-36 110h-270l-35 -110h-163l237 700h198l237 -700h-168z" />
<glyph unicode="B" horiz-adv-x="711" d="M93 0v700h348q55 0 94 -13.5t64.5 -38t37.5 -59t12 -75.5q0 -52 -24.5 -90.5t-68.5 -57.5q29 -8 50 -24.5t34.5 -38.5t19.5 -48.5t6 -53.5q0 -201 -235 -201h-338zM408 578h-157v-166h154q45 0 65.5 24t20.5 59q0 41 -22.5 62t-60.5 21zM415 292h-164v-172h159 q49 0 72.5 23t23.5 66q0 38 -21.5 60.5t-69.5 22.5z" />
<glyph unicode="C" horiz-adv-x="709" d="M393 -14q-171 0 -253.5 88.5t-82.5 276.5q0 191 85.5 277t255.5 86q106 0 174.5 -36.5t103.5 -121.5l-131 -68q-24 52 -58 71.5t-90 19.5q-42 0 -74.5 -10.5t-55 -37t-34 -71t-11.5 -111.5t11.5 -111.5t34 -71.5t55.5 -38t75 -11q54 0 93 22.5t63 76.5l131 -65 q-38 -82 -109 -123.5t-183 -41.5z" />
<glyph unicode="D" horiz-adv-x="767" d="M383 0h-290v700h301q163 0 240.5 -83.5t77.5 -261.5q0 -177 -80.5 -266t-248.5 -89zM257 132h114q40 0 73 11t55.5 37t35 68t12.5 104q0 115 -41.5 165.5t-120.5 50.5h-128v-436z" />
<glyph unicode="E" horiz-adv-x="684" d="M93 0v700h537v-129h-377v-153h326v-130h-326v-159h387v-129h-547z" />
<glyph unicode="F" horiz-adv-x="628" d="M93 0v700h524v-132h-360v-162h314v-136h-314v-270h-164z" />
<glyph unicode="G" horiz-adv-x="750" d="M369 -14q-73 0 -131 22t-98 67.5t-61.5 114t-21.5 161.5q0 190 85.5 276.5t255.5 86.5q104 0 171 -35t102 -114l-131 -70q-24 47 -56.5 65.5t-86.5 18.5q-42 0 -75 -11t-55 -37t-33.5 -70t-11.5 -111t11.5 -112t34 -72t55.5 -38.5t76 -11.5q26 0 51 7t45.5 22.5t34 40.5 t16.5 62v8h-146v122h294v-378h-116l-10 86q-28 -47 -79 -73.5t-120 -26.5z" />
<glyph unicode="H" horiz-adv-x="815" d="M558 0v280h-301v-280h-164v700h164v-280h301v280h164v-700h-164z" />
<glyph unicode="I" horiz-adv-x="350" d="M93 0v700h164v-700h-164z" />
<glyph unicode="J" horiz-adv-x="544" d="M188 -14q-47 0 -96.5 14t-91.5 48l66 114q26 -22 57.5 -33t62.5 -11q54 0 85.5 32.5t31.5 110.5v439h165v-438q0 -77 -21 -129.5t-58 -85t-88.5 -47t-112.5 -14.5z" />
<glyph unicode="K" horiz-adv-x="719" d="M93 0v700h164l-1 -328l261 328h193l-259 -311l260 -389h-197l-175 270l-82 -94v-176h-164z" />
<glyph unicode="L" horiz-adv-x="646" d="M258 136h362v-136h-527v700h165v-564z" />
<glyph unicode="M" horiz-adv-x="985" d="M430 0l-194 440l6 -440h-149v700h175l223 -513l221 513h180v-700h-155l7 451l-197 -451h-117z" />
<glyph unicode="N" horiz-adv-x="808" d="M572 0l-328 444l4 -444h-155v700h129l342 -467l-4 467h156v-700h-144z" />
<glyph unicode="O" horiz-adv-x="793" d="M396 -14q-177 0 -258 90t-81 275t83.5 274t256.5 89q179 0 259 -89.5t80 -274.5t-84 -274.5t-256 -89.5zM396 580q-43 0 -75.5 -11.5t-54.5 -38.5t-33 -71t-11 -110q0 -64 11 -108t33 -71t54.5 -39t75.5 -12t75.5 12t54.5 39t33 71.5t11 109.5q0 64 -11 108t-33 71 t-54.5 38.5t-75.5 11.5z" />
<glyph unicode="P" horiz-adv-x="701" d="M93 0v700h329q61 0 107.5 -17.5t77 -50t46 -78t15.5 -101.5q0 -120 -70.5 -183.5t-194.5 -63.5h-146v-206h-164zM396 562h-139v-223h140q51 0 80 29.5t29 86.5q0 45 -26 76t-84 31z" />
<glyph unicode="Q" horiz-adv-x="791" d="M607 37l79 -125h-146l-52 82q-21 -4 -44 -6t-48 -2q-177 0 -258 90t-81 275t83.5 274t256.5 89q179 0 259 -89.5t80 -274.5q0 -228 -129 -313zM396 584q-43 0 -75.5 -12t-54.5 -39.5t-33 -72.5t-11 -112q0 -65 11 -109.5t33 -71.5t54.5 -39t75.5 -12h14l-72 113h148 l40 -63q22 27 33.5 72t11.5 112q0 65 -11 110t-33 72.5t-55 39.5t-76 12z" />
<glyph unicode="R" horiz-adv-x="714" d="M407 565h-153v-204h150q49 0 76.5 26.5t27.5 78.5q0 44 -23.5 71.5t-77.5 27.5zM254 230v-230h-161v700h341q118 0 177.5 -62.5t59.5 -167.5q0 -78 -30.5 -130.5t-87.5 -78.5l126 -261h-180l-106 230h-139z" />
<glyph unicode="S" horiz-adv-x="637" d="M577 583l-112 -74q-25 38 -60 60t-91 22q-62 0 -88.5 -21.5t-26.5 -55.5q0 -15 4 -28t15.5 -24t31 -20.5t49.5 -16.5l70 -16q119 -27 171 -78t52 -130q0 -102 -73.5 -158.5t-210.5 -56.5q-44 0 -85.5 6.5t-78 22t-67 41.5t-53.5 65l107 79q30 -49 73.5 -74t103.5 -25 q130 0 130 83q0 31 -21.5 51.5t-82.5 34.5l-69 16q-117 27 -166 83.5t-49 133.5q0 45 17.5 83.5t51.5 67t83 44.5t111 16q91 0 157.5 -29.5t106.5 -101.5z" />
<glyph unicode="T" horiz-adv-x="620" d="M14 700h592v-138h-214v-562h-164v562h-214v138z" />
<glyph unicode="U" horiz-adv-x="771" d="M532 276v424h163v-415q0 -79 -21 -135.5t-60.5 -93t-97 -53.5t-129.5 -17q-150 0 -230.5 72t-80.5 227v415h164v-424q0 -80 38.5 -117.5t107.5 -37.5t107.5 37.5t38.5 117.5z" />
<glyph unicode="V" horiz-adv-x="685" d="M6 700h172l166 -526l169 526h165l-239 -700h-193z" />
<glyph unicode="W" horiz-adv-x="968" d="M414 699h144l123 -475l121 476h161l-200 -700h-160l-120 470l-122 -470h-156l-199 700h167l117 -474z" />
<glyph unicode="X" horiz-adv-x="696" d="M494 0l-154 240l-153 -240h-178l240 354l-226 346h192l142 -237l140 237h177l-230 -342l243 -358h-193z" />
<glyph unicode="Y" horiz-adv-x="682" d="M259 261l-251 439h181l157 -299l156 299h172l-251 -443v-257h-164v261z" />
<glyph unicode="Z" horiz-adv-x="613" d="M21 0v102l362 469l-346 -3v132h546v-101l-362 -470l369 3v-132h-569z" />
<glyph unicode="[" horiz-adv-x="358" d="M64 -151v868h265v-114h-123v-640h125v-114h-267z" />
<glyph unicode="\" horiz-adv-x="561" d="M382 0l-379 700h171l379 -700h-171z" />
<glyph unicode="]" horiz-adv-x="358" d="M27 -151v114h125v640h-123v114h265v-868h-267z" />
<glyph unicode="^" horiz-adv-x="491" d="M173 700h146l147 -331v-3h-133l-90 218l-90 -218h-128v3z" />
<glyph unicode="_" horiz-adv-x="480" d="M485 0v-119h-490v119h490z" />
<glyph unicode="`" horiz-adv-x="600" d="M254 571l-129 127v6h174l79 -128v-5h-124z" />
<glyph unicode="a" horiz-adv-x="583" d="M258 86q49 0 77.5 30.5t28.5 87.5v9h-84q-50 0 -73 -16.5t-23 -51.5q0 -28 18 -43.5t56 -15.5zM375 74q-24 -41 -65 -64t-101 -23q-75 0 -121.5 37.5t-46.5 108.5q0 81 58.5 126t164.5 45h100q-3 53 -31 71t-75 18q-50 0 -84.5 -15t-58.5 -42l-60 88q72 86 227 86 q51 0 94.5 -10.5t75 -35.5t49.5 -66t18 -101v-297h-133z" />
<glyph unicode="b" horiz-adv-x="633" d="M227 700v-273q27 43 68.5 63t94.5 20q94 0 147.5 -63.5t53.5 -191.5q0 -125 -56.5 -197t-166.5 -72q-57 0 -99.5 21t-68.5 63l-9 -70h-122v700h158zM224 245q0 -75 30 -109t78 -34q107 0 107 144q0 78 -27.5 112t-77.5 34q-49 0 -79.5 -34.5t-30.5 -112.5z" />
<glyph unicode="c" horiz-adv-x="541" d="M294 -14q-58 0 -104.5 15t-79.5 46.5t-50.5 81.5t-17.5 119q0 136 68 199t191 63q78 0 130 -26.5t84 -83.5l-108 -77q-17 34 -42.5 48.5t-61.5 14.5q-54 0 -81.5 -29.5t-27.5 -109.5q0 -72 25 -107.5t83 -35.5q81 0 110 68l109 -62q-32 -62 -87 -93t-140 -31z" />
<glyph unicode="d" horiz-adv-x="632" d="M408 248q0 78 -31.5 111.5t-79.5 33.5q-51 0 -77 -34t-26 -112q0 -143 104 -143q48 0 79 34.5t31 109.5zM429 0l-8 77q-25 -45 -67.5 -68t-102.5 -23q-96 0 -153 65t-57 192q0 132 60 199.5t159 67.5q97 0 146 -68v258h158v-700h-135z" />
<glyph unicode="e" horiz-adv-x="572" d="M299 -14q-59 0 -107 15.5t-81.5 48t-51.5 81t-18 114.5q0 126 66 195.5t188 69.5q62 0 106.5 -19.5t73 -53t41.5 -79.5t13 -99q0 -13 -1 -26t-3 -28h-334q5 -60 35.5 -85.5t84.5 -25.5q41 0 68.5 14t46.5 49l95 -58q-31 -58 -87.5 -85.5t-134.5 -27.5zM292 400 q-44 0 -70 -25t-31 -79h193q-6 104 -92 104z" />
<glyph unicode="f" horiz-adv-x="392" d="M16 497h81v38q0 102 52 148.5t136 46.5q29 0 62.5 -6.5t54.5 -20.5l-27 -103q-24 14 -57 14t-50 -18.5t-17 -63.5v-35h130v-115h-130v-382h-154v382h-81v115z" />
<glyph unicode="g" horiz-adv-x="630" d="M405 259q0 69 -31 102t-79 33q-104 0 -104 -136q0 -71 26.5 -104t77.5 -33q50 0 80 34t30 104zM561 497v-477q0 -62 -21 -107.5t-58 -75t-88 -44t-112 -14.5q-37 0 -71.5 6t-64 18.5t-53 33.5t-38.5 51l89 77q23 -40 56.5 -56.5t75.5 -16.5q60 0 94 30t34 96v71 q-47 -83 -156 -83q-94 0 -151 62.5t-57 187.5q0 127 59 190.5t158 63.5q56 0 97.5 -21t65.5 -64l13 72h128z" />
<glyph unicode="h" horiz-adv-x="646" d="M227 700v-294q26 52 72.5 78t102.5 26q46 0 80 -14t56.5 -40t33 -62.5t10.5 -81.5v-312h-158v259q0 65 -22.5 89.5t-65.5 24.5q-48 0 -78 -32t-31 -97v-244h-158v700h158z" />
<glyph unicode="i" horiz-adv-x="298" d="M58 643q0 43 23.5 62.5t67.5 19.5t67.5 -19.5t23.5 -62.5q0 -42 -23.5 -61.5t-67.5 -19.5t-67.5 19.5t-23.5 61.5zM70 497h158v-497h-158v497z" />
<glyph unicode="j" horiz-adv-x="298" d="M58 643q0 43 23.5 62.5t67.5 19.5t67.5 -19.5t23.5 -62.5q0 -42 -23.5 -61.5t-67.5 -19.5t-67.5 19.5t-23.5 61.5zM70 -20v517h158v-527q0 -49 -14 -85t-39.5 -59.5t-61 -35t-78.5 -11.5q-26 0 -53.5 5t-52.5 17l25 105q12 -5 24 -8t28 -3q32 0 48 18.5t16 66.5z" />
<glyph unicode="k" horiz-adv-x="584" d="M69 0v700h157l-4 -430l184 227h171l-189 -221l191 -276h-174l-119 174l-61 -67v-107h-156z" />
<glyph unicode="l" horiz-adv-x="311" d="M209 0q-69 0 -106.5 32t-37.5 109v559h158v-538q0 -24 8.5 -34.5t34.5 -10.5h32v-117h-89z" />
<glyph unicode="m" horiz-adv-x="952" d="M69 0v497h130l14 -87q27 50 72 75t98 25q66 0 102.5 -33t50.5 -82q25 57 73 86t108 29q45 0 77 -14t53 -39.5t31 -62t10 -80.5v-314h-158v265q0 58 -18 82.5t-56 24.5q-43 0 -70.5 -29.5t-28.5 -91.5v-251h-158v263q0 59 -19 84t-58 25q-42 0 -68 -29.5t-27 -92.5v-250 h-158z" />
<glyph unicode="n" horiz-adv-x="646" d="M69 497h131l13 -90q29 51 76.5 77t107.5 26q48 0 83 -14t57.5 -40t33.5 -62.5t11 -81.5v-312h-158v259q0 65 -22 89.5t-66 24.5q-48 0 -78 -32t-31 -97v-244h-158v497z" />
<glyph unicode="o" horiz-adv-x="606" d="M42 249q0 134 69 197.5t192 63.5q132 0 196.5 -62.5t64.5 -198.5q0 -132 -66 -197.5t-195 -65.5q-130 0 -195.5 64.5t-65.5 198.5zM414 248q0 78 -26 111t-85 33q-60 0 -86 -33t-26 -111t27 -112t85 -34q57 0 84 34t27 112z" />
<glyph unicode="p" horiz-adv-x="633" d="M224 246q0 -75 30 -109.5t77 -34.5q108 0 108 145q0 78 -27.5 111.5t-78.5 33.5q-48 0 -78.5 -34t-30.5 -112zM69 497h131l13 -89q27 50 73 76t102 26q99 0 151 -65t52 -190q0 -62 -14 -111.5t-42 -84.5t-70.5 -54t-98.5 -19q-92 0 -139 58v-230h-158v683z" />
<glyph unicode="q" horiz-adv-x="633" d="M564 -186h-158v246q-52 -74 -154 -74q-96 0 -153 64.5t-57 191.5q0 135 60 201.5t160 66.5q55 0 96 -21t65 -65l12 73h129v-683zM408 248q0 78 -31 111.5t-79 33.5q-51 0 -77.5 -33.5t-26.5 -111.5q0 -74 26 -109t78 -35q49 0 79.5 34.5t30.5 109.5z" />
<glyph unicode="r" horiz-adv-x="411" d="M69 0v497h131l13 -99q26 55 72 84.5t106 27.5l1 -150q-83 7 -123.5 -38t-41.5 -125v-197h-158z" />
<glyph unicode="s" horiz-adv-x="510" d="M248 89q41 0 60 11.5t19 30.5q0 20 -15 29t-52 17l-42 9q-171 36 -171 162q0 33 12.5 62.5t38.5 51.5t65.5 35t93.5 13q72 0 122.5 -20.5t85.5 -65.5l-81 -82q-23 28 -54.5 43t-72.5 15q-35 0 -54 -10t-19 -30q0 -17 14.5 -28t49.5 -18l58 -12q85 -17 123 -56.5t38 -96.5 q0 -33 -11.5 -62.5t-38 -52t-68.5 -35.5t-102 -13q-78 0 -135.5 23t-89.5 74l79 78q24 -35 62 -53.5t85 -18.5z" />
<glyph unicode="t" horiz-adv-x="411" d="M18 497h76v141h154v-141h133v-115h-133v-201q0 -44 18.5 -61.5t51.5 -17.5q34 0 61 13l21 -100q-54 -29 -123 -29q-39 0 -72 9t-58 30.5t-39 56t-14 85.5v215h-76v115z" />
<glyph unicode="u" horiz-adv-x="642" d="M443 0l-12 84q-28 -50 -74.5 -74t-101.5 -24q-50 0 -86.5 14.5t-59.5 40.5t-34 61.5t-11 78.5v316h158v-273q0 -109 88 -109q45 0 74.5 32.5t30.5 95.5v254h157v-497h-129z" />
<glyph unicode="v" horiz-adv-x="564" d="M7 497h163l116 -336l110 336h161l-194 -497h-163z" />
<glyph unicode="w" horiz-adv-x="786" d="M333 495h126l94 -313l85 315h142l-155 -497h-141l-91 319l-90 -319h-140l-157 497h147l87 -313z" />
<glyph unicode="x" horiz-adv-x="560" d="M17 497h173l97 -152l95 152h162l-174 -247l186 -250h-174l-107 155l-108 -155h-162l187 253z" />
<glyph unicode="y" horiz-adv-x="564" d="M188 -41l13 39l-196 499h163l116 -331l112 331h162l-231 -589q-15 -37 -35.5 -61.5t-46.5 -39.5t-57 -21t-66 -6q-32 0 -56.5 4.5t-50.5 14.5l16 113q38 -16 72 -16q26 0 49 13t36 50z" />
<glyph unicode="z" horiz-adv-x="509" d="M31 0v92l253 289h-248v116h432v-96l-251 -286h259v-115h-445z" />
<glyph unicode="{" horiz-adv-x="380" d="M332 -138q-45 2 -82 13t-63.5 31t-41.5 49t-15 68q0 34 4 63.5t4 60.5q0 48 -27 69.5t-80 21.5h-26v113h26q53 0 80 21.5t27 69.5q0 31 -4 60.5t-4 64.5q0 38 15 67t41.5 49t63.5 31t82 13l18 -123q-88 -3 -88 -83q0 -28 4 -54t4 -55q0 -42 -21.5 -70.5t-62.5 -46.5 q41 -19 62.5 -48t21.5 -70q0 -29 -4 -55t-4 -54q0 -80 88 -83z" />
<glyph unicode="|" horiz-adv-x="315" d="M87 -65v831h142v-831h-142z" />
<glyph unicode="}" horiz-adv-x="380" d="M28 -15q88 3 88 83q0 28 -4 54t-4 55q0 41 21.5 70t62.5 48q-41 18 -62.5 46.5t-21.5 70.5q0 29 4 55t4 54q0 80 -88 83l18 123q45 -2 82 -13t63.5 -31t41.5 -49t15 -67q0 -35 -4 -64.5t-4 -60.5q0 -48 27 -69.5t80 -21.5h26v-113h-26q-53 0 -80 -21.5t-27 -69.5 q0 -31 4 -60.5t4 -63.5q0 -39 -15 -68t-41.5 -49t-63.5 -31t-82 -13z" />
<glyph unicode="~" horiz-adv-x="561" d="M424 425l112 -17q-5 -79 -46.5 -119t-104.5 -40q-30 0 -56.5 8.5t-51.5 19.5q-24 11 -46 19.5t-44 8.5q-20 0 -34 -13t-16 -42l-112 17q5 79 46.5 119t106.5 40q30 0 56.5 -8.5t50.5 -18.5q24 -11 46 -19.5t43 -8.5q22 0 35 12.5t15 41.5z" />
<glyph unicode="&#xa1;" horiz-adv-x="256" d="M48 -194l23 484h114l24 -484h-161zM215 433q0 -42 -22.5 -62.5t-64.5 -20.5t-65 20.5t-23 62.5q0 39 23 60t65 21t64.5 -20.5t22.5 -60.5z" />
<glyph unicode="&#xa2;" horiz-adv-x="550" d="M261 -62v69q-102 9 -156.5 68.5t-54.5 181.5q0 120 54 181t157 71v70h80v-70q119 -12 169 -108l-97 -66q-25 46 -72 55v-268q27 5 45 20t31 42l102 -54q-26 -55 -71.5 -85t-106.5 -37v-70h-80zM189 255q0 -60 17.5 -91t54.5 -40v265q-38 -9 -55 -40t-17 -94z" />
<glyph unicode="&#xa3;" horiz-adv-x="622" d="M31 0v125h32q27 0 36 23t7 71l-3 69h-72v101h69l-3 92q-2 66 18 111t55 72t81.5 38.5t97.5 11.5q86 0 140 -31.5t92 -104.5l-109 -76q-20 39 -46.5 61t-70.5 22q-55 0 -79 -29.5t-22 -89.5l3 -77h160v-101h-154l1 -72q1 -23 -1.5 -49t-13.5 -43h147q42 0 74.5 14t61.5 45 l71 -96q-41 -51 -90.5 -69t-117.5 -18h-364z" />
<glyph unicode="&#xa5;" horiz-adv-x="682" d="M603 290v-81h-179v-209h-165v209h-178v81h162l-27 46h-135v81h89l-162 283h181l157 -299l156 299h172l-161 -283h90v-81h-136l-26 -46h162z" />
<glyph unicode="&#xa6;" horiz-adv-x="315" d="M87 383v383h142v-383h-142zM87 -65v383h142v-383h-142z" />
<glyph unicode="&#xa7;" horiz-adv-x="519" d="M347 329q0 23 -16.5 39.5t-60.5 24.5l-20 4q-19 4 -33 1t-23.5 -10t-14 -17.5t-4.5 -21.5q0 -20 15.5 -37.5t54.5 -25.5l20 -4q39 -8 60 6.5t22 40.5zM251 -32q-71 0 -123.5 20t-84.5 67l80 72q22 -29 51 -44t75 -15q42 0 61.5 13t19.5 37q0 22 -18 33.5t-58 21.5l-37 9 q-89 21 -126 63t-37 98q0 32 14.5 61.5t51.5 46.5q-29 21 -42 48t-13 59q0 33 11.5 61.5t35.5 49.5t61 33t89 12q66 0 109.5 -18.5t74.5 -56.5l-76 -76q-23 23 -47.5 35.5t-59.5 12.5q-71 0 -71 -50q0 -16 14 -31t52 -24l53 -12q85 -20 123 -57t38 -98q0 -32 -14.5 -61.5 t-52.5 -46.5q59 -37 59 -108q0 -30 -10.5 -57.5t-35.5 -49.5t-65.5 -35t-101.5 -13z" />
<glyph unicode="&#xa8;" horiz-adv-x="600" d="M328 645q0 38 22 56t62 18t61.5 -18t21.5 -56t-21.5 -56.5t-61.5 -18.5t-62 18.5t-22 56.5zM118 645q0 38 22 56t61 18q40 0 61.5 -18t21.5 -56t-21.5 -56.5t-61.5 -18.5q-39 0 -61 18.5t-22 56.5z" />
<glyph unicode="&#xa9;" horiz-adv-x="831" d="M65 350q0 78 23.5 142t68.5 109t110.5 70t148.5 25t148 -25t110 -70t68.5 -109t23.5 -142t-23.5 -142t-68.5 -109.5t-110 -70.5t-148 -25t-148.5 25t-110.5 70.5t-68.5 109.5t-23.5 142zM120 350q0 -75 22 -130.5t61 -92t93.5 -55t119.5 -18.5t119.5 18.5t93.5 55t61 92 t22 130.5t-22 130.5t-61 92.5t-93.5 55.5t-119.5 18.5t-119.5 -18.5t-93.5 -55.5t-61 -92.5t-22 -130.5zM422 162q-91 0 -140 46t-49 146t48.5 147.5t142.5 47.5q60 0 98 -21t60 -60l-80 -57q-12 26 -31 37t-46 11q-44 0 -64 -24.5t-20 -81.5q0 -56 21 -79t63 -23 q30 0 50 11t31 37l80 -45q-23 -47 -65 -69.5t-99 -22.5z" />
<glyph unicode="&#xaa;" horiz-adv-x="416" d="M187 416q34 0 53.5 20.5t19.5 58.5v7h-57q-67 0 -67 -47q0 -39 51 -39zM269 401q-17 -29 -47 -44.5t-72 -15.5q-53 0 -86 27t-33 79q0 57 43 87.5t119 30.5h67q-2 38 -21.5 50.5t-51.5 12.5q-35 0 -60 -11t-42 -31l-44 66q51 62 164 62q36 0 67 -7.5t53.5 -25.5t35.5 -47 t13 -72v-211h-98z" />
<glyph unicode="&#xab;" horiz-adv-x="678" d="M486 0l-204 249v3l197 245h157l-199 -244l208 -253h-159zM237 0l-196 247v3l195 247h156l-196 -246l200 -251h-159z" />
<glyph unicode="&#xad;" horiz-adv-x="411" d="M364 328v-123h-313v123h313z" />
<glyph unicode="&#xae;" horiz-adv-x="473" d="M42 523q0 88 50.5 139.5t144.5 51.5q93 0 143.5 -51.5t50.5 -139.5q0 -87 -50.5 -139.5t-143.5 -52.5q-47 0 -83 14t-61 39t-38 60.5t-13 78.5zM78 523q0 -81 44.5 -121.5t114.5 -40.5q69 0 113.5 40.5t44.5 121.5q0 80 -44.5 120.5t-113.5 40.5q-70 0 -114.5 -40.5 t-44.5 -120.5zM240 579h-33v-51h29q17 0 25 6t8 21q0 24 -29 24zM156 432v189h93q35 0 52.5 -18t17.5 -49q0 -22 -8.5 -36t-22.5 -23l33 -63h-55l-27 53h-32v-53h-51z" />
<glyph unicode="&#xaf;" horiz-adv-x="600" d="M440 677v-87h-289v87h289z" />
<glyph unicode="&#xb0;" horiz-adv-x="470" d="M236 349q-89 0 -137 50.5t-48 132.5q0 83 48 132.5t137 49.5q88 0 136 -49.5t48 -132.5q0 -82 -48 -132.5t-136 -50.5zM236 629q-41 0 -65.5 -24.5t-24.5 -72.5q0 -49 24.5 -73t65.5 -24q39 0 63.5 24t24.5 73q0 48 -24.5 72.5t-63.5 24.5z" />
<glyph unicode="&#xb1;" horiz-adv-x="510" d="M308 147h-106v135h-152v93h152v138h106v-138h152v-93h-152v-135zM460 93v-93h-410v93h410z" />
<glyph unicode="&#xb2;" horiz-adv-x="384" d="M12 294zM27 294v79l138 118q29 25 44.5 45t15.5 43q0 24 -15 33t-38 9q-32 0 -49.5 -13t-33.5 -40l-77 54q29 51 71.5 71.5t102.5 20.5q32 0 60.5 -6t50 -20.5t34 -37.5t12.5 -56q0 -44 -23.5 -80t-67.5 -75l-60 -54l166 4v-95h-331z" />
<glyph unicode="&#xb3;" horiz-adv-x="384" d="M16 281zM184 281q-57 0 -99.5 19t-68.5 64l80 53q16 -27 35 -37t46 -10q29 0 46 11t17 34q0 42 -62 42h-43v81h43q52 0 52 43q0 41 -56 41q-26 0 -41.5 -10.5t-29.5 -34.5l-80 46q26 50 66 70.5t97 20.5q78 0 118.5 -31.5t40.5 -88.5q0 -31 -14.5 -54t-40.5 -38 q29 -13 45.5 -34.5t16.5 -57.5q0 -59 -43.5 -94t-124.5 -35z" />
<glyph unicode="&#xb4;" horiz-adv-x="600" d="M468 698l-129 -127h-122v5l81 128h170v-6z" />
<glyph unicode="&#xb6;" horiz-adv-x="681" d="M488 570h-60v-240h60v240zM188 455q0 -58 29.5 -90t77.5 -33h9v236h-10q-52 -1 -79 -33t-27 -80zM428 206v-206h-124v207q-58 2 -105 19t-80.5 48.5t-51.5 76.5t-18 102q0 55 17 101t49 78t78 50t105 18h315v-700h-125v206h-60z" />
<glyph unicode="&#xb7;" horiz-adv-x="257" d="M41 257zM41 338q0 42 23 62.5t65 20.5t64.5 -20.5t22.5 -62.5q0 -39 -22.5 -60t-64.5 -21t-65 20.5t-23 60.5z" />
<glyph unicode="&#xb8;" horiz-adv-x="600" d="M295 0h80l-18 -50h1q20 -2 38.5 -8t32.5 -17.5t22.5 -28t8.5 -38.5q0 -28 -11.5 -48.5t-30.5 -34t-44 -20t-53 -6.5q-45 0 -82 17t-59 52l54 55q15 -23 33.5 -35.5t47.5 -12.5q21 0 35.5 8.5t14.5 27.5q0 17 -14 27t-39 10q-6 0 -11.5 -0.5t-11.5 -1.5l-23 15z" />
<glyph unicode="&#xb9;" horiz-adv-x="264" d="M7 294zM210 294h-116v282l-44 -26l-43 87l127 70h76v-413z" />
<glyph unicode="&#xba;" horiz-adv-x="430" d="M32 528q0 96 49.5 141t137.5 45q94 0 141 -44.5t47 -141.5q0 -94 -48 -141t-140 -47t-139.5 46t-47.5 142zM295 528q0 52 -18 75.5t-59 23.5q-39 0 -56.5 -23.5t-17.5 -75.5q0 -54 18 -77.5t56 -23.5q39 0 58 23.5t19 77.5z" />
<glyph unicode="&#xbb;" horiz-adv-x="678" d="M192 497l204 -249v-3l-197 -245h-157l199 244l-208 253h159zM441 497l196 -247v-3l-195 -247h-156l196 246l-200 251h159z" />
<glyph unicode="&#xbc;" horiz-adv-x="913" d="M7 0zM210 293h-116v282l-44 -26l-43 87l127 70h76v-413zM635 700l-346 -700h-137l348 700h135zM511 81v76l122 252h113l-118 -235h111v136h108v-136h47v-93h-47v-81h-108v81h-228z" />
<glyph unicode="&#xbd;" horiz-adv-x="914" d="M7 0zM556 0v79l138 118q29 25 44.5 45t15.5 43q0 24 -15 33t-38 9q-32 0 -49.5 -13t-33.5 -40l-77 54q29 51 71.5 71.5t102.5 20.5q32 0 60.5 -6t50 -20.5t34 -37.5t12.5 -56q0 -44 -23.5 -80t-67.5 -75l-60 -54l166 4v-95h-331zM210 293h-116v282l-44 -26l-43 87l127 70 h76v-413zM635 700l-346 -700h-137l348 700h135z" />
<glyph unicode="&#xbe;" horiz-adv-x="1000" d="M16 0zM184 280q-57 0 -99.5 19t-68.5 64l80 53q16 -27 35 -37t46 -10q29 0 46 11t17 34q0 42 -62 42h-43v81h43q52 0 52 43q0 41 -56 41q-26 0 -41.5 -10.5t-29.5 -34.5l-80 46q26 50 66 70.5t97 20.5q78 0 118.5 -31.5t40.5 -88.5q0 -31 -14.5 -54t-40.5 -38 q29 -13 45.5 -34.5t16.5 -57.5q0 -59 -43.5 -94t-124.5 -35zM736 700l-346 -700h-137l348 700h135zM598 81v76l122 252h113l-118 -235h111v136h108v-136h47v-93h-47v-81h-108v81h-228z" />
<glyph unicode="&#xbf;" horiz-adv-x="518" d="M333 290l6 -175h-58q-122 0 -122 -109q0 -46 30 -72.5t92 -26.5q47 0 80 20.5t59 74.5l97 -65q-74 -150 -256 -150q-118 0 -182 53.5t-64 156.5q0 97 51.5 148.5t138.5 60.5l4 84h124zM362 433q0 -42 -23 -62.5t-65 -20.5t-64.5 20.5t-22.5 62.5q0 39 22.5 60t64.5 21 t65 -20.5t23 -60.5z" />
<glyph unicode="&#xc0;" horiz-adv-x="688" d="M8 0zM341 541l-97 -306h194zM512 0l-36 110h-270l-35 -110h-163l237 700h198l237 -700h-168zM295 775l-129 127v6h174l79 -128v-5h-124z" />
<glyph unicode="&#xc1;" horiz-adv-x="688" d="M8 0zM341 541l-97 -306h194zM512 0l-36 110h-270l-35 -110h-163l237 700h198l237 -700h-168zM524 902l-129 -127h-122v5l81 128h170v-6z" />
<glyph unicode="&#xc2;" horiz-adv-x="688" d="M8 0zM341 541l-97 -306h194zM512 0l-36 110h-270l-35 -110h-163l237 700h198l237 -700h-168zM344 832l-61 -58h-125v4l123 129h131l125 -129v-4h-132z" />
<glyph unicode="&#xc3;" horiz-adv-x="688" d="M8 0zM341 541l-97 -306h194zM512 0l-36 110h-270l-35 -110h-163l237 700h198l237 -700h-168zM432 903h95q3 -35 -6 -58.5t-24 -37.5t-34 -20t-38 -6q-23 0 -42 5.5t-36 11.5t-32 11.5t-29 5.5q-17 0 -22.5 -10.5t-5.5 -23.5h-95q-2 35 6.5 58.5t23.5 38t34 20.5t38 6 q23 0 42 -5.5t36 -12t32 -12t29 -5.5q18 0 23 10t5 24z" />
<glyph unicode="&#xc4;" horiz-adv-x="688" d="M8 0zM341 541l-97 -306h194zM512 0l-36 110h-270l-35 -110h-163l237 700h198l237 -700h-168zM367 848q0 38 22 56t62 18t61.5 -18t21.5 -56t-21.5 -56.5t-61.5 -18.5t-62 18.5t-22 56.5zM157 848q0 38 22 56t61 18q40 0 61.5 -18t21.5 -56t-21.5 -56.5t-61.5 -18.5 q-39 0 -61 18.5t-22 56.5z" />
<glyph unicode="&#xc5;" horiz-adv-x="688" d="M8 0zM341 541l-97 -306h194zM512 0l-36 110h-270l-35 -110h-163l237 700h198l237 -700h-168zM230 856q0 50 32.5 76.5t82.5 26.5t82 -26.5t32 -76.5q0 -51 -32 -77.5t-83 -26.5q-49 0 -81.5 26.5t-32.5 77.5zM300 856q0 -21 12 -33.5t32 -12.5t33 12.5t13 33.5t-12.5 33 t-32.5 12t-32.5 -12t-12.5 -33z" />
<glyph unicode="&#xc6;" horiz-adv-x="1004" d="M345 537l-99 -302h195zM514 0l-35 110h-274l-36 -110h-161l248 700h694v-129h-454l50 -153h353v-130h-309l52 -159h318v-129h-446z" />
<glyph unicode="&#xc7;" horiz-adv-x="709" d="M391 -251q-45 0 -82 17t-59 52l54 55q15 -23 33.5 -35.5t47.5 -12.5q21 0 35.5 8.5t14.5 27.5q0 17 -14 27t-39 10q-6 0 -11.5 -0.5t-11.5 -1.5l-23 15l25 76q-155 7 -229.5 96t-74.5 268q0 191 85.5 277t255.5 86q106 0 174.5 -36.5t103.5 -121.5l-131 -68 q-24 52 -58 71.5t-90 19.5q-42 0 -74.5 -10.5t-55 -37t-34 -71t-11.5 -111.5t11.5 -111.5t34 -71.5t55.5 -38t75 -11q54 0 93 22.5t63 76.5l131 -65q-34 -73 -93.5 -114t-150.5 -49l-14 -38h1q20 -2 38.5 -8t32.5 -17.5t22.5 -28t8.5 -38.5q0 -28 -11.5 -48.5t-30.5 -34 t-44 -20t-53 -6.5z" />
<glyph unicode="&#xc8;" horiz-adv-x="684" d="M93 0zM93 0v700h537v-129h-377v-153h326v-130h-326v-159h387v-129h-547zM319 775l-129 127v6h174l79 -128v-5h-124z" />
<glyph unicode="&#xc9;" horiz-adv-x="684" d="M93 0zM549 902l-129 -127h-122v5l81 128h170v-6zM93 0v700h537v-129h-377v-153h326v-130h-326v-159h387v-129h-547z" />
<glyph unicode="&#xca;" horiz-adv-x="684" d="M93 0zM368 832l-61 -58h-125v4l123 129h131l125 -129v-4h-132zM93 0v700h537v-129h-377v-153h326v-130h-326v-159h387v-129h-547z" />
<glyph unicode="&#xcb;" horiz-adv-x="684" d="M93 0zM392 848q0 38 22 56t62 18t61.5 -18t21.5 -56t-21.5 -56.5t-61.5 -18.5t-62 18.5t-22 56.5zM182 848q0 38 22 56t61 18q40 0 61.5 -18t21.5 -56t-21.5 -56.5t-61.5 -18.5q-39 0 -61 18.5t-22 56.5zM93 0v700h537v-129h-377v-153h326v-130h-326v-159h387v-129h-547z " />
<glyph unicode="&#xcc;" horiz-adv-x="350" d="M0 0zM93 0v700h164v-700h-164zM124 775l-129 127v6h174l79 -128v-5h-124z" />
<glyph unicode="&#xcd;" horiz-adv-x="350" d="M93 0zM93 0v700h164v-700h-164zM354 902l-129 -127h-122v5l81 128h170v-6z" />
<glyph unicode="&#xce;" horiz-adv-x="350" d="M0 0zM93 0v700h164v-700h-164zM173 832l-61 -58h-125v4l123 129h131l125 -129v-4h-132z" />
<glyph unicode="&#xcf;" horiz-adv-x="350" d="M0 0zM93 0v700h164v-700h-164zM197 848q0 38 22 56t62 18t61.5 -18t21.5 -56t-21.5 -56.5t-61.5 -18.5t-62 18.5t-22 56.5zM-13 848q0 38 22 56t61 18q40 0 61.5 -18t21.5 -56t-21.5 -56.5t-61.5 -18.5q-39 0 -61 18.5t-22 56.5z" />
<glyph unicode="&#xd0;" horiz-adv-x="783" d="M398 0h-289v288h-72v122h72v290h300q163 0 240.5 -83.5t77.5 -261.5q0 -177 -80.5 -266t-248.5 -89zM272 132h115q40 0 72.5 11t55.5 37t35.5 68t12.5 104q0 115 -41.5 165.5t-121.5 50.5h-128v-158h121v-122h-121v-156z" />
<glyph unicode="&#xd1;" horiz-adv-x="808" d="M93 0zM572 0l-328 444l4 -444h-155v700h129l342 -467l-4 467h156v-700h-144zM490 903h95q3 -35 -6 -58.5t-24 -37.5t-34 -20t-38 -6q-23 0 -42 5.5t-36 11.5t-32 11.5t-29 5.5q-17 0 -22.5 -10.5t-5.5 -23.5h-95q-2 35 6.5 58.5t23.5 38t34 20.5t38 6q23 0 42 -5.5 t36 -12t32 -12t29 -5.5q18 0 23 10t5 24z" />
<glyph unicode="&#xd2;" horiz-adv-x="793" d="M57 0zM396 -14q-177 0 -258 90t-81 275t83.5 274t256.5 89q179 0 259 -89.5t80 -274.5t-84 -274.5t-256 -89.5zM396 580q-43 0 -75.5 -11.5t-54.5 -38.5t-33 -71t-11 -110q0 -64 11 -108t33 -71t54.5 -39t75.5 -12t75.5 12t54.5 39t33 71.5t11 109.5q0 64 -11 108t-33 71 t-54.5 38.5t-75.5 11.5zM343 776l-129 127v6h174l79 -128v-5h-124z" />
<glyph unicode="&#xd3;" horiz-adv-x="793" d="M57 0zM573 902l-129 -127h-122v5l81 128h170v-6zM396 -14q-177 0 -258 90t-81 275t83.5 274t256.5 89q179 0 259 -89.5t80 -274.5t-84 -274.5t-256 -89.5zM396 580q-43 0 -75.5 -11.5t-54.5 -38.5t-33 -71t-11 -110q0 -64 11 -108t33 -71t54.5 -39t75.5 -12t75.5 12 t54.5 39t33 71.5t11 109.5q0 64 -11 108t-33 71t-54.5 38.5t-75.5 11.5z" />
<glyph unicode="&#xd4;" horiz-adv-x="793" d="M57 0zM392 833l-61 -58h-125v4l123 129h131l125 -129v-4h-132zM396 -14q-177 0 -258 90t-81 275t83.5 274t256.5 89q179 0 259 -89.5t80 -274.5t-84 -274.5t-256 -89.5zM396 580q-43 0 -75.5 -11.5t-54.5 -38.5t-33 -71t-11 -110q0 -64 11 -108t33 -71t54.5 -39t75.5 -12 t75.5 12t54.5 39t33 71.5t11 109.5q0 64 -11 108t-33 71t-54.5 38.5t-75.5 11.5z" />
<glyph unicode="&#xd5;" horiz-adv-x="793" d="M57 0zM396 -14q-177 0 -258 90t-81 275t83.5 274t256.5 89q179 0 259 -89.5t80 -274.5t-84 -274.5t-256 -89.5zM396 580q-43 0 -75.5 -11.5t-54.5 -38.5t-33 -71t-11 -110q0 -64 11 -108t33 -71t54.5 -39t75.5 -12t75.5 12t54.5 39t33 71.5t11 109.5q0 64 -11 108t-33 71 t-54.5 38.5t-75.5 11.5zM480 904h95q3 -35 -6 -58.5t-24 -37.5t-34 -20t-38 -6q-23 0 -42 5.5t-36 11.5t-32 11.5t-29 5.5q-17 0 -22.5 -10.5t-5.5 -23.5h-95q-2 35 6.5 58.5t23.5 38t34 20.5t38 6q23 0 42 -5.5t36 -12t32 -12t29 -5.5q18 0 23 10t5 24z" />
<glyph unicode="&#xd6;" horiz-adv-x="793" d="M57 0zM418 849q0 38 22 56t62 18t61.5 -18t21.5 -56t-21.5 -56.5t-61.5 -18.5t-62 18.5t-22 56.5zM208 849q0 38 22 56t61 18q40 0 61.5 -18t21.5 -56t-21.5 -56.5t-61.5 -18.5q-39 0 -61 18.5t-22 56.5zM396 -14q-177 0 -258 90t-81 275t83.5 274t256.5 89 q179 0 259 -89.5t80 -274.5t-84 -274.5t-256 -89.5zM396 580q-43 0 -75.5 -11.5t-54.5 -38.5t-33 -71t-11 -110q0 -64 11 -108t33 -71t54.5 -39t75.5 -12t75.5 12t54.5 39t33 71.5t11 109.5q0 64 -11 108t-33 71t-54.5 38.5t-75.5 11.5z" />
<glyph unicode="&#xd7;" horiz-adv-x="503" d="M127 126l-64 65l120 120l-122 123l69 69l123 -123l122 122l64 -64l-122 -122l124 -124l-69 -69l-124 124z" />
<glyph unicode="&#xd8;" horiz-adv-x="803" d="M154 0h-115l87 99q-33 46 -48.5 108.5t-15.5 142.5q0 185 83.5 274.5t256.5 89.5q137 0 214 -55l36 41h116l-89 -102q62 -89 62 -248q0 -187 -82.5 -275.5t-254.5 -88.5q-137 0 -216 54zM515 544q-21 20 -49.5 28t-64.5 8q-43 0 -75.5 -11.5t-54.5 -38t-33 -70.5 t-11 -110q0 -74 16 -116zM287 154q21 -20 49.5 -27.5t64.5 -7.5q43 0 75.5 11.5t54.5 38.5t33 71.5t11 110.5q0 69 -15 114z" />
<glyph unicode="&#xd9;" horiz-adv-x="771" d="M76 0zM532 276v424h163v-415q0 -79 -21 -135.5t-60.5 -93t-97 -53.5t-129.5 -17q-150 0 -230.5 72t-80.5 227v415h164v-424q0 -80 38.5 -117.5t107.5 -37.5t107.5 37.5t38.5 117.5zM336 776l-129 127v6h174l79 -128v-5h-124z" />
<glyph unicode="&#xda;" horiz-adv-x="771" d="M76 0zM565 902l-129 -127h-122v5l81 128h170v-6zM532 276v424h163v-415q0 -79 -21 -135.5t-60.5 -93t-97 -53.5t-129.5 -17q-150 0 -230.5 72t-80.5 227v415h164v-424q0 -80 38.5 -117.5t107.5 -37.5t107.5 37.5t38.5 117.5z" />
<glyph unicode="&#xdb;" horiz-adv-x="771" d="M76 0zM384 832l-61 -58h-125v4l123 129h131l125 -129v-4h-132zM532 276v424h163v-415q0 -79 -21 -135.5t-60.5 -93t-97 -53.5t-129.5 -17q-150 0 -230.5 72t-80.5 227v415h164v-424q0 -80 38.5 -117.5t107.5 -37.5t107.5 37.5t38.5 117.5z" />
<glyph unicode="&#xdc;" horiz-adv-x="771" d="M76 0zM409 848q0 38 22 56t62 18t61.5 -18t21.5 -56t-21.5 -56.5t-61.5 -18.5t-62 18.5t-22 56.5zM199 848q0 38 22 56t61 18q40 0 61.5 -18t21.5 -56t-21.5 -56.5t-61.5 -18.5q-39 0 -61 18.5t-22 56.5zM532 276v424h163v-415q0 -79 -21 -135.5t-60.5 -93t-97 -53.5 t-129.5 -17q-150 0 -230.5 72t-80.5 227v415h164v-424q0 -80 38.5 -117.5t107.5 -37.5t107.5 37.5t38.5 117.5z" />
<glyph unicode="&#xdd;" horiz-adv-x="682" d="M8 0zM259 261l-251 439h181l157 -299l156 299h172l-251 -443v-257h-164v261zM520 902l-129 -127h-122v5l81 128h170v-6z" />
<glyph unicode="&#xde;" horiz-adv-x="690" d="M93 0v700h164v-108h163q119 0 178.5 -65t59.5 -173q0 -58 -18 -102.5t-52 -74.5t-81.5 -45.5t-106.5 -15.5h-143v-116h-164zM394 454h-137v-205h138q48 0 74.5 26.5t26.5 78.5q0 42 -24 71t-78 29z" />
<glyph unicode="&#xdf;" horiz-adv-x="660" d="M359 310h-52v119h43q45 0 67.5 24.5t22.5 62.5q0 46 -29 67t-75 21q-57 0 -85.5 -32t-28.5 -93v-479h-155v483q0 115 68 178.5t200 63.5q67 0 114.5 -14.5t78.5 -40.5t45.5 -61.5t14.5 -77.5q0 -53 -22 -89.5t-58 -58.5q61 -19 89 -66.5t28 -110.5q0 -50 -17 -89.5 t-47 -67t-72.5 -42t-93.5 -14.5q-29 0 -57 3.5t-51 13.5l14 112q15 -6 29.5 -9t31.5 -3q50 0 80.5 25t30.5 77q0 46 -28 72t-86 26z" />
<glyph unicode="&#xe0;" horiz-adv-x="583" d="M41 0zM258 86q49 0 77.5 30.5t28.5 87.5v9h-84q-50 0 -73 -16.5t-23 -51.5q0 -28 18 -43.5t56 -15.5zM375 74q-24 -41 -65 -64t-101 -23q-75 0 -121.5 37.5t-46.5 108.5q0 81 58.5 126t164.5 45h100q-3 53 -31 71t-75 18q-50 0 -84.5 -15t-58.5 -42l-60 88q72 86 227 86 q51 0 94.5 -10.5t75 -35.5t49.5 -66t18 -101v-297h-133zM230 571l-129 127v6h174l79 -128v-5h-124z" />
<glyph unicode="&#xe1;" horiz-adv-x="583" d="M41 0zM258 86q49 0 77.5 30.5t28.5 87.5v9h-84q-50 0 -73 -16.5t-23 -51.5q0 -28 18 -43.5t56 -15.5zM375 74q-24 -41 -65 -64t-101 -23q-75 0 -121.5 37.5t-46.5 108.5q0 81 58.5 126t164.5 45h100q-3 53 -31 71t-75 18q-50 0 -84.5 -15t-58.5 -42l-60 88q72 86 227 86 q51 0 94.5 -10.5t75 -35.5t49.5 -66t18 -101v-297h-133zM459 698l-129 -127h-122v5l81 128h170v-6z" />
<glyph unicode="&#xe2;" horiz-adv-x="583" d="M41 0zM258 86q49 0 77.5 30.5t28.5 87.5v9h-84q-50 0 -73 -16.5t-23 -51.5q0 -28 18 -43.5t56 -15.5zM375 74q-24 -41 -65 -64t-101 -23q-75 0 -121.5 37.5t-46.5 108.5q0 81 58.5 126t164.5 45h100q-3 53 -31 71t-75 18q-50 0 -84.5 -15t-58.5 -42l-60 88q72 86 227 86 q51 0 94.5 -10.5t75 -35.5t49.5 -66t18 -101v-297h-133zM279 629l-61 -58h-125v4l123 129h131l125 -129v-4h-132z" />
<glyph unicode="&#xe3;" horiz-adv-x="583" d="M41 0zM258 86q49 0 77.5 30.5t28.5 87.5v9h-84q-50 0 -73 -16.5t-23 -51.5q0 -28 18 -43.5t56 -15.5zM375 74q-24 -41 -65 -64t-101 -23q-75 0 -121.5 37.5t-46.5 108.5q0 81 58.5 126t164.5 45h100q-3 53 -31 71t-75 18q-50 0 -84.5 -15t-58.5 -42l-60 88q72 86 227 86 q51 0 94.5 -10.5t75 -35.5t49.5 -66t18 -101v-297h-133zM367 700h95q3 -35 -6 -58.5t-24 -37.5t-34 -20t-38 -6q-23 0 -42 5.5t-36 11.5t-32 11.5t-29 5.5q-17 0 -22.5 -10.5t-5.5 -23.5h-95q-2 35 6.5 58.5t23.5 38t34 20.5t38 6q23 0 42 -5.5t36 -12t32 -12t29 -5.5 q18 0 23 10t5 24z" />
<glyph unicode="&#xe4;" horiz-adv-x="583" d="M41 0zM258 86q49 0 77.5 30.5t28.5 87.5v9h-84q-50 0 -73 -16.5t-23 -51.5q0 -28 18 -43.5t56 -15.5zM375 74q-24 -41 -65 -64t-101 -23q-75 0 -121.5 37.5t-46.5 108.5q0 81 58.5 126t164.5 45h100q-3 53 -31 71t-75 18q-50 0 -84.5 -15t-58.5 -42l-60 88q72 86 227 86 q51 0 94.5 -10.5t75 -35.5t49.5 -66t18 -101v-297h-133zM302 645q0 38 22 56t62 18t61.5 -18t21.5 -56t-21.5 -56.5t-61.5 -18.5t-62 18.5t-22 56.5zM92 645q0 38 22 56t61 18q40 0 61.5 -18t21.5 -56t-21.5 -56.5t-61.5 -18.5q-39 0 -61 18.5t-22 56.5z" />
<glyph unicode="&#xe5;" horiz-adv-x="583" d="M41 0zM258 86q49 0 77.5 30.5t28.5 87.5v9h-84q-50 0 -73 -16.5t-23 -51.5q0 -28 18 -43.5t56 -15.5zM375 74q-24 -41 -65 -64t-101 -23q-75 0 -121.5 37.5t-46.5 108.5q0 81 58.5 126t164.5 45h100q-3 53 -31 71t-75 18q-50 0 -84.5 -15t-58.5 -42l-60 88q72 86 227 86 q51 0 94.5 -10.5t75 -35.5t49.5 -66t18 -101v-297h-133zM165 653q0 50 32.5 76.5t82.5 26.5t82 -26.5t32 -76.5q0 -51 -32 -77.5t-83 -26.5q-49 0 -81.5 26.5t-32.5 77.5zM235 653q0 -21 12 -33.5t32 -12.5t33 12.5t13 33.5t-12.5 33t-32.5 12t-32.5 -12t-12.5 -33z" />
<glyph unicode="&#xe6;" horiz-adv-x="900" d="M625 -14q-67 0 -118 22.5t-82 69.5q-29 -43 -80 -67t-124 -24q-81 0 -130.5 37.5t-49.5 108.5q0 80 58.5 123.5t164.5 43.5h100q-2 56 -30.5 74.5t-75.5 18.5q-94 0 -143 -57l-60 88q36 43 93 64.5t132 21.5q54 0 96.5 -15.5t71.5 -51.5q62 67 177 67q61 0 105 -19 t72 -52.5t41.5 -78.5t13.5 -96q0 -14 -1 -26.5t-3 -26.5h-335q5 -62 35 -89.5t85 -27.5q42 0 70 14t45 49l96 -58q-61 -113 -224 -113zM622 400q-43 0 -70.5 -23.5t-32.5 -76.5h193q-3 52 -26 76t-64 24zM258 86q48 0 77 31t29 88v6h-84q-50 0 -73 -16.5t-23 -52.5 q0 -26 18 -41t56 -15z" />
<glyph unicode="&#xe7;" horiz-adv-x="541" d="M290 -251q-45 0 -82 17t-59 52l54 55q15 -23 33.5 -35.5t47.5 -12.5q21 0 35.5 8.5t14.5 27.5q0 17 -14 27t-39 10q-6 0 -11.5 -0.5t-11.5 -1.5l-23 15l25 76q-101 8 -159.5 70.5t-58.5 190.5q0 136 68 199t191 63q78 0 130 -26.5t84 -83.5l-108 -77q-17 34 -42.5 48.5 t-61.5 14.5q-54 0 -81.5 -29.5t-27.5 -109.5q0 -72 25 -107.5t83 -35.5q81 0 110 68l109 -62q-27 -53 -71.5 -83t-109.5 -38l-14 -39h1q20 -2 38.5 -8t32.5 -17.5t22.5 -28t8.5 -38.5q0 -28 -11.5 -48.5t-30.5 -34t-44 -20t-53 -6.5z" />
<glyph unicode="&#xe8;" horiz-adv-x="572" d="M41 0zM299 -14q-59 0 -107 15.5t-81.5 48t-51.5 81t-18 114.5q0 126 66 195.5t188 69.5q62 0 106.5 -19.5t73 -53t41.5 -79.5t13 -99q0 -13 -1 -26t-3 -28h-334q5 -60 35.5 -85.5t84.5 -25.5q41 0 68.5 14t46.5 49l95 -58q-31 -58 -87.5 -85.5t-134.5 -27.5zM292 400 q-44 0 -70 -25t-31 -79h193q-6 104 -92 104zM238 571l-129 127v6h174l79 -128v-5h-124z" />
<glyph unicode="&#xe9;" horiz-adv-x="572" d="M41 0zM467 698l-129 -127h-122v5l81 128h170v-6zM299 -14q-59 0 -107 15.5t-81.5 48t-51.5 81t-18 114.5q0 126 66 195.5t188 69.5q62 0 106.5 -19.5t73 -53t41.5 -79.5t13 -99q0 -13 -1 -26t-3 -28h-334q5 -60 35.5 -85.5t84.5 -25.5q41 0 68.5 14t46.5 49l95 -58 q-31 -58 -87.5 -85.5t-134.5 -27.5zM292 400q-44 0 -70 -25t-31 -79h193q-6 104 -92 104z" />
<glyph unicode="&#xea;" horiz-adv-x="572" d="M41 0zM287 629l-61 -58h-125v4l123 129h131l125 -129v-4h-132zM299 -14q-59 0 -107 15.5t-81.5 48t-51.5 81t-18 114.5q0 126 66 195.5t188 69.5q62 0 106.5 -19.5t73 -53t41.5 -79.5t13 -99q0 -13 -1 -26t-3 -28h-334q5 -60 35.5 -85.5t84.5 -25.5q41 0 68.5 14t46.5 49 l95 -58q-31 -58 -87.5 -85.5t-134.5 -27.5zM292 400q-44 0 -70 -25t-31 -79h193q-6 104 -92 104z" />
<glyph unicode="&#xeb;" horiz-adv-x="572" d="M41 0zM309 645q0 38 22 56t62 18t61.5 -18t21.5 -56t-21.5 -56.5t-61.5 -18.5t-62 18.5t-22 56.5zM99 645q0 38 22 56t61 18q40 0 61.5 -18t21.5 -56t-21.5 -56.5t-61.5 -18.5q-39 0 -61 18.5t-22 56.5zM299 -14q-59 0 -107 15.5t-81.5 48t-51.5 81t-18 114.5 q0 126 66 195.5t188 69.5q62 0 106.5 -19.5t73 -53t41.5 -79.5t13 -99q0 -13 -1 -26t-3 -28h-334q5 -60 35.5 -85.5t84.5 -25.5q41 0 68.5 14t46.5 49l95 -58q-31 -58 -87.5 -85.5t-134.5 -27.5zM292 400q-44 0 -70 -25t-31 -79h193q-6 104 -92 104z" />
<glyph unicode="&#xec;" horiz-adv-x="298" d="M0 0zM70 497h158v-497h-158v497zM98 571l-129 127v6h174l79 -128v-5h-124z" />
<glyph unicode="&#xed;" horiz-adv-x="298" d="M70 0zM328 698l-129 -127h-122v5l81 128h170v-6zM70 497h158v-497h-158v497z" />
<glyph unicode="&#xee;" horiz-adv-x="298" d="M0 0zM146 629l-61 -58h-125v4l123 129h131l125 -129v-4h-132zM70 497h158v-497h-158v497z" />
<glyph unicode="&#xef;" horiz-adv-x="298" d="M0 0zM171 645q0 38 22 56t62 18t61.5 -18t21.5 -56t-21.5 -56.5t-61.5 -18.5t-62 18.5t-22 56.5zM-39 645q0 38 22 56t61 18q40 0 61.5 -18t21.5 -56t-21.5 -56.5t-61.5 -18.5q-39 0 -61 18.5t-22 56.5zM70 497h158v-497h-158v497z" />
<glyph unicode="&#xf0;" horiz-adv-x="606" d="M483 734l35 -52l-68 -43q59 -63 87 -153.5t28 -202.5v-25q0 -143 -66.5 -207.5t-194.5 -64.5q-130 0 -196.5 62.5t-66.5 192.5q0 66 17 114t49 79t77.5 46t102.5 15q69 0 113 -35q-18 63 -60 108l-78 -50l-35 51l60 40q-23 14 -50 24.5t-59 18.5l37 99q110 -15 186 -70z M414 240q0 75 -26.5 108.5t-83.5 33.5q-59 0 -86 -33.5t-27 -108.5t28 -107t85 -32q56 0 83 32t27 107z" />
<glyph unicode="&#xf1;" horiz-adv-x="646" d="M69 0zM69 497h131l13 -90q29 51 76.5 77t107.5 26q48 0 83 -14t57.5 -40t33.5 -62.5t11 -81.5v-312h-158v259q0 65 -22 89.5t-66 24.5q-48 0 -78 -32t-31 -97v-244h-158v497zM430 700h95q3 -35 -6 -58.5t-24 -37.5t-34 -20t-38 -6q-23 0 -42 5.5t-36 11.5t-32 11.5 t-29 5.5q-17 0 -22.5 -10.5t-5.5 -23.5h-95q-2 35 6.5 58.5t23.5 38t34 20.5t38 6q23 0 42 -5.5t36 -12t32 -12t29 -5.5q18 0 23 10t5 24z" />
<glyph unicode="&#xf2;" horiz-adv-x="606" d="M42 0zM42 249q0 134 69 197.5t192 63.5q132 0 196.5 -62.5t64.5 -198.5q0 -132 -66 -197.5t-195 -65.5q-130 0 -195.5 64.5t-65.5 198.5zM414 248q0 78 -26 111t-85 33q-60 0 -86 -33t-26 -111t27 -112t85 -34q57 0 84 34t27 112zM253 571l-129 127v6h174l79 -128v-5 h-124z" />
<glyph unicode="&#xf3;" horiz-adv-x="606" d="M42 0zM482 698l-129 -127h-122v5l81 128h170v-6zM42 249q0 134 69 197.5t192 63.5q132 0 196.5 -62.5t64.5 -198.5q0 -132 -66 -197.5t-195 -65.5q-130 0 -195.5 64.5t-65.5 198.5zM414 248q0 78 -26 111t-85 33q-60 0 -86 -33t-26 -111t27 -112t85 -34q57 0 84 34 t27 112z" />
<glyph unicode="&#xf4;" horiz-adv-x="606" d="M42 0zM300 629l-61 -58h-125v4l123 129h131l125 -129v-4h-132zM42 249q0 134 69 197.5t192 63.5q132 0 196.5 -62.5t64.5 -198.5q0 -132 -66 -197.5t-195 -65.5q-130 0 -195.5 64.5t-65.5 198.5zM414 248q0 78 -26 111t-85 33q-60 0 -86 -33t-26 -111t27 -112t85 -34 q57 0 84 34t27 112z" />
<glyph unicode="&#xf5;" horiz-adv-x="606" d="M42 0zM42 249q0 134 69 197.5t192 63.5q132 0 196.5 -62.5t64.5 -198.5q0 -132 -66 -197.5t-195 -65.5q-130 0 -195.5 64.5t-65.5 198.5zM414 248q0 78 -26 111t-85 33q-60 0 -86 -33t-26 -111t27 -112t85 -34q57 0 84 34t27 112zM389 700h95q3 -35 -6 -58.5t-24 -37.5 t-34 -20t-38 -6q-23 0 -42 5.5t-36 11.5t-32 11.5t-29 5.5q-17 0 -22.5 -10.5t-5.5 -23.5h-95q-2 35 6.5 58.5t23.5 38t34 20.5t38 6q23 0 42 -5.5t36 -12t32 -12t29 -5.5q18 0 23 10t5 24z" />
<glyph unicode="&#xf6;" horiz-adv-x="606" d="M42 0zM324 645q0 38 22 56t62 18t61.5 -18t21.5 -56t-21.5 -56.5t-61.5 -18.5t-62 18.5t-22 56.5zM114 645q0 38 22 56t61 18q40 0 61.5 -18t21.5 -56t-21.5 -56.5t-61.5 -18.5q-39 0 -61 18.5t-22 56.5zM42 249q0 134 69 197.5t192 63.5q132 0 196.5 -62.5t64.5 -198.5 q0 -132 -66 -197.5t-195 -65.5q-130 0 -195.5 64.5t-65.5 198.5zM414 248q0 78 -26 111t-85 33q-60 0 -86 -33t-26 -111t27 -112t85 -34q57 0 84 34t27 112z" />
<glyph unicode="&#xf7;" horiz-adv-x="510" d="M179 488q0 34 21 54t54 20q34 0 55.5 -20t21.5 -54q0 -32 -21.5 -52.5t-55.5 -20.5q-33 0 -54 20.5t-21 52.5zM460 357v-93h-410v93h410zM179 134q0 34 21 54t54 20q34 0 55.5 -20t21.5 -54q0 -33 -21.5 -53.5t-55.5 -20.5q-33 0 -54 20.5t-21 53.5z" />
<glyph unicode="&#xf8;" horiz-adv-x="616" d="M602 497l-76 -79q43 -61 43 -169q0 -132 -66 -197.5t-195 -65.5q-102 0 -165 42l-28 -28h-99l76 77q-23 32 -34 75t-11 97q0 134 69 197.5t192 63.5q104 0 168 -41l28 28h98zM201 188l182 186q-26 23 -75 23q-61 0 -87.5 -35t-26.5 -114q0 -17 2 -33t5 -27zM421 248 q0 15 -1.5 31t-4.5 27l-182 -187q28 -22 75 -22q59 0 86 35.5t27 115.5z" />
<glyph unicode="&#xf9;" horiz-adv-x="643" d="M64 0zM443 0l-12 84q-28 -50 -74.5 -74t-101.5 -24q-50 0 -86.5 14.5t-59.5 40.5t-34 61.5t-11 78.5v316h158v-273q0 -109 88 -109q45 0 74.5 32.5t30.5 95.5v254h157v-497h-129zM267 571l-129 127v6h174l79 -128v-5h-124z" />
<glyph unicode="&#xfa;" horiz-adv-x="643" d="M64 0zM497 698l-129 -127h-122v5l81 128h170v-6zM443 0l-12 84q-28 -50 -74.5 -74t-101.5 -24q-50 0 -86.5 14.5t-59.5 40.5t-34 61.5t-11 78.5v316h158v-273q0 -109 88 -109q45 0 74.5 32.5t30.5 95.5v254h157v-497h-129z" />
<glyph unicode="&#xfb;" horiz-adv-x="643" d="M64 0zM315 629l-61 -58h-125v4l123 129h131l125 -129v-4h-132zM443 0l-12 84q-28 -50 -74.5 -74t-101.5 -24q-50 0 -86.5 14.5t-59.5 40.5t-34 61.5t-11 78.5v316h158v-273q0 -109 88 -109q45 0 74.5 32.5t30.5 95.5v254h157v-497h-129z" />
<glyph unicode="&#xfc;" horiz-adv-x="643" d="M64 0zM340 645q0 38 22 56t62 18t61.5 -18t21.5 -56t-21.5 -56.5t-61.5 -18.5t-62 18.5t-22 56.5zM130 645q0 38 22 56t61 18q40 0 61.5 -18t21.5 -56t-21.5 -56.5t-61.5 -18.5q-39 0 -61 18.5t-22 56.5zM443 0l-12 84q-28 -50 -74.5 -74t-101.5 -24q-50 0 -86.5 14.5 t-59.5 40.5t-34 61.5t-11 78.5v316h158v-273q0 -109 88 -109q45 0 74.5 32.5t30.5 95.5v254h157v-497h-129z" />
<glyph unicode="&#xfd;" horiz-adv-x="564" d="M5 0zM188 -41l13 39l-196 499h163l116 -331l112 331h162l-231 -589q-15 -37 -35.5 -61.5t-46.5 -39.5t-57 -21t-66 -6q-32 0 -56.5 4.5t-50.5 14.5l16 113q38 -16 72 -16q26 0 49 13t36 50zM460 698l-129 -127h-122v5l81 128h170v-6z" />
<glyph unicode="&#xfe;" horiz-adv-x="634" d="M224 246q0 -75 30 -109.5t77 -34.5q108 0 108 145q0 78 -27.5 111.5t-78.5 33.5q-48 0 -78.5 -34t-30.5 -112zM227 700v-271q25 42 67.5 61.5t93.5 19.5q99 0 151 -65t52 -190q0 -62 -14 -111.5t-42 -84.5t-70.5 -54t-98.5 -19q-94 0 -139 62v-234h-158v886h158z" />
<glyph unicode="&#xff;" horiz-adv-x="564" d="M5 0zM188 -41l13 39l-196 499h163l116 -331l112 331h162l-231 -589q-15 -37 -35.5 -61.5t-46.5 -39.5t-57 -21t-66 -6q-32 0 -56.5 4.5t-50.5 14.5l16 113q38 -16 72 -16q26 0 49 13t36 50zM303 645q0 38 22 56t62 18t61.5 -18t21.5 -56t-21.5 -56.5t-61.5 -18.5 t-62 18.5t-22 56.5zM93 645q0 38 22 56t61 18q40 0 61.5 -18t21.5 -56t-21.5 -56.5t-61.5 -18.5q-39 0 -61 18.5t-22 56.5z" />
<glyph unicode="&#x100;" horiz-adv-x="688" d="M8 0zM341 541l-97 -306h194zM512 0l-36 110h-270l-35 -110h-163l237 700h198l237 -700h-168zM490 880v-87h-289v87h289z" />
<glyph unicode="&#x101;" horiz-adv-x="583" d="M41 0zM258 86q49 0 77.5 30.5t28.5 87.5v9h-84q-50 0 -73 -16.5t-23 -51.5q0 -28 18 -43.5t56 -15.5zM375 74q-24 -41 -65 -64t-101 -23q-75 0 -121.5 37.5t-46.5 108.5q0 81 58.5 126t164.5 45h100q-3 53 -31 71t-75 18q-50 0 -84.5 -15t-58.5 -42l-60 88q72 86 227 86 q51 0 94.5 -10.5t75 -35.5t49.5 -66t18 -101v-297h-133zM426 677v-87h-289v87h289z" />
<glyph unicode="&#x102;" horiz-adv-x="688" d="M8 0zM341 541l-97 -306h194zM512 0l-36 110h-270l-35 -110h-163l237 700h198l237 -700h-168zM419 907h97q0 -40 -11.5 -67t-33.5 -43t-54 -23t-72 -7q-41 0 -72.5 7t-53.5 23t-33.5 43t-11.5 67h97q0 -36 18 -49t56 -13t56 13t18 49z" />
<glyph unicode="&#x103;" horiz-adv-x="583" d="M41 0zM258 86q49 0 77.5 30.5t28.5 87.5v9h-84q-50 0 -73 -16.5t-23 -51.5q0 -28 18 -43.5t56 -15.5zM375 74q-24 -41 -65 -64t-101 -23q-75 0 -121.5 37.5t-46.5 108.5q0 81 58.5 126t164.5 45h100q-3 53 -31 71t-75 18q-50 0 -84.5 -15t-58.5 -42l-60 88q72 86 227 86 q51 0 94.5 -10.5t75 -35.5t49.5 -66t18 -101v-297h-133zM354 704h97q0 -40 -11.5 -67t-33.5 -43t-54 -23t-72 -7q-41 0 -72.5 7t-53.5 23t-33.5 43t-11.5 67h97q0 -36 18 -49t56 -13t56 13t18 49z" />
<glyph unicode="&#x104;" horiz-adv-x="688" d="M505 17l-29 93h-270l-35 -110h-163l237 700h198l237 -700h-61q-48 -4 -69.5 -31t-21.5 -59q0 -29 18.5 -40t44.5 -11q18 0 35.5 4t32.5 13l22 -78q-44 -27 -101 -27q-27 0 -52.5 6t-46 20.5t-33 38t-12.5 59.5q0 43 20 73.5t49 48.5zM341 541l-97 -306h194z" />
<glyph unicode="&#x105;" horiz-adv-x="583" d="M567 -202q-44 -27 -101 -27q-27 0 -53 6t-46 20.5t-32.5 38t-12.5 59.5q0 40 17 70t45 50l-9 59q-24 -41 -65 -64t-101 -23q-75 0 -121.5 37.5t-46.5 108.5q0 81 58.5 126t164.5 45h100q-3 53 -31 71t-75 18q-50 0 -84.5 -15t-58.5 -42l-60 88q72 86 227 86 q51 0 94.5 -10.5t75 -35.5t49.5 -66t18 -101v-297h-14q-48 -4 -69.5 -31t-21.5 -59q0 -29 18.5 -40t45.5 -11q37 0 67 17zM258 86q49 0 77.5 30.5t28.5 87.5v9h-84q-50 0 -73 -16.5t-23 -51.5q0 -28 18 -43.5t56 -15.5z" />
<glyph unicode="&#x106;" horiz-adv-x="709" d="M57 0zM577 902l-129 -127h-122v5l81 128h170v-6zM393 -14q-171 0 -253.5 88.5t-82.5 276.5q0 191 85.5 277t255.5 86q106 0 174.5 -36.5t103.5 -121.5l-131 -68q-24 52 -58 71.5t-90 19.5q-42 0 -74.5 -10.5t-55 -37t-34 -71t-11.5 -111.5t11.5 -111.5t34 -71.5t55.5 -38 t75 -11q54 0 93 22.5t63 76.5l131 -65q-38 -82 -109 -123.5t-183 -41.5z" />
<glyph unicode="&#x107;" horiz-adv-x="541" d="M42 0zM478 698l-129 -127h-122v5l81 128h170v-6zM294 -14q-58 0 -104.5 15t-79.5 46.5t-50.5 81.5t-17.5 119q0 136 68 199t191 63q78 0 130 -26.5t84 -83.5l-108 -77q-17 34 -42.5 48.5t-61.5 14.5q-54 0 -81.5 -29.5t-27.5 -109.5q0 -72 25 -107.5t83 -35.5 q81 0 110 68l109 -62q-32 -62 -87 -93t-140 -31z" />
<glyph unicode="&#x108;" horiz-adv-x="709" d="M57 0zM397 833l-61 -58h-125v4l123 129h131l125 -129v-4h-132zM393 -14q-171 0 -253.5 88.5t-82.5 276.5q0 191 85.5 277t255.5 86q106 0 174.5 -36.5t103.5 -121.5l-131 -68q-24 52 -58 71.5t-90 19.5q-42 0 -74.5 -10.5t-55 -37t-34 -71t-11.5 -111.5t11.5 -111.5 t34 -71.5t55.5 -38t75 -11q54 0 93 22.5t63 76.5l131 -65q-38 -82 -109 -123.5t-183 -41.5z" />
<glyph unicode="&#x109;" horiz-adv-x="541" d="M42 0zM300 629l-61 -58h-125v4l123 129h131l125 -129v-4h-132zM294 -14q-58 0 -104.5 15t-79.5 46.5t-50.5 81.5t-17.5 119q0 136 68 199t191 63q78 0 130 -26.5t84 -83.5l-108 -77q-17 34 -42.5 48.5t-61.5 14.5q-54 0 -81.5 -29.5t-27.5 -109.5q0 -72 25 -107.5 t83 -35.5q81 0 110 68l109 -62q-32 -62 -87 -93t-140 -31z" />
<glyph unicode="&#x10a;" horiz-adv-x="709" d="M57 0zM393 -14q-171 0 -253.5 88.5t-82.5 276.5q0 191 85.5 277t255.5 86q106 0 174.5 -36.5t103.5 -121.5l-131 -68q-24 52 -58 71.5t-90 19.5q-42 0 -74.5 -10.5t-55 -37t-34 -71t-11.5 -111.5t11.5 -111.5t34 -71.5t55.5 -38t75 -11q54 0 93 22.5t63 76.5l131 -65 q-38 -82 -109 -123.5t-183 -41.5zM311 849q0 38 23 56.5t65 18.5t64 -18.5t22 -56.5t-22 -56.5t-64 -18.5t-65 18.5t-23 56.5z" />
<glyph unicode="&#x10b;" horiz-adv-x="541" d="M42 0zM294 -14q-58 0 -104.5 15t-79.5 46.5t-50.5 81.5t-17.5 119q0 136 68 199t191 63q78 0 130 -26.5t84 -83.5l-108 -77q-17 34 -42.5 48.5t-61.5 14.5q-54 0 -81.5 -29.5t-27.5 -109.5q0 -72 25 -107.5t83 -35.5q81 0 110 68l109 -62q-32 -62 -87 -93t-140 -31z M215 645q0 38 23 56.5t65 18.5t64 -18.5t22 -56.5t-22 -56.5t-64 -18.5t-65 18.5t-23 56.5z" />
<glyph unicode="&#x10c;" horiz-adv-x="709" d="M57 0zM403 851l62 57h124v-2l-124 -131h-131l-124 131v2h131zM393 -14q-171 0 -253.5 88.5t-82.5 276.5q0 191 85.5 277t255.5 86q106 0 174.5 -36.5t103.5 -121.5l-131 -68q-24 52 -58 71.5t-90 19.5q-42 0 -74.5 -10.5t-55 -37t-34 -71t-11.5 -111.5t11.5 -111.5 t34 -71.5t55.5 -38t75 -11q54 0 93 22.5t63 76.5l131 -65q-38 -82 -109 -123.5t-183 -41.5z" />
<glyph unicode="&#x10d;" horiz-adv-x="541" d="M42 0zM304 647l62 57h124v-2l-124 -131h-131l-124 131v2h131zM294 -14q-58 0 -104.5 15t-79.5 46.5t-50.5 81.5t-17.5 119q0 136 68 199t191 63q78 0 130 -26.5t84 -83.5l-108 -77q-17 34 -42.5 48.5t-61.5 14.5q-54 0 -81.5 -29.5t-27.5 -109.5q0 -72 25 -107.5 t83 -35.5q81 0 110 68l109 -62q-32 -62 -87 -93t-140 -31z" />
<glyph unicode="&#x10e;" horiz-adv-x="767" d="M93 0zM401 851l62 57h124v-2l-124 -131h-131l-124 131v2h131zM383 0h-290v700h301q163 0 240.5 -83.5t77.5 -261.5q0 -177 -80.5 -266t-248.5 -89zM257 132h114q40 0 73 11t55.5 37t35 68t12.5 104q0 115 -41.5 165.5t-120.5 50.5h-128v-436z" />
<glyph unicode="&#x10f;" horiz-adv-x="749" d="M41 0zM735 441h-102l7 259h128zM408 248q0 78 -31.5 111.5t-79.5 33.5q-51 0 -77 -34t-26 -112q0 -143 104 -143q48 0 79 34.5t31 109.5zM429 0l-8 77q-25 -45 -67.5 -68t-102.5 -23q-96 0 -153 65t-57 192q0 132 60 199.5t159 67.5q97 0 146 -68v258h158v-700h-135z" />
<glyph unicode="&#x110;" horiz-adv-x="783" d="M398 0h-289v288h-72v122h72v290h300q163 0 240.5 -83.5t77.5 -261.5q0 -177 -80.5 -266t-248.5 -89zM272 132h115q40 0 72.5 11t55.5 37t35.5 68t12.5 104q0 115 -41.5 165.5t-121.5 50.5h-128v-158h121v-122h-121v-156z" />
<glyph unicode="&#x111;" horiz-adv-x="645" d="M408 248q0 75 -30.5 108.5t-78.5 33.5q-51 0 -78 -34.5t-27 -108.5q0 -143 105 -143q48 0 78.5 35t30.5 109zM627 629v-83h-63v-546h-135l-9 81q-24 -45 -66.5 -70t-102.5 -25q-97 0 -153.5 64.5t-56.5 190.5q0 130 60 196.5t159 66.5q97 0 145 -65v107h-132v83h132v71 h159v-71h63z" />
<glyph unicode="&#x112;" horiz-adv-x="684" d="M93 0zM93 0v700h537v-129h-377v-153h326v-130h-326v-159h387v-129h-547zM515 880v-87h-289v87h289z" />
<glyph unicode="&#x113;" horiz-adv-x="572" d="M41 0zM299 -14q-59 0 -107 15.5t-81.5 48t-51.5 81t-18 114.5q0 126 66 195.5t188 69.5q62 0 106.5 -19.5t73 -53t41.5 -79.5t13 -99q0 -13 -1 -26t-3 -28h-334q5 -60 35.5 -85.5t84.5 -25.5q41 0 68.5 14t46.5 49l95 -58q-31 -58 -87.5 -85.5t-134.5 -27.5zM292 400 q-44 0 -70 -25t-31 -79h193q-6 104 -92 104zM434 677v-87h-289v87h289z" />
<glyph unicode="&#x114;" horiz-adv-x="684" d="M93 0zM93 0v700h537v-129h-377v-153h326v-130h-326v-159h387v-129h-547zM444 907h97q0 -40 -11.5 -67t-33.5 -43t-54 -23t-72 -7q-41 0 -72.5 7t-53.5 23t-33.5 43t-11.5 67h97q0 -36 18 -49t56 -13t56 13t18 49z" />
<glyph unicode="&#x115;" horiz-adv-x="572" d="M41 0zM299 -14q-59 0 -107 15.5t-81.5 48t-51.5 81t-18 114.5q0 126 66 195.5t188 69.5q62 0 106.5 -19.5t73 -53t41.5 -79.5t13 -99q0 -13 -1 -26t-3 -28h-334q5 -60 35.5 -85.5t84.5 -25.5q41 0 68.5 14t46.5 49l95 -58q-31 -58 -87.5 -85.5t-134.5 -27.5zM292 400 q-44 0 -70 -25t-31 -79h193q-6 104 -92 104zM362 704h97q0 -40 -11.5 -67t-33.5 -43t-54 -23t-72 -7q-41 0 -72.5 7t-53.5 23t-33.5 43t-11.5 67h97q0 -36 18 -49t56 -13t56 13t18 49z" />
<glyph unicode="&#x116;" horiz-adv-x="684" d="M93 0zM93 0v700h537v-129h-377v-153h326v-130h-326v-159h387v-129h-547zM283 848q0 38 23 56.5t65 18.5t64 -18.5t22 -56.5t-22 -56.5t-64 -18.5t-65 18.5t-23 56.5z" />
<glyph unicode="&#x117;" horiz-adv-x="572" d="M41 0zM299 -14q-59 0 -107 15.5t-81.5 48t-51.5 81t-18 114.5q0 126 66 195.5t188 69.5q62 0 106.5 -19.5t73 -53t41.5 -79.5t13 -99q0 -13 -1 -26t-3 -28h-334q5 -60 35.5 -85.5t84.5 -25.5q41 0 68.5 14t46.5 49l95 -58q-31 -58 -87.5 -85.5t-134.5 -27.5zM292 400 q-44 0 -70 -25t-31 -79h193q-6 104 -92 104zM201 645q0 38 23 56.5t65 18.5t64 -18.5t22 -56.5t-22 -56.5t-64 -18.5t-65 18.5t-23 56.5z" />
<glyph unicode="&#x118;" horiz-adv-x="684" d="M93 0v700h537v-128h-378v-154h327v-130h-327v-159h388v-129q-52 -4 -75 -31t-23 -59q0 -29 18.5 -40t44.5 -11q38 0 68 17l21 -78q-42 -27 -100 -27q-27 0 -53 6t-46 20.5t-32.5 38t-12.5 59.5q0 33 12 59.5t32 45.5h-401z" />
<glyph unicode="&#x119;" horiz-adv-x="572" d="M233 -106q0 29 8.5 52.5t23.5 41.5q-104 8 -164 71.5t-60 185.5q0 126 66 195.5t188 69.5q62 0 106.5 -19.5t73 -53t41.5 -79.5t13 -99q0 -13 -1 -26t-3 -28h-335q6 -60 37 -85.5t84 -25.5q41 0 68.5 14t46.5 49l95 -58q-21 -41 -56 -66.5t-80 -36.5q-28 -11 -43.5 -33 t-15.5 -51q0 -31 18.5 -42t45.5 -11q37 0 67 17l21 -78q-42 -27 -100 -27q-27 0 -53 6t-46.5 20.5t-33 38t-12.5 58.5zM292 400q-44 0 -70.5 -25t-31.5 -79h194q-4 104 -92 104z" />
<glyph unicode="&#x11a;" horiz-adv-x="684" d="M93 0zM374 851l62 57h124v-2l-124 -131h-131l-124 131v2h131zM93 0v700h537v-129h-377v-153h326v-130h-326v-159h387v-129h-547z" />
<glyph unicode="&#x11b;" horiz-adv-x="572" d="M41 0zM293 647l62 57h124v-2l-124 -131h-131l-124 131v2h131zM299 -14q-59 0 -107 15.5t-81.5 48t-51.5 81t-18 114.5q0 126 66 195.5t188 69.5q62 0 106.5 -19.5t73 -53t41.5 -79.5t13 -99q0 -13 -1 -26t-3 -28h-334q5 -60 35.5 -85.5t84.5 -25.5q41 0 68.5 14t46.5 49 l95 -58q-31 -58 -87.5 -85.5t-134.5 -27.5zM292 400q-44 0 -70 -25t-31 -79h193q-6 104 -92 104z" />
<glyph unicode="&#x11c;" horiz-adv-x="750" d="M57 0zM396 833l-61 -58h-125v4l123 129h131l125 -129v-4h-132zM369 -14q-73 0 -131 22t-98 67.5t-61.5 114t-21.5 161.5q0 190 85.5 276.5t255.5 86.5q104 0 171 -35t102 -114l-131 -70q-24 47 -56.5 65.5t-86.5 18.5q-42 0 -75 -11t-55 -37t-33.5 -70t-11.5 -111 t11.5 -112t34 -72t55.5 -38.5t76 -11.5q26 0 51 7t45.5 22.5t34 40.5t16.5 62v8h-146v122h294v-378h-116l-10 86q-28 -47 -79 -73.5t-120 -26.5z" />
<glyph unicode="&#x11d;" horiz-adv-x="630" d="M40 0zM291 629l-61 -58h-125v4l123 129h131l125 -129v-4h-132zM405 259q0 69 -31 102t-79 33q-104 0 -104 -136q0 -71 26.5 -104t77.5 -33q50 0 80 34t30 104zM561 497v-477q0 -62 -21 -107.5t-58 -75t-88 -44t-112 -14.5q-37 0 -71.5 6t-64 18.5t-53 33.5t-38.5 51 l89 77q23 -40 56.5 -56.5t75.5 -16.5q60 0 94 30t34 96v71q-47 -83 -156 -83q-94 0 -151 62.5t-57 187.5q0 127 59 190.5t158 63.5q56 0 97.5 -21t65.5 -64l13 72h128z" />
<glyph unicode="&#x11e;" horiz-adv-x="750" d="M57 0zM369 -14q-73 0 -131 22t-98 67.5t-61.5 114t-21.5 161.5q0 190 85.5 276.5t255.5 86.5q104 0 171 -35t102 -114l-131 -70q-24 47 -56.5 65.5t-86.5 18.5q-42 0 -75 -11t-55 -37t-33.5 -70t-11.5 -111t11.5 -112t34 -72t55.5 -38.5t76 -11.5q26 0 51 7t45.5 22.5 t34 40.5t16.5 62v8h-146v122h294v-378h-116l-10 86q-28 -47 -79 -73.5t-120 -26.5zM471 908h97q0 -40 -11.5 -67t-33.5 -43t-54 -23t-72 -7q-41 0 -72.5 7t-53.5 23t-33.5 43t-11.5 67h97q0 -36 18 -49t56 -13t56 13t18 49z" />
<glyph unicode="&#x11f;" horiz-adv-x="630" d="M40 0zM405 259q0 69 -31 102t-79 33q-104 0 -104 -136q0 -71 26.5 -104t77.5 -33q50 0 80 34t30 104zM561 497v-477q0 -62 -21 -107.5t-58 -75t-88 -44t-112 -14.5q-37 0 -71.5 6t-64 18.5t-53 33.5t-38.5 51l89 77q23 -40 56.5 -56.5t75.5 -16.5q60 0 94 30t34 96v71 q-47 -83 -156 -83q-94 0 -151 62.5t-57 187.5q0 127 59 190.5t158 63.5q56 0 97.5 -21t65.5 -64l13 72h128zM365 704h97q0 -40 -11.5 -67t-33.5 -43t-54 -23t-72 -7q-41 0 -72.5 7t-53.5 23t-33.5 43t-11.5 67h97q0 -36 18 -49t56 -13t56 13t18 49z" />
<glyph unicode="&#x120;" horiz-adv-x="750" d="M57 0zM369 -14q-73 0 -131 22t-98 67.5t-61.5 114t-21.5 161.5q0 190 85.5 276.5t255.5 86.5q104 0 171 -35t102 -114l-131 -70q-24 47 -56.5 65.5t-86.5 18.5q-42 0 -75 -11t-55 -37t-33.5 -70t-11.5 -111t11.5 -112t34 -72t55.5 -38.5t76 -11.5q26 0 51 7t45.5 22.5 t34 40.5t16.5 62v8h-146v122h294v-378h-116l-10 86q-28 -47 -79 -73.5t-120 -26.5zM310 849q0 38 23 56.5t65 18.5t64 -18.5t22 -56.5t-22 -56.5t-64 -18.5t-65 18.5t-23 56.5z" />
<glyph unicode="&#x121;" horiz-adv-x="630" d="M40 0zM405 259q0 69 -31 102t-79 33q-104 0 -104 -136q0 -71 26.5 -104t77.5 -33q50 0 80 34t30 104zM561 497v-477q0 -62 -21 -107.5t-58 -75t-88 -44t-112 -14.5q-37 0 -71.5 6t-64 18.5t-53 33.5t-38.5 51l89 77q23 -40 56.5 -56.5t75.5 -16.5q60 0 94 30t34 96v71 q-47 -83 -156 -83q-94 0 -151 62.5t-57 187.5q0 127 59 190.5t158 63.5q56 0 97.5 -21t65.5 -64l13 72h128zM204 645q0 38 23 56.5t65 18.5t64 -18.5t22 -56.5t-22 -56.5t-64 -18.5t-65 18.5t-23 56.5z" />
<glyph unicode="&#x122;" horiz-adv-x="750" d="M57 0zM334 -333l-28 58q32 8 53 27.5t28 46.5h-2q-38 0 -60.5 18t-22.5 53q0 38 22 56.5t62 18.5q41 0 64 -24t23 -75q0 -34 -10 -64t-28 -53.5t-43.5 -39.5t-57.5 -22zM369 -14q-73 0 -131 22t-98 67.5t-61.5 114t-21.5 161.5q0 190 85.5 276.5t255.5 86.5 q104 0 171 -35t102 -114l-131 -70q-24 47 -56.5 65.5t-86.5 18.5q-42 0 -75 -11t-55 -37t-33.5 -70t-11.5 -111t11.5 -112t34 -72t55.5 -38.5t76 -11.5q26 0 51 7t45.5 22.5t34 40.5t16.5 62v8h-146v122h294v-378h-116l-10 86q-28 -47 -79 -73.5t-120 -26.5z" />
<glyph unicode="&#x123;" horiz-adv-x="630" d="M345 838l28 -58q-32 -8 -53 -27.5t-28 -46.5h2q38 0 60.5 -18t22.5 -53q0 -38 -22 -56.5t-62 -18.5q-41 0 -64 24t-23 75q0 34 10 64t28 53.5t43.5 39.5t57.5 22zM405 259q0 69 -31 102t-79 33q-104 0 -104 -136q0 -71 26.5 -104t77.5 -33q50 0 80 34t30 104zM561 497 v-477q0 -62 -21 -107.5t-58 -75t-88 -44t-112 -14.5q-37 0 -71.5 6t-64 18.5t-53 33.5t-38.5 51l89 77q23 -40 56.5 -56.5t75.5 -16.5q60 0 94 30t34 96v71q-47 -83 -156 -83q-94 0 -151 62.5t-57 187.5q0 127 59 190.5t158 63.5q56 0 97.5 -21t65.5 -64l13 72h128z" />
<glyph unicode="&#x124;" horiz-adv-x="815" d="M93 0zM406 833l-61 -58h-125v4l123 129h131l125 -129v-4h-132zM558 0v280h-301v-280h-164v700h164v-280h301v280h164v-700h-164z" />
<glyph unicode="&#x125;" horiz-adv-x="646" d="M0 0zM148 814l-61 -58h-125v4l123 129h131l125 -129v-4h-132zM227 700v-294q26 52 72.5 78t102.5 26q46 0 80 -14t56.5 -40t33 -62.5t10.5 -81.5v-312h-158v259q0 65 -22.5 89.5t-65.5 24.5q-48 0 -78 -32t-31 -97v-244h-158v700h158z" />
<glyph unicode="&#x126;" horiz-adv-x="835" d="M267 420h301v81h-301v-81zM568 0v280h-301v-280h-164v501h-66v85h66v114h164v-114h301v114h164v-114h65v-85h-65v-501h-164z" />
<glyph unicode="&#x127;" horiz-adv-x="659" d="M19 546v83h63v71h157v-71h133v-83h-133v-146q27 54 73.5 80t102.5 26q85 0 132 -50t47 -150v-306h-158v250q0 65 -22 90.5t-65 25.5q-48 0 -78 -32.5t-32 -98.5v-235h-157v546h-63z" />
<glyph unicode="&#x128;" horiz-adv-x="350" d="M0 0zM93 0v700h164v-700h-164zM262 903h95q3 -35 -6 -58.5t-24 -37.5t-34 -20t-38 -6q-23 0 -42 5.5t-36 11.5t-32 11.5t-29 5.5q-17 0 -22.5 -10.5t-5.5 -23.5h-95q-2 35 6.5 58.5t23.5 38t34 20.5t38 6q23 0 42 -5.5t36 -12t32 -12t29 -5.5q18 0 23 10t5 24z" />
<glyph unicode="&#x129;" horiz-adv-x="298" d="M0 0zM70 497h158v-497h-158v497zM235 700h95q3 -35 -6 -58.5t-24 -37.5t-34 -20t-38 -6q-23 0 -42 5.5t-36 11.5t-32 11.5t-29 5.5q-17 0 -22.5 -10.5t-5.5 -23.5h-95q-2 35 6.5 58.5t23.5 38t34 20.5t38 6q23 0 42 -5.5t36 -12t32 -12t29 -5.5q18 0 23 10t5 24z" />
<glyph unicode="&#x12a;" horiz-adv-x="350" d="M31 0zM93 0v700h164v-700h-164zM320 880v-87h-289v87h289z" />
<glyph unicode="&#x12b;" horiz-adv-x="298" d="M5 0zM70 497h158v-497h-158v497zM294 677v-87h-289v87h289z" />
<glyph unicode="&#x12c;" horiz-adv-x="350" d="M4 0zM93 0v700h164v-700h-164zM249 907h97q0 -40 -11.5 -67t-33.5 -43t-54 -23t-72 -7q-41 0 -72.5 7t-53.5 23t-33.5 43t-11.5 67h97q0 -36 18 -49t56 -13t56 13t18 49z" />
<glyph unicode="&#x12d;" horiz-adv-x="298" d="M0 0zM70 497h158v-497h-158v497zM223 704h97q0 -40 -11.5 -67t-33.5 -43t-54 -23t-72 -7q-41 0 -72.5 7t-53.5 23t-33.5 43t-11.5 67h97q0 -36 18 -49t56 -13t56 13t18 49z" />
<glyph unicode="&#x12e;" horiz-adv-x="350" d="M138 -229q-27 0 -53 6t-46.5 20.5t-33 38t-12.5 59.5q0 54 29 89t71 51v665h164v-700h-80q-48 -4 -69.5 -31t-21.5 -59q0 -29 18.5 -40t44.5 -11q18 0 35 4t32 13l22 -78q-44 -27 -100 -27z" />
<glyph unicode="&#x12f;" horiz-adv-x="298" d="M58 643q0 43 23.5 62.5t67.5 19.5t67.5 -19.5t23.5 -62.5q0 -42 -23.5 -61.5t-67.5 -19.5t-67.5 19.5t-23.5 61.5zM113 -229q-27 0 -52.5 6t-46 20.5t-33 38t-12.5 59.5q0 54 29.5 89.5t71.5 51.5v461h158v-497h-76q-24 -2 -41 -10.5t-28 -21t-16 -27.5t-5 -31 q0 -29 18.5 -40t44.5 -11q17 0 34.5 4t32.5 13l22 -78q-44 -27 -101 -27z" />
<glyph unicode="&#x130;" horiz-adv-x="350" d="M88 0zM93 0v700h164v-700h-164zM88 848q0 38 23 56.5t65 18.5t64 -18.5t22 -56.5t-22 -56.5t-64 -18.5t-65 18.5t-23 56.5z" />
<glyph unicode="&#x131;" horiz-adv-x="298" d="M70 497h158v-497h-158v497z" />
<glyph unicode="&#x132;" horiz-adv-x="897" d="M94 0zM94 0v700h164v-700h-164zM541 -14q-47 0 -96.5 14t-91.5 48l66 114q26 -22 57.5 -33t62.5 -11q54 0 85.5 32.5t31.5 110.5v439h165v-438q0 -77 -21 -129.5t-58 -85t-88.5 -47t-112.5 -14.5z" />
<glyph unicode="&#x133;" horiz-adv-x="596" d="M58 0zM58 643q0 43 23.5 62.5t67.5 19.5t67.5 -19.5t23.5 -62.5q0 -42 -23.5 -61.5t-67.5 -19.5t-67.5 19.5t-23.5 61.5zM70 497h158v-497h-158v497zM356 643q0 43 23.5 62.5t67.5 19.5t67.5 -19.5t23.5 -62.5q0 -42 -23.5 -61.5t-67.5 -19.5t-67.5 19.5t-23.5 61.5z M368 -20v517h158v-527q0 -49 -14 -85t-39.5 -59.5t-61 -35t-78.5 -11.5q-26 0 -53.5 5t-52.5 17l25 105q12 -5 24 -8t28 -3q32 0 48 18.5t16 66.5z" />
<glyph unicode="&#x134;" horiz-adv-x="544" d="M0 0zM387 832l-61 -58h-125v4l123 129h131l125 -129v-4h-132zM188 -14q-47 0 -96.5 14t-91.5 48l66 114q26 -22 57.5 -33t62.5 -11q54 0 85.5 32.5t31.5 110.5v439h165v-438q0 -77 -21 -129.5t-58 -85t-88.5 -47t-112.5 -14.5z" />
<glyph unicode="&#x135;" horiz-adv-x="298" d="M0 0zM70 -20v517h158v-527q0 -49 -14 -85t-39.5 -59.5t-61 -35t-78.5 -11.5q-26 0 -53.5 5t-52.5 17l25 105q12 -5 24 -8t28 -3q32 0 48 18.5t16 66.5zM147 629l-61 -58h-125v4l123 129h131l125 -129v-4h-132z" />
<glyph unicode="&#x136;" horiz-adv-x="719" d="M93 0zM329 -333l-28 58q32 8 53 27.5t28 46.5h-2q-38 0 -60.5 18t-22.5 53q0 38 22 56.5t62 18.5q41 0 64 -24t23 -75q0 -34 -10 -64t-28 -53.5t-43.5 -39.5t-57.5 -22zM93 0v700h164l-1 -328l261 328h193l-259 -311l260 -389h-197l-175 270l-82 -94v-176h-164z" />
<glyph unicode="&#x137;" horiz-adv-x="584" d="M69 0zM258 -333l-28 58q32 8 53 27.5t28 46.5h-2q-38 0 -60.5 18t-22.5 53q0 38 22 56.5t62 18.5q41 0 64 -24t23 -75q0 -34 -10 -64t-28 -53.5t-43.5 -39.5t-57.5 -22zM69 0v700h157l-4 -430l184 227h171l-189 -221l191 -276h-174l-119 174l-61 -67v-107h-156z" />
<glyph unicode="&#x138;" horiz-adv-x="584" d="M69 0v497h155l-1 -227l183 227h171l-189 -221l191 -276h-174l-119 174l-61 -67v-107h-156z" />
<glyph unicode="&#x139;" horiz-adv-x="646" d="M93 0zM354 901l-129 -127h-122v5l81 128h170v-6zM258 136h362v-136h-527v700h165v-564z" />
<glyph unicode="&#x13a;" horiz-adv-x="311" d="M65 0zM323 902l-129 -127h-122v5l81 128h170v-6zM209 0q-69 0 -106.5 32t-37.5 109v559h158v-538q0 -24 8.5 -34.5t34.5 -10.5h32v-117h-89z" />
<glyph unicode="&#x13b;" horiz-adv-x="646" d="M93 0zM307 -333l-28 58q32 8 53 27.5t28 46.5h-2q-38 0 -60.5 18t-22.5 53q0 38 22 56.5t62 18.5q41 0 64 -24t23 -75q0 -34 -10 -64t-28 -53.5t-43.5 -39.5t-57.5 -22zM258 136h362v-136h-527v700h165v-564z" />
<glyph unicode="&#x13c;" horiz-adv-x="311" d="M65 0zM209 0q-69 0 -106.5 32t-37.5 109v559h158v-538q0 -24 8.5 -34.5t34.5 -10.5h32v-117h-89zM126 -333l-28 58q32 8 53 27.5t28 46.5h-2q-38 0 -60.5 18t-22.5 53q0 38 22 56.5t62 18.5q41 0 64 -24t23 -75q0 -34 -10 -64t-28 -53.5t-43.5 -39.5t-57.5 -22z" />
<glyph unicode="&#x13d;" horiz-adv-x="646" d="M93 0zM502 441h-102l7 259h128zM258 136h362v-136h-527v700h165v-564z" />
<glyph unicode="&#x13e;" horiz-adv-x="415" d="M65 0zM401 441h-102l7 259h128zM209 0q-69 0 -106.5 32t-37.5 109v559h158v-538q0 -24 8.5 -34.5t34.5 -10.5h32v-117h-89z" />
<glyph unicode="&#x13f;" horiz-adv-x="646" d="M93 0zM258 136h362v-136h-527v700h165v-564zM399 361q0 38 23 56.5t65 18.5t64 -18.5t22 -56.5t-22 -56.5t-64 -18.5t-65 18.5t-23 56.5z" />
<glyph unicode="&#x140;" horiz-adv-x="437" d="M65 0zM209 0q-69 0 -106.5 32t-37.5 109v559h158v-538q0 -24 8.5 -34.5t34.5 -10.5h32v-117h-89zM277 304q0 38 23 56.5t65 18.5t64 -18.5t22 -56.5t-22 -56.5t-64 -18.5t-65 18.5t-23 56.5z" />
<glyph unicode="&#x141;" horiz-adv-x="663" d="M275 136h363v-136h-527v218l-88 -50v127l88 50v355h164v-273l166 91v-128l-166 -90v-164z" />
<glyph unicode="&#x142;" horiz-adv-x="327" d="M323 0h-94q-69 0 -106.5 32t-37.5 109v82l-82 -60v128l82 60v349h158v-249l87 65v-128l-87 -63v-163q0 -24 8.5 -34.5t34.5 -10.5h37v-117z" />
<glyph unicode="&#x143;" horiz-adv-x="808" d="M93 0zM582 902l-129 -127h-122v5l81 128h170v-6zM572 0l-328 444l4 -444h-155v700h129l342 -467l-4 467h156v-700h-144z" />
<glyph unicode="&#x144;" horiz-adv-x="646" d="M69 0zM523 698l-129 -127h-122v5l81 128h170v-6zM69 497h131l13 -90q29 51 76.5 77t107.5 26q48 0 83 -14t57.5 -40t33.5 -62.5t11 -81.5v-312h-158v259q0 65 -22 89.5t-66 24.5q-48 0 -78 -32t-31 -97v-244h-158v497z" />
<glyph unicode="&#x145;" horiz-adv-x="808" d="M93 0zM355 -333l-28 58q32 8 53 27.5t28 46.5h-2q-38 0 -60.5 18t-22.5 53q0 38 22 56.5t62 18.5q41 0 64 -24t23 -75q0 -34 -10 -64t-28 -53.5t-43.5 -39.5t-57.5 -22zM572 0l-328 444l4 -444h-155v700h129l342 -467l-4 467h156v-700h-144z" />
<glyph unicode="&#x146;" horiz-adv-x="646" d="M69 0zM279 -333l-28 58q32 8 53 27.5t28 46.5h-2q-38 0 -60.5 18t-22.5 53q0 38 22 56.5t62 18.5q41 0 64 -24t23 -75q0 -34 -10 -64t-28 -53.5t-43.5 -39.5t-57.5 -22zM69 497h131l13 -90q29 51 76.5 77t107.5 26q48 0 83 -14t57.5 -40t33.5 -62.5t11 -81.5v-312h-158 v259q0 65 -22 89.5t-66 24.5q-48 0 -78 -32t-31 -97v-244h-158v497z" />
<glyph unicode="&#x147;" horiz-adv-x="808" d="M93 0zM408 851l62 57h124v-2l-124 -131h-131l-124 131v2h131zM572 0l-328 444l4 -444h-155v700h129l342 -467l-4 467h156v-700h-144z" />
<glyph unicode="&#x148;" horiz-adv-x="646" d="M69 0zM348 647l62 57h124v-2l-124 -131h-131l-124 131v2h131zM69 497h131l13 -90q29 51 76.5 77t107.5 26q48 0 83 -14t57.5 -40t33.5 -62.5t11 -81.5v-312h-158v259q0 65 -22 89.5t-66 24.5q-48 0 -78 -32t-31 -97v-244h-158v497z" />
<glyph unicode="&#x14a;" horiz-adv-x="808" d="M559 -20v34l-315 430l4 -444h-155v700h129l342 -467l-4 467h156v-730q0 -49 -14 -85t-39.5 -59.5t-61 -35t-78.5 -11.5q-26 0 -53.5 5t-53.5 17l25 105q13 -5 25 -8t28 -3q33 0 49 18.5t16 66.5z" />
<glyph unicode="&#x14b;" horiz-adv-x="646" d="M424 -20v279q0 65 -22 89.5t-66 24.5q-48 0 -78 -32t-31 -97v-244h-158v497h131l14 -89q28 52 75.5 77t107.5 25q48 0 83 -14t57.5 -40t33.5 -62.5t11 -81.5v-342q0 -98 -53 -144.5t-139 -46.5q-26 0 -53.5 5t-53.5 17l25 105q12 -5 24.5 -8t28.5 -3q32 0 47.5 18.5 t15.5 66.5z" />
<glyph unicode="&#x14c;" horiz-adv-x="793" d="M57 0zM539 881v-87h-289v87h289zM396 -14q-177 0 -258 90t-81 275t83.5 274t256.5 89q179 0 259 -89.5t80 -274.5t-84 -274.5t-256 -89.5zM396 580q-43 0 -75.5 -11.5t-54.5 -38.5t-33 -71t-11 -110q0 -64 11 -108t33 -71t54.5 -39t75.5 -12t75.5 12t54.5 39t33 71.5 t11 109.5q0 64 -11 108t-33 71t-54.5 38.5t-75.5 11.5z" />
<glyph unicode="&#x14d;" horiz-adv-x="606" d="M42 0zM448 677v-87h-289v87h289zM42 249q0 134 69 197.5t192 63.5q132 0 196.5 -62.5t64.5 -198.5q0 -132 -66 -197.5t-195 -65.5q-130 0 -195.5 64.5t-65.5 198.5zM414 248q0 78 -26 111t-85 33q-60 0 -86 -33t-26 -111t27 -112t85 -34q57 0 84 34t27 112z" />
<glyph unicode="&#x14e;" horiz-adv-x="793" d="M57 0zM396 -14q-177 0 -258 90t-81 275t83.5 274t256.5 89q179 0 259 -89.5t80 -274.5t-84 -274.5t-256 -89.5zM396 580q-43 0 -75.5 -11.5t-54.5 -38.5t-33 -71t-11 -110q0 -64 11 -108t33 -71t54.5 -39t75.5 -12t75.5 12t54.5 39t33 71.5t11 109.5q0 64 -11 108t-33 71 t-54.5 38.5t-75.5 11.5zM468 908h97q0 -40 -11.5 -67t-33.5 -43t-54 -23t-72 -7q-41 0 -72.5 7t-53.5 23t-33.5 43t-11.5 67h97q0 -36 18 -49t56 -13t56 13t18 49z" />
<glyph unicode="&#x14f;" horiz-adv-x="606" d="M42 0zM42 249q0 134 69 197.5t192 63.5q132 0 196.5 -62.5t64.5 -198.5q0 -132 -66 -197.5t-195 -65.5q-130 0 -195.5 64.5t-65.5 198.5zM414 248q0 78 -26 111t-85 33q-60 0 -86 -33t-26 -111t27 -112t85 -34q57 0 84 34t27 112zM377 704h97q0 -40 -11.5 -67t-33.5 -43 t-54 -23t-72 -7q-41 0 -72.5 7t-53.5 23t-33.5 43t-11.5 67h97q0 -36 18 -49t56 -13t56 13t18 49z" />
<glyph unicode="&#x150;" horiz-adv-x="793" d="M57 0zM661 903l-130 -128h-115v5l79 128h166v-5zM457 902l-112 -127h-107v5l68 128h151v-6zM396 -14q-177 0 -258 90t-81 275t83.5 274t256.5 89q179 0 259 -89.5t80 -274.5t-84 -274.5t-256 -89.5zM396 580q-43 0 -75.5 -11.5t-54.5 -38.5t-33 -71t-11 -110 q0 -64 11 -108t33 -71t54.5 -39t75.5 -12t75.5 12t54.5 39t33 71.5t11 109.5q0 64 -11 108t-33 71t-54.5 38.5t-75.5 11.5z" />
<glyph unicode="&#x151;" horiz-adv-x="606" d="M42 0zM568 699l-130 -128h-115v5l79 128h166v-5zM364 698l-112 -127h-107v5l68 128h151v-6zM42 249q0 134 69 197.5t192 63.5q132 0 196.5 -62.5t64.5 -198.5q0 -132 -66 -197.5t-195 -65.5q-130 0 -195.5 64.5t-65.5 198.5zM414 248q0 78 -26 111t-85 33q-60 0 -86 -33 t-26 -111t27 -112t85 -34q57 0 84 34t27 112z" />
<glyph unicode="&#x152;" horiz-adv-x="1100" d="M1056 0h-671q-164 0 -246.5 86.5t-82.5 265.5q0 176 80.5 262t250.5 86h659v-129h-373v-153h323v-130h-323v-159h383v-129zM386 132h126v436h-121q-41 0 -73 -11.5t-53.5 -37.5t-32.5 -67.5t-11 -101.5q0 -118 42.5 -168t122.5 -50z" />
<glyph unicode="&#x153;" horiz-adv-x="945" d="M41 249q0 134 69.5 197.5t192.5 63.5q125 0 186 -64q32 31 78 47.5t104 16.5q62 0 106 -19.5t72.5 -53t42 -79.5t13.5 -99q0 -13 -1 -26t-3 -28h-335q5 -60 36 -85.5t85 -25.5q42 0 69 14t45 49l96 -58q-31 -58 -88 -85.5t-134 -27.5q-60 0 -108 16t-81 48 q-63 -64 -183 -64q-131 0 -196.5 64.5t-65.5 198.5zM566 296h194q-6 104 -92 104q-44 0 -70.5 -25t-31.5 -79zM302 102q57 0 84.5 34t27.5 112t-26 111t-86 33q-59 0 -85 -33t-26 -111t27 -112t84 -34z" />
<glyph unicode="&#x154;" horiz-adv-x="714" d="M93 0zM560 902l-129 -127h-122v5l81 128h170v-6zM407 565h-153v-204h150q49 0 76.5 26.5t27.5 78.5q0 44 -23.5 71.5t-77.5 27.5zM254 230v-230h-161v700h341q118 0 177.5 -62.5t59.5 -167.5q0 -78 -30.5 -130.5t-87.5 -78.5l126 -261h-180l-106 230h-139z" />
<glyph unicode="&#x155;" horiz-adv-x="411" d="M69 0zM405 698l-129 -127h-122v5l81 128h170v-6zM69 0v497h131l13 -99q26 55 72 84.5t106 27.5l1 -150q-83 7 -123.5 -38t-41.5 -125v-197h-158z" />
<glyph unicode="&#x156;" horiz-adv-x="714" d="M93 0zM317 -333l-28 58q32 8 53 27.5t28 46.5h-2q-38 0 -60.5 18t-22.5 53q0 38 22 56.5t62 18.5q41 0 64 -24t23 -75q0 -34 -10 -64t-28 -53.5t-43.5 -39.5t-57.5 -22zM407 565h-153v-204h150q49 0 76.5 26.5t27.5 78.5q0 44 -23.5 71.5t-77.5 27.5zM254 230v-230h-161 v700h341q118 0 177.5 -62.5t59.5 -167.5q0 -78 -30.5 -130.5t-87.5 -78.5l126 -261h-180l-106 230h-139z" />
<glyph unicode="&#x157;" horiz-adv-x="411" d="M66 0zM98 -333l-28 58q32 8 53 27.5t28 46.5h-2q-38 0 -60.5 18t-22.5 53q0 38 22 56.5t62 18.5q41 0 64 -24t23 -75q0 -34 -10 -64t-28 -53.5t-43.5 -39.5t-57.5 -22zM69 0v497h131l13 -99q26 55 72 84.5t106 27.5l1 -150q-83 7 -123.5 -38t-41.5 -125v-197h-158z" />
<glyph unicode="&#x158;" horiz-adv-x="714" d="M93 0zM386 851l62 57h124v-2l-124 -131h-131l-124 131v2h131zM407 565h-153v-204h150q49 0 76.5 26.5t27.5 78.5q0 44 -23.5 71.5t-77.5 27.5zM254 230v-230h-161v700h341q118 0 177.5 -62.5t59.5 -167.5q0 -78 -30.5 -130.5t-87.5 -78.5l126 -261h-180l-106 230h-139z " />
<glyph unicode="&#x159;" horiz-adv-x="411" d="M47 0zM240 647l62 57h124v-2l-124 -131h-131l-124 131v2h131zM69 0v497h131l13 -99q26 55 72 84.5t106 27.5l1 -150q-83 7 -123.5 -38t-41.5 -125v-197h-158z" />
<glyph unicode="&#x15a;" horiz-adv-x="637" d="M24 0zM493 902l-129 -127h-122v5l81 128h170v-6zM577 583l-112 -74q-25 38 -60 60t-91 22q-62 0 -88.5 -21.5t-26.5 -55.5q0 -15 4 -28t15.5 -24t31 -20.5t49.5 -16.5l70 -16q119 -27 171 -78t52 -130q0 -102 -73.5 -158.5t-210.5 -56.5q-44 0 -85.5 6.5t-78 22t-67 41.5 t-53.5 65l107 79q30 -49 73.5 -74t103.5 -25q130 0 130 83q0 31 -21.5 51.5t-82.5 34.5l-69 16q-117 27 -166 83.5t-49 133.5q0 45 17.5 83.5t51.5 67t83 44.5t111 16q91 0 157.5 -29.5t106.5 -101.5z" />
<glyph unicode="&#x15b;" horiz-adv-x="510" d="M22 0zM429 698l-129 -127h-122v5l81 128h170v-6zM248 89q41 0 60 11.5t19 30.5q0 20 -15 29t-52 17l-42 9q-171 36 -171 162q0 33 12.5 62.5t38.5 51.5t65.5 35t93.5 13q72 0 122.5 -20.5t85.5 -65.5l-81 -82q-23 28 -54.5 43t-72.5 15q-35 0 -54 -10t-19 -30 q0 -17 14.5 -28t49.5 -18l58 -12q85 -17 123 -56.5t38 -96.5q0 -33 -11.5 -62.5t-38 -52t-68.5 -35.5t-102 -13q-78 0 -135.5 23t-89.5 74l79 78q24 -35 62 -53.5t85 -18.5z" />
<glyph unicode="&#x15c;" horiz-adv-x="637" d="M24 0zM312 832l-61 -58h-125v4l123 129h131l125 -129v-4h-132zM577 583l-112 -74q-25 38 -60 60t-91 22q-62 0 -88.5 -21.5t-26.5 -55.5q0 -15 4 -28t15.5 -24t31 -20.5t49.5 -16.5l70 -16q119 -27 171 -78t52 -130q0 -102 -73.5 -158.5t-210.5 -56.5q-44 0 -85.5 6.5 t-78 22t-67 41.5t-53.5 65l107 79q30 -49 73.5 -74t103.5 -25q130 0 130 83q0 31 -21.5 51.5t-82.5 34.5l-69 16q-117 27 -166 83.5t-49 133.5q0 45 17.5 83.5t51.5 67t83 44.5t111 16q91 0 157.5 -29.5t106.5 -101.5z" />
<glyph unicode="&#x15d;" horiz-adv-x="510" d="M22 0zM246 629l-61 -58h-125v4l123 129h131l125 -129v-4h-132zM248 89q41 0 60 11.5t19 30.5q0 20 -15 29t-52 17l-42 9q-171 36 -171 162q0 33 12.5 62.5t38.5 51.5t65.5 35t93.5 13q72 0 122.5 -20.5t85.5 -65.5l-81 -82q-23 28 -54.5 43t-72.5 15q-35 0 -54 -10 t-19 -30q0 -17 14.5 -28t49.5 -18l58 -12q85 -17 123 -56.5t38 -96.5q0 -33 -11.5 -62.5t-38 -52t-68.5 -35.5t-102 -13q-78 0 -135.5 23t-89.5 74l79 78q24 -35 62 -53.5t85 -18.5z" />
<glyph unicode="&#x15e;" horiz-adv-x="637" d="M308 -251q-45 0 -82 17t-59 52l54 55q15 -23 33.5 -35.5t47.5 -12.5q21 0 35.5 8.5t14.5 27.5q0 17 -14 27t-39 10q-6 0 -11.5 -0.5t-11.5 -1.5l-23 15l25 76q-80 4 -146 33.5t-108 100.5l107 79q30 -49 73.5 -74t103.5 -25q130 0 130 83q0 31 -21.5 51.5t-82.5 34.5 l-69 16q-117 27 -166 83.5t-49 133.5q0 45 17.5 83.5t51.5 67t83 44.5t111 16q91 0 157.5 -29.5t106.5 -101.5l-112 -74q-25 38 -60 60t-91 22q-62 0 -88.5 -21.5t-26.5 -55.5q0 -15 4 -28t15.5 -24t31 -20.5t49.5 -16.5l70 -16q119 -27 171 -78t52 -130q0 -92 -60.5 -147 t-173.5 -66l-14 -38h1q20 -2 38.5 -8t32.5 -17.5t22.5 -28t8.5 -38.5q0 -28 -11.5 -48.5t-30.5 -34t-44 -20t-53 -6.5z" />
<glyph unicode="&#x15f;" horiz-adv-x="510" d="M234 -251q-45 0 -82 17t-59 52l54 55q15 -23 33.5 -35.5t47.5 -12.5q21 0 35.5 8.5t14.5 27.5q0 17 -14 27t-39 10q-6 0 -11.5 -0.5t-11.5 -1.5l-23 15l25 77q-62 5 -108 28.5t-74 66.5l79 78q24 -35 62 -53.5t85 -18.5q41 0 60 11.5t19 30.5q0 20 -15 29t-52 17l-42 9 q-171 36 -171 162q0 33 12.5 62.5t38.5 51.5t65.5 35t93.5 13q72 0 122.5 -20.5t85.5 -65.5l-81 -82q-23 28 -54.5 43t-72.5 15q-35 0 -54 -10t-19 -30q0 -17 14.5 -28t49.5 -18l58 -12q85 -17 123 -56.5t38 -96.5q0 -30 -10 -58t-32 -49.5t-57 -36t-85 -18.5l-13 -37h1 q20 -2 38.5 -8t32.5 -17.5t22.5 -28t8.5 -38.5q0 -28 -11.5 -48.5t-30.5 -34t-44 -20t-53 -6.5z" />
<glyph unicode="&#x160;" horiz-adv-x="637" d="M24 0zM319 851l62 57h124v-2l-124 -131h-131l-124 131v2h131zM577 583l-112 -74q-25 38 -60 60t-91 22q-62 0 -88.5 -21.5t-26.5 -55.5q0 -15 4 -28t15.5 -24t31 -20.5t49.5 -16.5l70 -16q119 -27 171 -78t52 -130q0 -102 -73.5 -158.5t-210.5 -56.5q-44 0 -85.5 6.5 t-78 22t-67 41.5t-53.5 65l107 79q30 -49 73.5 -74t103.5 -25q130 0 130 83q0 31 -21.5 51.5t-82.5 34.5l-69 16q-117 27 -166 83.5t-49 133.5q0 45 17.5 83.5t51.5 67t83 44.5t111 16q91 0 157.5 -29.5t106.5 -101.5z" />
<glyph unicode="&#x161;" horiz-adv-x="510" d="M22 0zM252 647l62 57h124v-2l-124 -131h-131l-124 131v2h131zM248 89q41 0 60 11.5t19 30.5q0 20 -15 29t-52 17l-42 9q-171 36 -171 162q0 33 12.5 62.5t38.5 51.5t65.5 35t93.5 13q72 0 122.5 -20.5t85.5 -65.5l-81 -82q-23 28 -54.5 43t-72.5 15q-35 0 -54 -10 t-19 -30q0 -17 14.5 -28t49.5 -18l58 -12q85 -17 123 -56.5t38 -96.5q0 -33 -11.5 -62.5t-38 -52t-68.5 -35.5t-102 -13q-78 0 -135.5 23t-89.5 74l79 78q24 -35 62 -53.5t85 -18.5z" />
<glyph unicode="&#x162;" horiz-adv-x="620" d="M14 0zM257 -333l-28 58q32 8 53 27.5t28 46.5h-2q-38 0 -60.5 18t-22.5 53q0 38 22 56.5t62 18.5q41 0 64 -24t23 -75q0 -34 -10 -64t-28 -53.5t-43.5 -39.5t-57.5 -22zM14 700h592v-138h-214v-562h-164v562h-214v138z" />
<glyph unicode="&#x163;" horiz-adv-x="407" d="M18 0zM221 -333l-28 58q32 8 53 27.5t28 46.5h-2q-38 0 -60.5 18t-22.5 53q0 38 22 56.5t62 18.5q41 0 64 -24t23 -75q0 -34 -10 -64t-28 -53.5t-43.5 -39.5t-57.5 -22zM18 497h76v141h154v-141h133v-115h-133v-201q0 -44 18.5 -61.5t51.5 -17.5q34 0 61 13l21 -100 q-54 -29 -123 -29q-39 0 -72 9t-58 30.5t-39 56t-14 85.5v215h-76v115z" />
<glyph unicode="&#x164;" horiz-adv-x="620" d="M14 0zM314 851l62 57h124v-2l-124 -131h-131l-124 131v2h131zM14 700h592v-138h-214v-562h-164v562h-214v138z" />
<glyph unicode="&#x165;" horiz-adv-x="411" d="M400 555h-97l7 195h123zM18 497h76v141h154v-141h133v-115h-133v-201q0 -44 18.5 -61.5t51.5 -17.5q34 0 61 13l21 -100q-54 -29 -123 -29q-39 0 -72 9t-58 30.5t-39 56t-14 85.5v215h-76v115z" />
<glyph unicode="&#x166;" horiz-adv-x="621" d="M14 700h592v-138h-213v-167h164v-113h-164v-282h-165v282h-163v113h163v167h-214v138z" />
<glyph unicode="&#x167;" horiz-adv-x="407" d="M381 497v-115h-133v-65h133v-84h-133v-56q0 -42 19 -58.5t51 -16.5q34 0 61 13l21 -100q-54 -29 -123 -29q-39 0 -72 9t-58 30.5t-39 56t-14 85.5v66h-76v84h76v65h-76v115h76v141h154v-141h133z" />
<glyph unicode="&#x168;" horiz-adv-x="771" d="M76 0zM532 276v424h163v-415q0 -79 -21 -135.5t-60.5 -93t-97 -53.5t-129.5 -17q-150 0 -230.5 72t-80.5 227v415h164v-424q0 -80 38.5 -117.5t107.5 -37.5t107.5 37.5t38.5 117.5zM473 903h95q3 -35 -6 -58.5t-24 -37.5t-34 -20t-38 -6q-23 0 -42 5.5t-36 11.5t-32 11.5 t-29 5.5q-17 0 -22.5 -10.5t-5.5 -23.5h-95q-2 35 6.5 58.5t23.5 38t34 20.5t38 6q23 0 42 -5.5t36 -12t32 -12t29 -5.5q18 0 23 10t5 24z" />
<glyph unicode="&#x169;" horiz-adv-x="643" d="M64 0zM443 0l-12 84q-28 -50 -74.5 -74t-101.5 -24q-50 0 -86.5 14.5t-59.5 40.5t-34 61.5t-11 78.5v316h158v-273q0 -109 88 -109q45 0 74.5 32.5t30.5 95.5v254h157v-497h-129zM404 700h95q3 -35 -6 -58.5t-24 -37.5t-34 -20t-38 -6q-23 0 -42 5.5t-36 11.5t-32 11.5 t-29 5.5q-17 0 -22.5 -10.5t-5.5 -23.5h-95q-2 35 6.5 58.5t23.5 38t34 20.5t38 6q23 0 42 -5.5t36 -12t32 -12t29 -5.5q18 0 23 10t5 24z" />
<glyph unicode="&#x16a;" horiz-adv-x="771" d="M76 0zM532 276v424h163v-415q0 -79 -21 -135.5t-60.5 -93t-97 -53.5t-129.5 -17q-150 0 -230.5 72t-80.5 227v415h164v-424q0 -80 38.5 -117.5t107.5 -37.5t107.5 37.5t38.5 117.5zM531 880v-87h-289v87h289z" />
<glyph unicode="&#x16b;" horiz-adv-x="643" d="M64 0zM443 0l-12 84q-28 -50 -74.5 -74t-101.5 -24q-50 0 -86.5 14.5t-59.5 40.5t-34 61.5t-11 78.5v316h158v-273q0 -109 88 -109q45 0 74.5 32.5t30.5 95.5v254h157v-497h-129zM462 677v-87h-289v87h289z" />
<glyph unicode="&#x16c;" horiz-adv-x="771" d="M76 0zM532 276v424h163v-415q0 -79 -21 -135.5t-60.5 -93t-97 -53.5t-129.5 -17q-150 0 -230.5 72t-80.5 227v415h164v-424q0 -80 38.5 -117.5t107.5 -37.5t107.5 37.5t38.5 117.5zM460 907h97q0 -40 -11.5 -67t-33.5 -43t-54 -23t-72 -7q-41 0 -72.5 7t-53.5 23 t-33.5 43t-11.5 67h97q0 -36 18 -49t56 -13t56 13t18 49z" />
<glyph unicode="&#x16d;" horiz-adv-x="643" d="M64 0zM443 0l-12 84q-28 -50 -74.5 -74t-101.5 -24q-50 0 -86.5 14.5t-59.5 40.5t-34 61.5t-11 78.5v316h158v-273q0 -109 88 -109q45 0 74.5 32.5t30.5 95.5v254h157v-497h-129zM392 704h97q0 -40 -11.5 -67t-33.5 -43t-54 -23t-72 -7q-41 0 -72.5 7t-53.5 23t-33.5 43 t-11.5 67h97q0 -36 18 -49t56 -13t56 13t18 49z" />
<glyph unicode="&#x16e;" horiz-adv-x="771" d="M76 0zM271 856q0 50 32.5 76.5t82.5 26.5t82 -26.5t32 -76.5q0 -51 -32 -77.5t-83 -26.5q-49 0 -81.5 26.5t-32.5 77.5zM341 856q0 -21 12 -33.5t32 -12.5t33 12.5t13 33.5t-12.5 33t-32.5 12t-32.5 -12t-12.5 -33zM532 276v424h163v-415q0 -79 -21 -135.5t-60.5 -93 t-97 -53.5t-129.5 -17q-150 0 -230.5 72t-80.5 227v415h164v-424q0 -80 38.5 -117.5t107.5 -37.5t107.5 37.5t38.5 117.5z" />
<glyph unicode="&#x16f;" horiz-adv-x="643" d="M64 0zM203 653q0 50 32.5 76.5t82.5 26.5t82 -26.5t32 -76.5q0 -51 -32 -77.5t-83 -26.5q-49 0 -81.5 26.5t-32.5 77.5zM273 653q0 -21 12 -33.5t32 -12.5t33 12.5t13 33.5t-12.5 33t-32.5 12t-32.5 -12t-12.5 -33zM443 0l-12 84q-28 -50 -74.5 -74t-101.5 -24 q-50 0 -86.5 14.5t-59.5 40.5t-34 61.5t-11 78.5v316h158v-273q0 -109 88 -109q45 0 74.5 32.5t30.5 95.5v254h157v-497h-129z" />
<glyph unicode="&#x170;" horiz-adv-x="771" d="M76 0zM532 276v424h163v-415q0 -79 -21 -135.5t-60.5 -93t-97 -53.5t-129.5 -17q-150 0 -230.5 72t-80.5 227v415h164v-424q0 -80 38.5 -117.5t107.5 -37.5t107.5 37.5t38.5 117.5zM652 902l-130 -128h-115v5l79 128h166v-5zM448 901l-112 -127h-107v5l68 128h151v-6z " />
<glyph unicode="&#x171;" horiz-adv-x="643" d="M64 0zM443 0l-12 84q-28 -50 -74.5 -74t-101.5 -24q-50 0 -86.5 14.5t-59.5 40.5t-34 61.5t-11 78.5v316h158v-273q0 -109 88 -109q45 0 74.5 32.5t30.5 95.5v254h157v-497h-129zM580 699l-130 -128h-115v5l79 128h166v-5zM376 698l-112 -127h-107v5l68 128h151v-6z" />
<glyph unicode="&#x172;" horiz-adv-x="772" d="M362 -98q0 49 27 84h-8q-147 2 -226 73.5t-79 225.5v415h165v-424q0 -80 38.5 -117t106.5 -37q69 0 107.5 37t38.5 117v424h164v-415q0 -119 -47.5 -186.5t-134.5 -95.5q-32 -11 -45.5 -34t-13.5 -48q0 -35 18.5 -48.5t44.5 -13.5q36 0 68 18l21 -79q-44 -27 -101 -27 q-27 0 -52.5 6.5t-46 22t-33 40.5t-12.5 62z" />
<glyph unicode="&#x173;" horiz-adv-x="642" d="M516 -229q-27 0 -53 6t-46.5 20.5t-33 38t-12.5 59.5q0 43 20 73.5t49 49.5l-10 66q-27 -50 -73.5 -74t-101.5 -24q-50 0 -86.5 14.5t-59.5 40.5t-34 61.5t-11 78.5v316h158v-273q0 -109 88 -109q45 0 74.5 32.5t30.5 95.5v254h157v-497q-31 0 -51.5 -8.5t-33 -21 t-18 -28.5t-5.5 -32q0 -29 19 -40t45 -11q37 0 67 17l22 -78q-44 -27 -101 -27z" />
<glyph unicode="&#x174;" horiz-adv-x="968" d="M6 0zM483 832l-61 -58h-125v4l123 129h131l125 -129v-4h-132zM414 699h144l123 -475l121 476h161l-200 -700h-160l-120 470l-122 -470h-156l-199 700h167l117 -474z" />
<glyph unicode="&#x175;" horiz-adv-x="786" d="M6 0zM391 629l-61 -58h-125v4l123 129h131l125 -129v-4h-132zM333 495h126l94 -313l85 315h142l-155 -497h-141l-91 319l-90 -319h-140l-157 497h147l87 -313z" />
<glyph unicode="&#x176;" horiz-adv-x="682" d="M8 0zM259 261l-251 439h181l157 -299l156 299h172l-251 -443v-257h-164v261zM340 832l-61 -58h-125v4l123 129h131l125 -129v-4h-132z" />
<glyph unicode="&#x177;" horiz-adv-x="564" d="M5 0zM188 -41l13 39l-196 499h163l116 -331l112 331h162l-231 -589q-15 -37 -35.5 -61.5t-46.5 -39.5t-57 -21t-66 -6q-32 0 -56.5 4.5t-50.5 14.5l16 113q38 -16 72 -16q26 0 49 13t36 50zM279 629l-61 -58h-125v4l123 129h131l125 -129v-4h-132z" />
<glyph unicode="&#x178;" horiz-adv-x="682" d="M8 0zM259 261l-251 439h181l157 -299l156 299h172l-251 -443v-257h-164v261zM363 848q0 38 22 56t62 18t61.5 -18t21.5 -56t-21.5 -56.5t-61.5 -18.5t-62 18.5t-22 56.5zM153 848q0 38 22 56t61 18q40 0 61.5 -18t21.5 -56t-21.5 -56.5t-61.5 -18.5q-39 0 -61 18.5 t-22 56.5z" />
<glyph unicode="&#x179;" horiz-adv-x="613" d="M21 0zM484 902l-129 -127h-122v5l81 128h170v-6zM21 0v102l362 469l-346 -3v132h546v-101l-362 -470l369 3v-132h-569z" />
<glyph unicode="&#x17a;" horiz-adv-x="509" d="M31 0zM433 698l-129 -127h-122v5l81 128h170v-6zM31 0v92l253 289h-248v116h432v-96l-251 -286h259v-115h-445z" />
<glyph unicode="&#x17b;" horiz-adv-x="613" d="M21 0zM21 0v102l362 469l-346 -3v132h546v-101l-362 -470l369 3v-132h-569zM218 848q0 38 23 56.5t65 18.5t64 -18.5t22 -56.5t-22 -56.5t-64 -18.5t-65 18.5t-23 56.5z" />
<glyph unicode="&#x17c;" horiz-adv-x="509" d="M31 0zM31 0v92l253 289h-248v116h432v-96l-251 -286h259v-115h-445zM167 645q0 38 23 56.5t65 18.5t64 -18.5t22 -56.5t-22 -56.5t-64 -18.5t-65 18.5t-23 56.5z" />
<glyph unicode="&#x17d;" horiz-adv-x="613" d="M21 0zM309 851l62 57h124v-2l-124 -131h-131l-124 131v2h131zM21 0v102l362 469l-346 -3v132h546v-101l-362 -470l369 3v-132h-569z" />
<glyph unicode="&#x17e;" horiz-adv-x="509" d="M31 0zM258 647l62 57h124v-2l-124 -131h-131l-124 131v2h131zM31 0v92l253 289h-248v116h432v-96l-251 -286h259v-115h-445z" />
<glyph unicode="&#x192;" horiz-adv-x="415" d="M49 -22l45 284h-78l18 115h78l9 52q17 102 73 149t139 47q28 0 60.5 -6.5t52.5 -20.5l-41 -103q-22 13 -53 13q-32 0 -52 -18t-28 -63l-8 -50h129l-18 -115h-129l-45 -292q-15 -97 -71 -144t-141 -47q-25 0 -53.5 5t-49.5 17l38 105q11 -5 22 -8t27 -3q32 0 50 18t26 65z " />
<glyph unicode="&#x218;" horiz-adv-x="637" d="M24 0zM261 -333l-28 58q32 8 53 27.5t28 46.5h-2q-38 0 -60.5 18t-22.5 53q0 38 22 56.5t62 18.5q41 0 64 -24t23 -75q0 -34 -10 -64t-28 -53.5t-43.5 -39.5t-57.5 -22zM577 583l-112 -74q-25 38 -60 60t-91 22q-62 0 -88.5 -21.5t-26.5 -55.5q0 -15 4 -28t15.5 -24 t31 -20.5t49.5 -16.5l70 -16q119 -27 171 -78t52 -130q0 -102 -73.5 -158.5t-210.5 -56.5q-44 0 -85.5 6.5t-78 22t-67 41.5t-53.5 65l107 79q30 -49 73.5 -74t103.5 -25q130 0 130 83q0 31 -21.5 51.5t-82.5 34.5l-69 16q-117 27 -166 83.5t-49 133.5q0 45 17.5 83.5 t51.5 67t83 44.5t111 16q91 0 157.5 -29.5t106.5 -101.5z" />
<glyph unicode="&#x219;" horiz-adv-x="510" d="M22 0zM190 -333l-28 58q32 8 53 27.5t28 46.5h-2q-38 0 -60.5 18t-22.5 53q0 38 22 56.5t62 18.5q41 0 64 -24t23 -75q0 -34 -10 -64t-28 -53.5t-43.5 -39.5t-57.5 -22zM248 89q41 0 60 11.5t19 30.5q0 20 -15 29t-52 17l-42 9q-171 36 -171 162q0 33 12.5 62.5 t38.5 51.5t65.5 35t93.5 13q72 0 122.5 -20.5t85.5 -65.5l-81 -82q-23 28 -54.5 43t-72.5 15q-35 0 -54 -10t-19 -30q0 -17 14.5 -28t49.5 -18l58 -12q85 -17 123 -56.5t38 -96.5q0 -33 -11.5 -62.5t-38 -52t-68.5 -35.5t-102 -13q-78 0 -135.5 23t-89.5 74l79 78 q24 -35 62 -53.5t85 -18.5z" />
<glyph unicode="&#x237;" horiz-adv-x="298" d="M70 -20v517h158v-527q0 -49 -14 -85t-39.5 -59.5t-61 -35t-78.5 -11.5q-26 0 -53.5 5t-52.5 17l25 105q12 -5 24 -8t28 -3q32 0 48 18.5t16 66.5z" />
<glyph unicode="&#x2c6;" horiz-adv-x="600" d="M299 629l-61 -58h-125v4l123 129h131l125 -129v-4h-132z" />
<glyph unicode="&#x2c7;" horiz-adv-x="600" d="M303 647l62 57h124v-2l-124 -131h-131l-124 131v2h131z" />
<glyph unicode="&#x2d8;" horiz-adv-x="600" d="M374 704h97q0 -40 -11.5 -67t-33.5 -43t-54 -23t-72 -7q-41 0 -72.5 7t-53.5 23t-33.5 43t-11.5 67h97q0 -36 18 -49t56 -13t56 13t18 49z" />
<glyph unicode="&#x2d9;" horiz-adv-x="600" d="M213 645q0 38 23 56.5t65 18.5t64 -18.5t22 -56.5t-22 -56.5t-64 -18.5t-65 18.5t-23 56.5z" />
<glyph unicode="&#x2da;" horiz-adv-x="600" d="M187 653q0 50 32.5 76.5t82.5 26.5t82 -26.5t32 -76.5q0 -51 -32 -77.5t-83 -26.5q-49 0 -81.5 26.5t-32.5 77.5zM257 653q0 -21 12 -33.5t32 -12.5t33 12.5t13 33.5t-12.5 33t-32.5 12t-32.5 -12t-12.5 -33z" />
<glyph unicode="&#x2db;" horiz-adv-x="600" d="M322 -229q-27 0 -53 6t-46 20.5t-32.5 38t-12.5 59.5q0 38 16 68t42 50t58 29.5t65 7.5l2 -50q-48 -4 -69.5 -31t-21.5 -59q0 -29 18.5 -40t45.5 -11q37 0 67 17l22 -78q-44 -27 -101 -27z" />
<glyph unicode="&#x2dc;" horiz-adv-x="600" d="M393 700h95q3 -35 -6 -58.5t-24 -37.5t-34 -20t-38 -6q-23 0 -42 5.5t-36 11.5t-32 11.5t-29 5.5q-17 0 -22.5 -10.5t-5.5 -23.5h-95q-2 35 6.5 58.5t23.5 38t34 20.5t38 6q23 0 42 -5.5t36 -12t32 -12t29 -5.5q18 0 23 10t5 24z" />
<glyph unicode="&#x2dd;" horiz-adv-x="600" d="M568 699l-130 -128h-115v5l79 128h166v-5zM364 698l-112 -127h-107v5l68 128h151v-6z" />
<glyph unicode="&#x1e80;" horiz-adv-x="968" d="M6 0zM414 699h144l123 -475l121 476h161l-200 -700h-160l-120 470l-122 -470h-156l-199 700h167l117 -474zM434 775l-129 127v6h174l79 -128v-5h-124z" />
<glyph unicode="&#x1e81;" horiz-adv-x="786" d="M6 0zM333 495h126l94 -313l85 315h142l-155 -497h-141l-91 319l-90 -319h-140l-157 497h147l87 -313zM340 572l-129 127v6h174l79 -128v-5h-124z" />
<glyph unicode="&#x1e82;" horiz-adv-x="968" d="M6 0zM663 901l-129 -127h-122v5l81 128h170v-6zM414 699h144l123 -475l121 476h161l-200 -700h-160l-120 470l-122 -470h-156l-199 700h167l117 -474z" />
<glyph unicode="&#x1e83;" horiz-adv-x="786" d="M6 0zM570 698l-129 -127h-122v5l81 128h170v-6zM333 495h126l94 -313l85 315h142l-155 -497h-141l-91 319l-90 -319h-140l-157 497h147l87 -313z" />
<glyph unicode="&#x1e84;" horiz-adv-x="968" d="M6 0zM505 848q0 38 22 56t62 18t61.5 -18t21.5 -56t-21.5 -56.5t-61.5 -18.5t-62 18.5t-22 56.5zM295 848q0 38 22 56t61 18q40 0 61.5 -18t21.5 -56t-21.5 -56.5t-61.5 -18.5q-39 0 -61 18.5t-22 56.5zM414 699h144l123 -475l121 476h161l-200 -700h-160l-120 470 l-122 -470h-156l-199 700h167l117 -474z" />
<glyph unicode="&#x1e85;" horiz-adv-x="786" d="M6 0zM415 645q0 38 22 56t62 18t61.5 -18t21.5 -56t-21.5 -56.5t-61.5 -18.5t-62 18.5t-22 56.5zM205 645q0 38 22 56t61 18q40 0 61.5 -18t21.5 -56t-21.5 -56.5t-61.5 -18.5q-39 0 -61 18.5t-22 56.5zM333 495h126l94 -313l85 315h142l-155 -497h-141l-91 319l-90 -319 h-140l-157 497h147l87 -313z" />
<glyph unicode="&#x2000;" horiz-adv-x="479" />
<glyph unicode="&#x2001;" horiz-adv-x="959" />
<glyph unicode="&#x2002;" horiz-adv-x="500" />
<glyph unicode="&#x2003;" horiz-adv-x="1000" />
<glyph unicode="&#x2004;" horiz-adv-x="333" />
<glyph unicode="&#x2005;" horiz-adv-x="250" />
<glyph unicode="&#x2006;" horiz-adv-x="167" />
<glyph unicode="&#x2007;" />
<glyph unicode="&#x2008;" horiz-adv-x="257" />
<glyph unicode="&#x2009;" horiz-adv-x="200" />
<glyph unicode="&#x200a;" horiz-adv-x="100" />
<glyph unicode="&#x200b;" horiz-adv-x="0" />
<glyph unicode="&#x2010;" horiz-adv-x="477" d="M429 328v-123h-378v123h378z" />
<glyph unicode="&#x2011;" horiz-adv-x="477" d="M429 328v-123h-378v123h378z" />
<glyph unicode="&#x2012;" horiz-adv-x="589" d="M541 328v-123h-491v123h491z" />
<glyph unicode="&#x2013;" horiz-adv-x="589" d="M541 328v-123h-491v123h491z" />
<glyph unicode="&#x2014;" horiz-adv-x="789" d="M740 328v-123h-690v123h690z" />
<glyph unicode="&#x2015;" horiz-adv-x="1086" d="M1037 328v-123h-987v123h987z" />
<glyph unicode="&#x2018;" horiz-adv-x="247" d="M177 750l31 -62q-29 -9 -49 -28t-28 -48q38 -2 58 -22.5t20 -55.5q0 -39 -22.5 -59t-61.5 -20q-42 0 -64.5 24t-22.5 76q0 76 35.5 127t103.5 68z" />
<glyph unicode="&#x2019;" horiz-adv-x="247" d="M72 448l-31 62q29 9 49 28t28 48q-38 2 -58 22.5t-20 55.5q0 39 22.5 59t61.5 20q42 0 64.5 -24t22.5 -76q0 -76 -35.5 -127t-103.5 -68z" />
<glyph unicode="&#x201a;" horiz-adv-x="246" d="M71 -142l-30 61q29 9 48.5 27.5t27.5 47.5q-38 2 -57.5 22t-19.5 55q0 39 22 58.5t60 19.5q42 0 64.5 -23.5t22.5 -75.5q0 -75 -35.5 -125t-102.5 -67z" />
<glyph unicode="&#x201c;" horiz-adv-x="447" d="M177 750l31 -62q-29 -9 -49 -28t-28 -48q38 -2 58 -22.5t20 -55.5q0 -39 -22.5 -59t-61.5 -20q-42 0 -64.5 24t-22.5 76q0 76 35.5 127t103.5 68zM378 750l31 -62q-29 -9 -49 -28t-28 -48q38 -2 58 -22.5t20 -55.5q0 -39 -22.5 -59t-61.5 -20q-42 0 -64.5 24t-22.5 76 q0 76 35.5 127t103.5 68z" />
<glyph unicode="&#x201d;" horiz-adv-x="447" d="M70 447l-31 62q29 9 49 28t28 48q-38 2 -58 22.5t-20 55.5q0 39 22.5 59t61.5 20q42 0 64.5 -24t22.5 -76q0 -76 -35.5 -127t-103.5 -68zM271 447l-31 62q29 9 49 28t28 48q-38 2 -58 22.5t-20 55.5q0 39 22.5 59t61.5 20q42 0 64.5 -24t22.5 -76q0 -76 -35.5 -127 t-103.5 -68z" />
<glyph unicode="&#x201e;" horiz-adv-x="446" d="M71 -142l-30 61q29 9 48.5 27.5t27.5 47.5q-38 2 -57.5 22t-19.5 55q0 38 22 58t61 20q41 0 63.5 -23.5t22.5 -75.5q0 -75 -35.5 -125t-102.5 -67zM271 -142l-30 61q29 9 48.5 27.5t27.5 47.5q-38 2 -57.5 22t-19.5 55q0 38 22 58t61 20q41 0 63.5 -23.5t22.5 -75.5 q0 -75 -35.5 -125t-102.5 -67z" />
<glyph unicode="&#x2020;" horiz-adv-x="316" d="M284 493h-66l-2 -224h-118v224h-67v105h65l-2 116h128l-3 -116h65v-105z" />
<glyph unicode="&#x2021;" horiz-adv-x="316" d="M31 468h68v50h-68v105h65l-2 91h128l-3 -91h65v-105h-67v-50h67v-105h-65l3 -94h-128l2 94h-65v105z" />
<glyph unicode="&#x2022;" horiz-adv-x="431" d="M49 327q0 74 44.5 119t122.5 45t122 -45t44 -119q0 -75 -44 -119.5t-122 -44.5t-122.5 44.5t-44.5 119.5z" />
<glyph unicode="&#x2026;" horiz-adv-x="771" d="M555 74q0 42 23 62.5t65 20.5t64 -20.5t22 -62.5q0 -39 -22 -60t-64 -21t-65 20.5t-23 60.5zM297 74q0 42 23 62.5t65 20.5q88 0 88 -83q0 -39 -22.5 -60t-65.5 -21q-42 0 -65 20.5t-23 60.5zM41 74q0 42 23 62.5t65 20.5t64.5 -20.5t22.5 -62.5q0 -39 -22.5 -60 t-64.5 -21t-65 20.5t-23 60.5z" />
<glyph unicode="&#x202f;" horiz-adv-x="191" />
<glyph unicode="&#x2030;" horiz-adv-x="1508" d="M32 0zM660 203q0 110 45 164t144 54q100 0 145 -54t45 -164q0 -109 -45 -162.5t-145 -53.5q-99 0 -144 53.5t-45 162.5zM924 203q0 73 -19.5 100.5t-55.5 27.5t-55.5 -27.5t-19.5 -99.5q0 -73 19.5 -100.5t55.5 -27.5t55.5 27.5t19.5 99.5zM32 496q0 110 45 164t144 54 q100 0 145 -54t45 -164q0 -109 -45 -162.5t-145 -53.5q-99 0 -144 53.5t-45 162.5zM296 496q0 73 -19.5 100.5t-55.5 27.5t-55.5 -27.5t-19.5 -99.5q0 -73 19.5 -100.5t55.5 -27.5t55.5 27.5t19.5 99.5zM1095 203q0 110 45 164t144 54q100 0 145 -54t45 -164 q0 -109 -45 -162.5t-145 -53.5q-99 0 -144 53.5t-45 162.5zM1359 203q0 73 -19.5 100.5t-55.5 27.5t-55.5 -27.5t-19.5 -99.5q0 -73 19.5 -100.5t55.5 -27.5t55.5 27.5t19.5 99.5zM775 700l-346 -700h-137l348 700h135z" />
<glyph unicode="&#x2039;" horiz-adv-x="428" d="M236 0l-195 247v3l194 247h156l-195 -246l199 -251h-159z" />
<glyph unicode="&#x203a;" horiz-adv-x="428" d="M192 497l195 -247v-3l-194 -247h-156l195 246l-199 251h159z" />
<glyph unicode="&#x2044;" horiz-adv-x="558" d="M511 700l-346 -700h-137l348 700h135z" />
<glyph unicode="&#x205f;" horiz-adv-x="239" />
<glyph unicode="&#x2070;" horiz-adv-x="445" d="M32 281zM32 497q0 110 45 164t144 54q100 0 145 -54t45 -164q0 -109 -45 -162.5t-145 -53.5q-99 0 -144 53.5t-45 162.5zM296 497q0 73 -19.5 100.5t-55.5 27.5t-55.5 -27.5t-19.5 -99.5q0 -73 19.5 -100.5t55.5 -27.5t55.5 27.5t19.5 99.5z" />
<glyph unicode="&#x2074;" horiz-adv-x="424" d="M22 294zM22 375v76l122 252h113l-118 -235h111v136h108v-136h47v-93h-47v-81h-108v81h-228z" />
<glyph unicode="&#x2075;" horiz-adv-x="376" d="M11 282zM143 615l-8 -67q33 11 71 11q72 0 111 -33t39 -99q0 -69 -44.5 -107t-130.5 -38q-54 0 -98.5 17t-71.5 57q0 1 12.5 9.5t26.5 19l26 19.5l13 9q30 -43 85 -43q32 0 49.5 15t17.5 41q0 29 -18.5 42t-47.5 13q-42 0 -68 -25l-74 34l18 212h288v-88z" />
<glyph unicode="&#x2076;" horiz-adv-x="416" d="M31 282zM223 282q-93 0 -142.5 51.5t-49.5 162.5q0 106 46.5 162t146.5 56q54 0 94.5 -18t59.5 -54l-69 -59q-9 17 -26.5 30.5t-50.5 13.5q-45 0 -67.5 -28.5t-21.5 -97.5v-5q13 24 39.5 40t64.5 16q62 0 98.5 -33t36.5 -97q0 -61 -39 -100.5t-120 -39.5zM155 421 q0 -23 15 -38t44 -15q26 0 42.5 13.5t16.5 39.5q0 23 -14 37t-44 14q-26 0 -43 -13t-17 -38z" />
<glyph unicode="&#x2077;" horiz-adv-x="342" d="M16 294zM212 294h-127q0 98 36 179t93 135l-198 -3v97h320v-76q-32 -35 -55.5 -70.5t-38.5 -76t-22.5 -86t-7.5 -99.5z" />
<glyph unicode="&#x2078;" horiz-adv-x="410" d="M31 282zM203 282q-84 0 -128 31t-44 94q0 39 17.5 63.5t49.5 36.5q-23 14 -37.5 36t-14.5 52q0 61 40 90t117 29q78 0 118 -29t40 -90q0 -30 -14.5 -52t-38.5 -36q67 -24 67 -100q0 -125 -172 -125zM258 590q0 20 -14.5 31t-39.5 11q-26 0 -40.5 -11t-14.5 -31 q0 -22 14 -33.5t40 -11.5t40.5 11.5t14.5 33.5zM263 409q0 23 -15.5 35.5t-42.5 12.5q-29 0 -45.5 -12.5t-16.5 -35.5t16 -35.5t44 -12.5q29 0 44.5 12.5t15.5 35.5z" />
<glyph unicode="&#x2079;" horiz-adv-x="414" d="M27 282zM254 572q0 26 -16 40t-44 14q-26 0 -41.5 -13.5t-15.5 -39.5q0 -24 13.5 -39t43.5 -15q25 0 42.5 13.5t17.5 39.5zM184 282q-50 0 -93.5 15.5t-63.5 48.5l68 62q11 -19 32.5 -29t50.5 -10q52 0 71.5 34t17.5 92q-12 -25 -39 -40.5t-65 -15.5q-61 0 -98.5 34 t-37.5 98q0 63 39 103t124 40q89 0 139 -51.5t50 -162.5q0 -106 -47 -162t-148 -56z" />
<glyph unicode="&#x207a;" horiz-adv-x="315" d="M28 356zM200 356h-85v88h-87v70h87v89h85v-89h87v-70h-87v-88z" />
<glyph unicode="&#x207b;" horiz-adv-x="315" d="M28 444zM287 514v-70h-259v70h259z" />
<glyph unicode="&#x207c;" horiz-adv-x="315" d="M28 393zM287 562v-72h-259v72h259zM287 465v-72h-259v72h259z" />
<glyph unicode="&#x207d;" horiz-adv-x="233" d="M24 205zM213 292l-9 -87q-93 8 -136.5 73t-43.5 186q0 119 43 183.5t134 72.5l12 -86q-50 -6 -75.5 -43t-25.5 -127q0 -46 6.5 -77.5t19 -51.5t31.5 -30t44 -13z" />
<glyph unicode="&#x207e;" horiz-adv-x="233" d="M18 205zM28 205l-10 87q25 3 44 13t32 30t19.5 51.5t6.5 77.5q0 90 -26 127t-76 43l13 86q91 -8 134 -72.5t43 -183.5q0 -121 -43.5 -186t-136.5 -73z" />
<glyph unicode="&#x2080;" horiz-adv-x="445" d="M32 203q0 110 45 164t144 54q100 0 145 -54t45 -164q0 -109 -45 -162.5t-145 -53.5q-99 0 -144 53.5t-45 162.5zM296 203q0 73 -19.5 100.5t-55.5 27.5t-55.5 -27.5t-19.5 -99.5q0 -73 19.5 -100.5t55.5 -27.5t55.5 27.5t19.5 99.5z" />
<glyph unicode="&#x2081;" horiz-adv-x="264" d="M210 0h-116v282l-44 -26l-43 87l127 70h76v-413z" />
<glyph unicode="&#x2082;" horiz-adv-x="384" d="M27 0v79l138 118q29 25 44.5 45t15.5 43q0 24 -15 33t-38 9q-32 0 -49.5 -13t-33.5 -40l-77 54q29 51 71.5 71.5t102.5 20.5q32 0 60.5 -6t50 -20.5t34 -37.5t12.5 -56q0 -44 -23.5 -80t-67.5 -75l-60 -54l166 4v-95h-331z" />
<glyph unicode="&#x2083;" horiz-adv-x="384" d="M184 -13q-57 0 -99.5 19t-68.5 64l80 53q16 -27 35 -37t46 -10q29 0 46 11t17 34q0 42 -62 42h-43v81h43q52 0 52 43q0 41 -56 41q-26 0 -41.5 -10.5t-29.5 -34.5l-80 46q26 50 66 70.5t97 20.5q78 0 118.5 -31.5t40.5 -88.5q0 -31 -14.5 -54t-40.5 -38 q29 -13 45.5 -34.5t16.5 -57.5q0 -59 -43.5 -94t-124.5 -35z" />
<glyph unicode="&#x2084;" horiz-adv-x="424" d="M22 81v76l122 252h113l-118 -235h111v136h108v-136h47v-93h-47v-81h-108v81h-228z" />
<glyph unicode="&#x2085;" horiz-adv-x="376" d="M143 321l-8 -67q33 11 71 11q72 0 111 -33t39 -99q0 -69 -44.5 -107t-130.5 -38q-54 0 -98.5 17t-71.5 57q0 1 12.5 9.5t26.5 19l26 19.5l13 9q30 -43 85 -43q32 0 49.5 15t17.5 41q0 29 -18.5 42t-47.5 13q-42 0 -68 -25l-74 34l18 212h288v-88z" />
<glyph unicode="&#x2086;" horiz-adv-x="416" d="M223 -12q-93 0 -142.5 51.5t-49.5 162.5q0 106 46.5 162t146.5 56q54 0 94.5 -18t59.5 -54l-69 -59q-9 17 -26.5 30.5t-50.5 13.5q-45 0 -67.5 -28.5t-21.5 -97.5v-5q13 24 39.5 40t64.5 16q62 0 98.5 -33t36.5 -97q0 -61 -39 -100.5t-120 -39.5zM155 127q0 -23 15 -38 t44 -15q26 0 42.5 13.5t16.5 39.5q0 23 -14 37t-44 14q-26 0 -43 -13t-17 -38z" />
<glyph unicode="&#x2087;" horiz-adv-x="342" d="M212 0h-127q0 98 36 179t93 135l-198 -3v97h320v-76q-32 -35 -55.5 -70.5t-38.5 -76t-22.5 -86t-7.5 -99.5z" />
<glyph unicode="&#x2088;" horiz-adv-x="410" d="M203 -12q-84 0 -128 31t-44 94q0 39 17.5 63.5t49.5 36.5q-23 14 -37.5 36t-14.5 52q0 61 40 90t117 29q78 0 118 -29t40 -90q0 -30 -14.5 -52t-38.5 -36q67 -24 67 -100q0 -125 -172 -125zM258 296q0 20 -14.5 31t-39.5 11q-26 0 -40.5 -11t-14.5 -31q0 -22 14 -33.5 t40 -11.5t40.5 11.5t14.5 33.5zM263 115q0 23 -15.5 35.5t-42.5 12.5q-29 0 -45.5 -12.5t-16.5 -35.5t16 -35.5t44 -12.5q29 0 44.5 12.5t15.5 35.5z" />
<glyph unicode="&#x2089;" horiz-adv-x="414" d="M254 278q0 26 -16 40t-44 14q-26 0 -41.5 -13.5t-15.5 -39.5q0 -24 13.5 -39t43.5 -15q25 0 42.5 13.5t17.5 39.5zM184 -12q-50 0 -93.5 15.5t-63.5 48.5l68 62q11 -19 32.5 -29t50.5 -10q52 0 71.5 34t17.5 92q-12 -25 -39 -40.5t-65 -15.5q-61 0 -98.5 34t-37.5 98 q0 63 39 103t124 40q89 0 139 -51.5t50 -162.5q0 -106 -47 -162t-148 -56z" />
<glyph unicode="&#x208a;" horiz-adv-x="315" d="M200 58h-85v88h-87v70h87v89h85v-89h87v-70h-87v-88z" />
<glyph unicode="&#x208b;" horiz-adv-x="315" d="M287 216v-70h-259v70h259z" />
<glyph unicode="&#x208c;" horiz-adv-x="315" d="M287 264v-72h-259v72h259zM287 167v-72h-259v72h259z" />
<glyph unicode="&#x208d;" horiz-adv-x="232" d="M213 -6l-9 -87q-93 8 -136.5 73t-43.5 186q0 119 43 183.5t134 72.5l12 -86q-50 -6 -75.5 -43t-25.5 -127q0 -46 6.5 -77.5t19 -51.5t31.5 -30t44 -13z" />
<glyph unicode="&#x208e;" horiz-adv-x="232" d="M28 -93l-10 87q25 3 44 13t32 30t19.5 51.5t6.5 77.5q0 90 -26 127t-76 43l13 86q91 -8 134 -72.5t43 -183.5q0 -121 -43.5 -186t-136.5 -73z" />
<glyph unicode="&#x20ac;" horiz-adv-x="708" d="M400 -15q-137 0 -216 59.5t-102 186.5h-76v81h67q-1 8 -1 18v27h-66v81h71q18 144 100 210t229 66q99 0 165.5 -36t99.5 -120l-127 -67q-24 53 -56 73t-84 20q-67 0 -109.5 -31.5t-56.5 -114.5h247l-22 -81h-233v-27q0 -10 1 -18h220l-22 -81h-181q16 -65 56 -90.5 t99 -25.5q51 0 87.5 20.5t58.5 69.5l128 -65q-37 -78 -104.5 -116.5t-172.5 -38.5z" />
<glyph unicode="&#x2122;" horiz-adv-x="719" d="M16 700h278v-76h-95v-218h-86v218h-97v76zM325 406v294h97l88 -206l92 206h92v-294h-81l1 155l-69 -155h-73l-69 155l2 -155h-80z" />
<glyph unicode="&#x2153;" horiz-adv-x="900" d="M7 0zM700 -13q-57 0 -99.5 19t-68.5 64l80 53q16 -27 35 -37t46 -10q29 0 46 11t17 34q0 42 -62 42h-43v81h43q52 0 52 43q0 41 -56 41q-26 0 -41.5 -10.5t-29.5 -34.5l-80 46q26 50 66 70.5t97 20.5q78 0 118.5 -31.5t40.5 -88.5q0 -31 -14.5 -54t-40.5 -38 q29 -13 45.5 -34.5t16.5 -57.5q0 -59 -43.5 -94t-124.5 -35zM210 293h-116v282l-44 -26l-43 87l127 70h76v-413zM635 700l-346 -700h-137l348 700h135z" />
<glyph unicode="&#x2154;" horiz-adv-x="1022" d="M12 0zM822 -13q-57 0 -99.5 19t-68.5 64l80 53q16 -27 35 -37t46 -10q29 0 46 11t17 34q0 42 -62 42h-43v81h43q52 0 52 43q0 41 -56 41q-26 0 -41.5 -10.5t-29.5 -34.5l-80 46q26 50 66 70.5t97 20.5q78 0 118.5 -31.5t40.5 -88.5q0 -31 -14.5 -54t-40.5 -38 q29 -13 45.5 -34.5t16.5 -57.5q0 -59 -43.5 -94t-124.5 -35zM27 293v79l138 118q29 25 44.5 45t15.5 43q0 24 -15 33t-38 9q-32 0 -49.5 -13t-33.5 -40l-77 54q29 51 71.5 71.5t102.5 20.5q32 0 60.5 -6t50 -20.5t34 -37.5t12.5 -56q0 -44 -23.5 -80t-67.5 -75l-60 -54 l166 4v-95h-331zM757 700l-346 -700h-137l348 700h135z" />
<glyph unicode="&#x2155;" horiz-adv-x="902" d="M7 0zM210 293h-116v282l-44 -26l-43 87l127 70h76v-413zM669 321l-8 -67q33 11 71 11q72 0 111 -33t39 -99q0 -69 -44.5 -107t-130.5 -38q-54 0 -98.5 17t-71.5 57q0 1 12.5 9.5t26.5 19l26 19.5l13 9q30 -43 85 -43q32 0 49.5 15t17.5 41q0 29 -18.5 42t-47.5 13 q-42 0 -68 -25l-74 34l18 212h288v-88zM635 700l-346 -700h-137l348 700h135z" />
<glyph unicode="&#x2156;" horiz-adv-x="1022" d="M12 0zM27 293v79l138 118q29 25 44.5 45t15.5 43q0 24 -15 33t-38 9q-32 0 -49.5 -13t-33.5 -40l-77 54q29 51 71.5 71.5t102.5 20.5q32 0 60.5 -6t50 -20.5t34 -37.5t12.5 -56q0 -44 -23.5 -80t-67.5 -75l-60 -54l166 4v-95h-331zM789 321l-8 -67q33 11 71 11 q72 0 111 -33t39 -99q0 -69 -44.5 -107t-130.5 -38q-54 0 -98.5 17t-71.5 57q0 1 12.5 9.5t26.5 19l26 19.5l13 9q30 -43 85 -43q32 0 49.5 15t17.5 41q0 29 -18.5 42t-47.5 13q-42 0 -68 -25l-74 34l18 212h288v-88zM756 700l-346 -700h-137l348 700h135z" />
<glyph unicode="&#x2157;" horiz-adv-x="1003" d="M16 0zM184 280q-57 0 -99.5 19t-68.5 64l80 53q16 -27 35 -37t46 -10q29 0 46 11t17 34q0 42 -62 42h-43v81h43q52 0 52 43q0 41 -56 41q-26 0 -41.5 -10.5t-29.5 -34.5l-80 46q26 50 66 70.5t97 20.5q78 0 118.5 -31.5t40.5 -88.5q0 -31 -14.5 -54t-40.5 -38 q29 -13 45.5 -34.5t16.5 -57.5q0 -59 -43.5 -94t-124.5 -35zM770 321l-8 -67q33 11 71 11q72 0 111 -33t39 -99q0 -69 -44.5 -107t-130.5 -38q-54 0 -98.5 17t-71.5 57q0 1 12.5 9.5t26.5 19l26 19.5l13 9q30 -43 85 -43q32 0 49.5 15t17.5 41q0 29 -18.5 42t-47.5 13 q-42 0 -68 -25l-74 34l18 212h288v-88zM736 700l-346 -700h-137l348 700h135z" />
<glyph unicode="&#x2158;" horiz-adv-x="1047" d="M22 0zM813 321l-8 -67q33 11 71 11q72 0 111 -33t39 -99q0 -69 -44.5 -107t-130.5 -38q-54 0 -98.5 17t-71.5 57q0 1 12.5 9.5t26.5 19l26 19.5l13 9q30 -43 85 -43q32 0 49.5 15t17.5 41q0 29 -18.5 42t-47.5 13q-42 0 -68 -25l-74 34l18 212h288v-88zM780 700 l-346 -700h-137l348 700h135zM22 374v76l122 252h113l-118 -235h111v136h108v-136h47v-93h-47v-81h-108v81h-228z" />
<glyph unicode="&#x2159;" horiz-adv-x="919" d="M7 0zM210 293h-116v282l-44 -26l-43 87l127 70h76v-413zM726 -12q-93 0 -142.5 51.5t-49.5 162.5q0 106 46.5 162t146.5 56q54 0 94.5 -18t59.5 -54l-69 -59q-9 17 -26.5 30.5t-50.5 13.5q-45 0 -67.5 -28.5t-21.5 -97.5v-5q13 24 39.5 40t64.5 16q62 0 98.5 -33 t36.5 -97q0 -61 -39 -100.5t-120 -39.5zM658 127q0 -23 15 -38t44 -15q26 0 42.5 13.5t16.5 39.5q0 23 -14 37t-44 14q-26 0 -43 -13t-17 -38zM635 700l-346 -700h-137l348 700h135z" />
<glyph unicode="&#x215a;" horiz-adv-x="1020" d="M11 0zM143 614l-8 -67q33 11 71 11q72 0 111 -33t39 -99q0 -69 -44.5 -107t-130.5 -38q-54 0 -98.5 17t-71.5 57q0 1 12.5 9.5t26.5 19l26 19.5l13 9q30 -43 85 -43q32 0 49.5 15t17.5 41q0 29 -18.5 42t-47.5 13q-42 0 -68 -25l-74 34l18 212h288v-88zM828 -12 q-93 0 -142.5 51.5t-49.5 162.5q0 106 46.5 162t146.5 56q54 0 94.5 -18t59.5 -54l-69 -59q-9 17 -26.5 30.5t-50.5 13.5q-45 0 -67.5 -28.5t-21.5 -97.5v-5q13 24 39.5 40t64.5 16q62 0 98.5 -33t36.5 -97q0 -61 -39 -100.5t-120 -39.5zM760 127q0 -23 15 -38t44 -15 q26 0 42.5 13.5t16.5 39.5q0 23 -14 37t-44 14q-26 0 -43 -13t-17 -38zM736 700l-346 -700h-137l348 700h135z" />
<glyph unicode="&#x215b;" horiz-adv-x="918" d="M7 0zM210 293h-116v282l-44 -26l-43 87l127 70h76v-413zM713 -12q-84 0 -128 31t-44 94q0 39 17.5 63.5t49.5 36.5q-23 14 -37.5 36t-14.5 52q0 61 40 90t117 29q78 0 118 -29t40 -90q0 -30 -14.5 -52t-38.5 -36q67 -24 67 -100q0 -125 -172 -125zM768 296q0 20 -14.5 31 t-39.5 11q-26 0 -40.5 -11t-14.5 -31q0 -22 14 -33.5t40 -11.5t40.5 11.5t14.5 33.5zM773 115q0 23 -15.5 35.5t-42.5 12.5q-29 0 -45.5 -12.5t-16.5 -35.5t16 -35.5t44 -12.5q29 0 44.5 12.5t15.5 35.5zM635 700l-346 -700h-137l348 700h135z" />
<glyph unicode="&#x215c;" horiz-adv-x="1020" d="M16 0zM184 280q-57 0 -99.5 19t-68.5 64l80 53q16 -27 35 -37t46 -10q29 0 46 11t17 34q0 42 -62 42h-43v81h43q52 0 52 43q0 41 -56 41q-26 0 -41.5 -10.5t-29.5 -34.5l-80 46q26 50 66 70.5t97 20.5q78 0 118.5 -31.5t40.5 -88.5q0 -31 -14.5 -54t-40.5 -38 q29 -13 45.5 -34.5t16.5 -57.5q0 -59 -43.5 -94t-124.5 -35zM814 -12q-84 0 -128 31t-44 94q0 39 17.5 63.5t49.5 36.5q-23 14 -37.5 36t-14.5 52q0 61 40 90t117 29q78 0 118 -29t40 -90q0 -30 -14.5 -52t-38.5 -36q67 -24 67 -100q0 -125 -172 -125zM869 296 q0 20 -14.5 31t-39.5 11q-26 0 -40.5 -11t-14.5 -31q0 -22 14 -33.5t40 -11.5t40.5 11.5t14.5 33.5zM874 115q0 23 -15.5 35.5t-42.5 12.5q-29 0 -45.5 -12.5t-16.5 -35.5t16 -35.5t44 -12.5q29 0 44.5 12.5t15.5 35.5zM736 700l-346 -700h-137l348 700h135z" />
<glyph unicode="&#x215d;" horiz-adv-x="1020" d="M11 0zM814 -12q-84 0 -128 31t-44 94q0 39 17.5 63.5t49.5 36.5q-23 14 -37.5 36t-14.5 52q0 61 40 90t117 29q78 0 118 -29t40 -90q0 -30 -14.5 -52t-38.5 -36q67 -24 67 -100q0 -125 -172 -125zM869 296q0 20 -14.5 31t-39.5 11q-26 0 -40.5 -11t-14.5 -31 q0 -22 14 -33.5t40 -11.5t40.5 11.5t14.5 33.5zM874 115q0 23 -15.5 35.5t-42.5 12.5q-29 0 -45.5 -12.5t-16.5 -35.5t16 -35.5t44 -12.5q29 0 44.5 12.5t15.5 35.5zM143 614l-8 -67q33 11 71 11q72 0 111 -33t39 -99q0 -69 -44.5 -107t-130.5 -38q-54 0 -98.5 17t-71.5 57 q0 1 12.5 9.5t26.5 19l26 19.5l13 9q30 -43 85 -43q32 0 49.5 15t17.5 41q0 29 -18.5 42t-47.5 13q-42 0 -68 -25l-74 34l18 212h288v-88zM736 700l-346 -700h-137l348 700h135z" />
<glyph unicode="&#x215e;" horiz-adv-x="944" d="M16 0zM737 -12q-84 0 -128 31t-44 94q0 39 17.5 63.5t49.5 36.5q-23 14 -37.5 36t-14.5 52q0 61 40 90t117 29q78 0 118 -29t40 -90q0 -30 -14.5 -52t-38.5 -36q67 -24 67 -100q0 -125 -172 -125zM792 296q0 20 -14.5 31t-39.5 11q-26 0 -40.5 -11t-14.5 -31 q0 -22 14 -33.5t40 -11.5t40.5 11.5t14.5 33.5zM797 115q0 23 -15.5 35.5t-42.5 12.5q-29 0 -45.5 -12.5t-16.5 -35.5t16 -35.5t44 -12.5q29 0 44.5 12.5t15.5 35.5zM212 293h-127q0 98 36 179t93 135l-198 -3v97h320v-76q-32 -35 -55.5 -70.5t-38.5 -76t-22.5 -86 t-7.5 -99.5zM660 700l-346 -700h-137l348 700h135z" />
<glyph unicode="&#x215f;" horiz-adv-x="831" d="M7 0zM210 293h-116v282l-44 -26l-43 87l127 70h76v-413zM635 700l-346 -700h-137l348 700h135z" />
<glyph unicode="&#x2212;" horiz-adv-x="510" d="M460 357v-93h-410v93h410z" />
<glyph unicode="&#x2248;" horiz-adv-x="510" d="M350 409q20 0 52 6t58 23v-93q-23 -13 -56 -19.5t-62 -6.5q-27 0 -49.5 5.5t-43 11.5t-41 11.5t-45.5 5.5q-21 0 -53 -5.5t-60 -22.5v93q23 13 55 19t61 6q28 0 50.5 -5.5t43.5 -11.5t42.5 -11.5t47.5 -5.5zM350 257q20 0 52 6t58 23v-92q-23 -13 -56 -19.5t-62 -6.5 q-27 0 -49.5 5.5t-43 11.5t-41 11.5t-45.5 5.5q-21 0 -53 -5.5t-60 -22.5v92q23 13 55 19t61 6q28 0 50.5 -5.5t43.5 -11.5t42.5 -11.5t47.5 -5.5z" />
<glyph unicode="&#x2260;" horiz-adv-x="510" d="M50 337v93h244l51 73h94l-51 -73h72v-93h-137l-41 -56h178v-93h-243l-50 -71h-95l51 71h-73v93h137l41 56h-178z" />
<glyph unicode="&#x2264;" horiz-adv-x="512" d="M369 536l48 -75l-189 -119l190 -117l-49 -80l-273 168v54zM86 0v93h337v-93h-337z" />
<glyph unicode="&#x2265;" horiz-adv-x="512" d="M144 145l-47 75l188 119l-189 118l49 79l273 -168v-53zM423 93v-93h-337v93h337z" />
<glyph unicode="&#x25fc;" horiz-adv-x="495" d="M0 495h495v-495h-495v495z" />
<glyph unicode="&#xf6c3;" horiz-adv-x="600" d="M247 -333l-28 58q32 8 53 27.5t28 46.5h-2q-38 0 -60.5 18t-22.5 53q0 38 22 56.5t62 18.5q41 0 64 -24t23 -75q0 -34 -10 -64t-28 -53.5t-43.5 -39.5t-57.5 -22z" />
<glyph horiz-adv-x="524" d="M295 -65v831h142v-831h-142zM87 -65v831h142v-831h-142z" />
<glyph horiz-adv-x="247" d="M177 448q-68 17 -103.5 68t-35.5 127q0 52 23 76t64 24q39 0 61.5 -20t22.5 -59q0 -35 -20 -55.5t-58 -22.5q17 -57 77 -76z" />
<glyph horiz-adv-x="447" d="M175 447q-68 17 -103.5 68t-35.5 127q0 52 23 76t64 24q39 0 61.5 -20t22.5 -59q0 -35 -20 -55.5t-58 -22.5q17 -57 77 -76zM377 447q-68 17 -103.5 68t-35.5 127q0 52 23 76t64 24q39 0 61.5 -20t22.5 -59q0 -35 -20 -55.5t-58 -22.5q17 -57 77 -76z" />
<glyph horiz-adv-x="631" d="M429 10l-10 68q-25 -46 -67.5 -69t-99.5 -23q-97 0 -153.5 64.5t-56.5 192.5q0 136 59.5 201.5t159.5 65.5q56 0 97 -21t64 -65l12 73h128v-497q-55 -4 -78.5 -31t-23.5 -59q0 -29 18.5 -40t45.5 -11q17 0 34.5 4t32.5 13l22 -78q-44 -27 -101 -27q-27 0 -52.5 6 t-46 20.5t-33 38t-12.5 59.5q0 40 17.5 68.5t43.5 46.5zM407 248q0 78 -30.5 111.5t-78.5 33.5q-51 0 -77.5 -34t-26.5 -112q0 -143 104 -143q48 0 78.5 34.5t30.5 109.5z" />
<glyph horiz-adv-x="631" d="M407 248q0 78 -31 111.5t-78 33.5q-51 0 -77.5 -34t-26.5 -112q0 -143 104 -143q48 0 78.5 34.5t30.5 109.5zM428 0l-10 79q-25 -46 -67.5 -69.5t-98.5 -23.5q-97 0 -153.5 65t-56.5 192q0 136 59.5 201.5t159.5 65.5q56 0 97 -21t64 -65l12 73h128v-497h-134z" />
<glyph horiz-adv-x="631" d="M42 0zM407 248q0 78 -31 111.5t-78 33.5q-51 0 -77.5 -34t-26.5 -112q0 -143 104 -143q48 0 78.5 34.5t30.5 109.5zM428 0l-10 79q-25 -46 -67.5 -69.5t-98.5 -23.5q-97 0 -153.5 65t-56.5 192q0 136 59.5 201.5t159.5 65.5q56 0 97 -21t64 -65l12 73h128v-497h-134z M244 572l-129 127v6h174l79 -128v-5h-124z" />
<glyph horiz-adv-x="631" d="M42 0zM407 248q0 78 -31 111.5t-78 33.5q-51 0 -77.5 -34t-26.5 -112q0 -143 104 -143q48 0 78.5 34.5t30.5 109.5zM428 0l-10 79q-25 -46 -67.5 -69.5t-98.5 -23.5q-97 0 -153.5 65t-56.5 192q0 136 59.5 201.5t159.5 65.5q56 0 97 -21t64 -65l12 73h128v-497h-134z M473 698l-129 -127h-122v5l81 128h170v-6z" />
<glyph horiz-adv-x="631" d="M42 0zM292 629l-61 -58h-125v4l123 129h131l125 -129v-4h-132zM407 248q0 78 -31 111.5t-78 33.5q-51 0 -77.5 -34t-26.5 -112q0 -143 104 -143q48 0 78.5 34.5t30.5 109.5zM428 0l-10 79q-25 -46 -67.5 -69.5t-98.5 -23.5q-97 0 -153.5 65t-56.5 192q0 136 59.5 201.5 t159.5 65.5q56 0 97 -21t64 -65l12 73h128v-497h-134z" />
<glyph horiz-adv-x="631" d="M42 0zM316 645q0 38 22 56t62 18t61.5 -18t21.5 -56t-21.5 -56.5t-61.5 -18.5t-62 18.5t-22 56.5zM106 645q0 38 22 56t61 18q40 0 61.5 -18t21.5 -56t-21.5 -56.5t-61.5 -18.5q-39 0 -61 18.5t-22 56.5zM407 248q0 78 -31 111.5t-78 33.5q-51 0 -77.5 -34t-26.5 -112 q0 -143 104 -143q48 0 78.5 34.5t30.5 109.5zM428 0l-10 79q-25 -46 -67.5 -69.5t-98.5 -23.5q-97 0 -153.5 65t-56.5 192q0 136 59.5 201.5t159.5 65.5q56 0 97 -21t64 -65l12 73h128v-497h-134z" />
<glyph horiz-adv-x="631" d="M42 0zM407 248q0 78 -31 111.5t-78 33.5q-51 0 -77.5 -34t-26.5 -112q0 -143 104 -143q48 0 78.5 34.5t30.5 109.5zM428 0l-10 79q-25 -46 -67.5 -69.5t-98.5 -23.5q-97 0 -153.5 65t-56.5 192q0 136 59.5 201.5t159.5 65.5q56 0 97 -21t64 -65l12 73h128v-497h-134z M381 700h95q3 -35 -6 -58.5t-24 -37.5t-34 -20t-38 -6q-23 0 -42 5.5t-36 11.5t-32 11.5t-29 5.5q-17 0 -22.5 -10.5t-5.5 -23.5h-95q-2 35 6.5 58.5t23.5 38t34 20.5t38 6q23 0 42 -5.5t36 -12t32 -12t29 -5.5q18 0 23 10t5 24z" />
<glyph horiz-adv-x="631" d="M42 0zM407 248q0 78 -31 111.5t-78 33.5q-51 0 -77.5 -34t-26.5 -112q0 -143 104 -143q48 0 78.5 34.5t30.5 109.5zM428 0l-10 79q-25 -46 -67.5 -69.5t-98.5 -23.5q-97 0 -153.5 65t-56.5 192q0 136 59.5 201.5t159.5 65.5q56 0 97 -21t64 -65l12 73h128v-497h-134z M179 653q0 50 32.5 76.5t82.5 26.5t82 -26.5t32 -76.5q0 -51 -32 -77.5t-83 -26.5q-49 0 -81.5 26.5t-32.5 77.5zM249 653q0 -21 12 -33.5t32 -12.5t33 12.5t13 33.5t-12.5 33t-32.5 12t-32.5 -12t-12.5 -33z" />
<glyph horiz-adv-x="631" d="M42 0zM407 248q0 78 -31 111.5t-78 33.5q-51 0 -77.5 -34t-26.5 -112q0 -143 104 -143q48 0 78.5 34.5t30.5 109.5zM428 0l-10 79q-25 -46 -67.5 -69.5t-98.5 -23.5q-97 0 -153.5 65t-56.5 192q0 136 59.5 201.5t159.5 65.5q56 0 97 -21t64 -65l12 73h128v-497h-134z M440 677v-87h-289v87h289z" />
<glyph horiz-adv-x="631" d="M42 0zM407 248q0 78 -31 111.5t-78 33.5q-51 0 -77.5 -34t-26.5 -112q0 -143 104 -143q48 0 78.5 34.5t30.5 109.5zM428 0l-10 79q-25 -46 -67.5 -69.5t-98.5 -23.5q-97 0 -153.5 65t-56.5 192q0 136 59.5 201.5t159.5 65.5q56 0 97 -21t64 -65l12 73h128v-497h-134z M368 704h97q0 -40 -11.5 -67t-33.5 -43t-54 -23t-72 -7q-41 0 -72.5 7t-53.5 23t-33.5 43t-11.5 67h97q0 -36 18 -49t56 -13t56 13t18 49z" />
<glyph horiz-adv-x="630" d="M280 -221q-74 0 -135.5 24.5t-92.5 84.5l89 77q23 -40 56.5 -56.5t76.5 -16.5q60 0 94 30t34 96v56q-26 -36 -64.5 -53t-83.5 -17q-50 0 -85.5 14.5t-58.5 41t-34 62.5t-11 79v296h155v-258q0 -106 81 -106q45 0 73 32t29 98v234h157v-477q0 -65 -21 -110.5t-58 -74.5 t-88.5 -42.5t-112.5 -13.5z" />
<glyph horiz-adv-x="630" d="M52 0zM280 -221q-74 0 -135.5 24.5t-92.5 84.5l89 77q23 -40 56.5 -56.5t76.5 -16.5q60 0 94 30t34 96v56q-26 -36 -64.5 -53t-83.5 -17q-50 0 -85.5 14.5t-58.5 41t-34 62.5t-11 79v296h155v-258q0 -106 81 -106q45 0 73 32t29 98v234h157v-477q0 -65 -21 -110.5 t-58 -74.5t-88.5 -42.5t-112.5 -13.5zM472 698l-129 -127h-122v5l81 128h170v-6z" />
<glyph horiz-adv-x="630" d="M52 0zM312 629l-61 -58h-125v4l123 129h131l125 -129v-4h-132zM280 -221q-74 0 -135.5 24.5t-92.5 84.5l89 77q23 -40 56.5 -56.5t76.5 -16.5q60 0 94 30t34 96v56q-26 -36 -64.5 -53t-83.5 -17q-50 0 -85.5 14.5t-58.5 41t-34 62.5t-11 79v296h155v-258q0 -106 81 -106 q45 0 73 32t29 98v234h157v-477q0 -65 -21 -110.5t-58 -74.5t-88.5 -42.5t-112.5 -13.5z" />
<glyph horiz-adv-x="630" d="M52 0zM336 645q0 38 22 56t62 18t61.5 -18t21.5 -56t-21.5 -56.5t-61.5 -18.5t-62 18.5t-22 56.5zM126 645q0 38 22 56t61 18q40 0 61.5 -18t21.5 -56t-21.5 -56.5t-61.5 -18.5q-39 0 -61 18.5t-22 56.5zM280 -221q-74 0 -135.5 24.5t-92.5 84.5l89 77q23 -40 56.5 -56.5 t76.5 -16.5q60 0 94 30t34 96v56q-26 -36 -64.5 -53t-83.5 -17q-50 0 -85.5 14.5t-58.5 41t-34 62.5t-11 79v296h155v-258q0 -106 81 -106q45 0 73 32t29 98v234h157v-477q0 -65 -21 -110.5t-58 -74.5t-88.5 -42.5t-112.5 -13.5z" />
<glyph horiz-adv-x="393" d="M213 340q-83 0 -132 44t-49 143q0 98 49 142.5t137 44.5q110 0 153 -78l-80 -58q-23 46 -71 46q-38 0 -57 -21t-19 -76q0 -51 17 -75t58 -24q55 0 76 46l80 -45q-22 -45 -61.5 -67t-100.5 -22z" />
<glyph horiz-adv-x="452" d="M291 527q0 54 -21.5 77.5t-53.5 23.5q-35 0 -53.5 -23.5t-18.5 -77.5q0 -51 18 -75t54 -24q33 0 54 24t21 75zM306 351l-7 54q-18 -32 -48 -48.5t-69 -16.5q-69 0 -109.5 46.5t-40.5 137.5q0 97 42 143.5t114 46.5q82 0 114 -62l9 51h93v-352h-98z" />
<glyph horiz-adv-x="600" d="M361 441h-102l7 259h128z" />
<glyph horiz-adv-x="258" d="M50 -1l23 484h114l24 -484h-161zM217 626q0 -42 -22.5 -62.5t-64.5 -20.5t-65 20.5t-23 62.5q0 39 23 60t65 21t64.5 -20.5t22.5 -60.5z" />
<glyph horiz-adv-x="516" d="M328 488l6 -175h-58q-122 0 -122 -109q0 -46 30 -72.5t92 -26.5q47 0 80 20.5t59 74.5l97 -65q-74 -150 -256 -150q-118 0 -182 53.5t-64 156.5q0 97 51.5 148.5t138.5 60.5l4 84h124zM357 631q0 -42 -23 -62.5t-65 -20.5t-64.5 20.5t-22.5 62.5q0 39 22.5 60t64.5 21 t65 -20.5t23 -60.5z" />
<glyph horiz-adv-x="381" d="M332 328v-123h-282v123h282z" />
<glyph horiz-adv-x="694" d="M645 328v-123h-595v123h595z" />
<glyph horiz-adv-x="753" d="M388 -14q-168 0 -249.5 89.5t-81.5 275.5q0 190 85.5 276.5t255.5 86.5q103 0 170.5 -35.5t102.5 -113.5l-132 -70q-23 47 -55.5 65.5t-86.5 18.5q-43 0 -75.5 -11t-54.5 -37t-33.5 -70t-11.5 -111t11.5 -112t34 -72t55 -38.5t75.5 -11.5q60 0 101 32.5t45 107.5h-144 v122h294v-91q0 -87 -24 -144.5t-65.5 -92.5t-97 -49.5t-119.5 -14.5z" />
<glyph horiz-adv-x="721" d="M512 0l-254 328v-328h-166v700h166v-353l260 353h188l-267 -350l279 -350h-206z" />
<glyph horiz-adv-x="585" d="M69 0v700h158l-4 -438l182 235h163l-198 -248l210 -249h-175l-181 218l1 -218h-156z" />
<glyph horiz-adv-x="815" d="M64 2zM684 103q-45 -48 -112.5 -74.5t-155.5 -26.5q-83 0 -148.5 25t-110.5 70.5t-69 110t-24 142.5t24 142t69 109.5t110.5 70t148.5 24.5q81 0 143.5 -23t104.5 -66t64 -103t22 -133q0 -89 -44 -138t-124 -49q-39 0 -65.5 13.5t-37.5 42.5q-17 -29 -47 -46t-72 -17 q-52 0 -84.5 26t-32.5 75q0 56 40.5 84.5t112.5 28.5h66q-2 37 -22 49t-53 12q-65 0 -95 -38l-40 60q49 60 151 60q35 0 64.5 -7.5t51.5 -25t34 -45.5t12 -69v-90q0 -28 10.5 -42t36.5 -14q37 0 60.5 32t23.5 98q0 70 -20.5 121.5t-57.5 86t-88.5 51.5t-113.5 17 q-65 0 -119.5 -18.5t-94 -55.5t-61.5 -93t-22 -130q0 -75 22 -131t61.5 -92.5t94 -55t120.5 -18.5q72 0 131 21.5t100 65.5zM387 245q34 0 54 21t21 59v6h-60q-33 0 -49 -10.5t-16 -34.5q0 -41 50 -41z" />
<glyph horiz-adv-x="732" d="M62 350q0 187 72.5 275.5t231.5 88.5q158 0 231 -88.5t73 -275.5t-72.5 -275.5t-231.5 -88.5t-231.5 88t-72.5 276zM510 350q0 67 -9.5 112.5t-27.5 73.5t-45 40t-62 12t-62 -11.5t-45 -39.5t-27.5 -73.5t-9.5 -113.5t9.5 -114t27.5 -74t44.5 -39.5t61.5 -11.5t62 11.5 t45.5 39.5t28 74t9.5 114z" />
<glyph horiz-adv-x="404" d="M313 0h-162v517l-82 -53l-62 126l199 116h107v-706z" />
<glyph horiz-adv-x="617" d="M42 0v119l232 207q54 49 85 87t31 83q0 47 -28.5 67t-76.5 20q-29 0 -51.5 -6t-40.5 -18.5t-33 -31.5t-28 -44l-108 77q44 84 112.5 119t166.5 35q54 0 100 -11t79 -35t52 -61.5t19 -90.5q0 -36 -9.5 -69t-29.5 -65t-50 -65.5t-71 -70.5l-126 -117l315 4v-133h-540z" />
<glyph horiz-adv-x="626" d="M298 -14q-94 0 -161.5 31.5t-110.5 104.5l114 77q28 -48 63.5 -68t87.5 -20q58 0 90.5 23.5t32.5 73.5q0 43 -27.5 65.5t-88.5 22.5h-82v118h81q48 0 74.5 22t26.5 63q0 45 -29 66t-83 21q-50 0 -79.5 -20t-54.5 -65l-112 68q42 78 105.5 111.5t157.5 33.5 q123 0 188.5 -51t65.5 -145q0 -54 -24.5 -92.5t-68.5 -63.5q51 -21 79 -59t28 -100q0 -48 -17.5 -88t-52 -68.5t-85.5 -44.5t-118 -16z" />
<glyph horiz-adv-x="680" d="M33 152v109l212 439h161l-208 -415h219v268h152v-268h91v-133h-91v-152h-152v152h-384z" />
<glyph horiz-adv-x="610" d="M215 573l-14 -147q28 14 62 20.5t71 6.5q112 0 178 -55t66 -167q0 -115 -71.5 -180t-212.5 -65q-88 0 -158.5 29t-112.5 95l110 81q53 -83 152 -83q66 0 100 32t34 88q0 59 -35 85t-91 26q-45 0 -77.5 -12.5t-56.5 -35.5l-103 48l32 361h461v-127h-334z" />
<glyph horiz-adv-x="689" d="M374 -14q-73 0 -131 21.5t-98 65.5t-61.5 112.5t-21.5 161.5q0 183 77.5 275t235.5 92q88 0 153 -28.5t96 -88.5l-100 -83q-19 34 -50.5 56t-88.5 22q-40 0 -70.5 -13t-51.5 -41.5t-32 -74.5t-11 -112v-22q21 51 69 81t117 30q106 0 169 -55t63 -163q0 -52 -16.5 -95 t-49.5 -74.5t-82.5 -49t-115.5 -17.5zM243 215q0 -48 31 -78.5t87 -30.5q54 0 86.5 28t32.5 83q0 51 -28.5 81t-88.5 30q-51 0 -85.5 -29.5t-34.5 -83.5z" />
<glyph horiz-adv-x="543" d="M145 0q0 85 16 165.5t46 153t71.5 135t92.5 111.5l-347 -4v139h519v-112q-53 -52 -94 -113t-69.5 -133.5t-44 -157.5t-15.5 -184h-175z" />
<glyph horiz-adv-x="669" d="M334 -14q-136 0 -207.5 53.5t-71.5 153.5q0 69 34 111.5t91 60.5q-46 20 -72.5 58.5t-26.5 94.5q0 99 64 147.5t189 48.5t189.5 -48.5t64.5 -146.5q0 -57 -26.5 -95.5t-72.5 -58.5q57 -19 91 -61t34 -111q0 -100 -71.5 -153.5t-208.5 -53.5zM443 511q0 43 -28.5 66 t-78.5 23q-53 0 -81.5 -23t-28.5 -66q0 -42 28.5 -66t80.5 -24t80 24t28 66zM456 198q0 48 -33 73.5t-87 25.5q-57 0 -90 -25.5t-33 -73.5q0 -50 32.5 -75t89.5 -25q56 0 88.5 25t32.5 75z" />
<glyph horiz-adv-x="684" d="M440 482q0 49 -31 79.5t-87 30.5q-54 0 -85.5 -28.5t-31.5 -85.5q0 -51 28 -80.5t87 -29.5q51 0 85.5 30t34.5 84zM310 -14q-89 0 -156 26.5t-99 83.5l97 84q44 -72 149 -72q39 0 69.5 12.5t51.5 41t31.5 74t10.5 111.5v21q-20 -52 -68 -83.5t-117 -31.5 q-52 0 -94.5 14.5t-72.5 43t-46 70.5t-16 97q0 52 16 95.5t49 74.5t82 48.5t115 17.5q73 0 131 -21.5t98 -65.5t61 -112.5t21 -161.5q0 -182 -77.5 -274.5t-235.5 -92.5z" />
<glyph d="M31 300q0 162 73 238t209 76q135 0 208 -76.5t73 -237.5t-73.5 -237.5t-207.5 -76.5q-136 0 -209 76.5t-73 237.5zM445 300q0 54 -8.5 90t-25.5 58t-41.5 31.5t-56.5 9.5t-56.5 -9t-41.5 -31t-26 -58t-9 -90t9 -90.5t26 -58.5t41.5 -31.5t56.5 -9.5t56.5 9.5t41.5 31 t25.5 58t8.5 90.5z" />
<glyph d="M77 0v134h158v283l-78 -53l-60 126l193 116h104v-472h154v-134h-471z" />
<glyph d="M71 0l-1 109l207 167q54 43 84.5 74.5t30.5 71.5q0 35 -25.5 50.5t-66.5 15.5q-48 0 -77 -20.5t-51 -66.5l-109 69q41 78 104 111t152 33q52 0 95 -9t74 -30t48.5 -53.5t17.5 -78.5q0 -33 -9 -62t-29 -58.5t-52.5 -60.5t-79.5 -67l-103 -79l292 4v-120h-502z" />
<glyph d="M306 -114q-92 0 -158 31.5t-108 104.5l109 75q26 -48 61 -68t86 -20q59 0 92 24t33 75q0 43 -27 65.5t-87 22.5h-81v118h80q48 0 73.5 22t25.5 63q0 46 -29 67.5t-82 21.5q-49 0 -78 -20t-54 -64l-109 65q41 78 103.5 111.5t154.5 33.5q121 0 185 -51t64 -145 q0 -54 -24 -92.5t-68 -63.5q51 -21 78.5 -59t27.5 -100q0 -48 -17 -88t-51 -68.5t-84 -44.5t-116 -16z" />
<glyph d="M20 52v114l229 434h152l-217 -415h189v193h150v-193h80v-133h-80v-152h-150v152h-353z" />
<glyph d="M222 473l-14 -147q27 14 61 20.5t71 6.5q54 0 98 -13.5t75.5 -41.5t48.5 -69.5t17 -97.5q0 -115 -70.5 -180t-208.5 -65q-86 0 -155 29t-111 95l108 81q27 -43 63 -64t86 -21q64 0 99 32.5t35 89.5q0 59 -35 85t-90 26q-44 0 -76.5 -12.5t-56.5 -35.5l-100 48l33 361h449 v-127h-327z" />
<glyph d="M336 -14q-71 0 -126.5 21.5t-94.5 65.5t-59.5 112.5t-20.5 161.5q0 183 76 275t228 92q87 0 151 -28.5t95 -88.5l-99 -83q-18 34 -50 56t-88 22q-39 0 -69 -13t-50.5 -41.5t-31 -74.5t-10.5 -112v-22q21 51 68 81t114 30q51 0 92 -14t70 -41.5t44.5 -68t15.5 -94.5 q0 -52 -15.5 -95t-47.5 -74.5t-80 -49t-112 -17.5zM209 215q0 -48 31 -78.5t85 -30.5q53 0 84.5 28t31.5 83q0 51 -27.5 81t-86.5 30q-51 0 -84.5 -29.5t-33.5 -83.5z" />
<glyph d="M169 -100q0 85 16 165.5t45.5 153t71 135t91.5 111.5l-343 -4v139h513v-112q-104 -104 -162 -247t-58 -341h-174z" />
<glyph d="M306 -14q-134 0 -203.5 53.5t-69.5 155.5q0 68 32.5 110t88.5 60q-45 20 -70.5 58.5t-25.5 94.5q0 101 63.5 148.5t185.5 47.5t185 -47.5t63 -147.5q0 -57 -25.5 -95.5t-70.5 -58.5q56 -18 88.5 -59.5t32.5 -110.5q0 -102 -69 -155.5t-205 -53.5zM415 511q0 43 -28.5 66 t-78.5 23q-52 0 -80.5 -23t-28.5 -66q0 -42 28 -66t80 -24q51 0 79.5 24t28.5 66zM427 198q0 48 -32.5 73.5t-86.5 25.5q-56 0 -89 -25.5t-33 -73.5q0 -50 32.5 -75t88.5 -25q55 0 87.5 25t32.5 75z" />
<glyph d="M413 382q0 49 -31 79.5t-85 30.5q-53 0 -84.5 -28.5t-31.5 -85.5q0 -51 27.5 -81t86.5 -30q51 0 84.5 30.5t33.5 84.5zM285 -114q-88 0 -153 26.5t-97 83.5l96 84q43 -72 145 -72q38 0 68 12.5t50.5 41t31 74t10.5 111.5v21q-20 -51 -66.5 -82t-112.5 -31 q-102 0 -163.5 57t-61.5 166q0 52 15.5 95.5t47.5 74.5t79.5 48.5t112.5 17.5q70 0 126 -21.5t95 -65.5t59.5 -112.5t20.5 -161.5q0 -182 -75.5 -274.5t-227.5 -92.5z" />
<glyph horiz-adv-x="650" d="M47 300q0 162 71.5 238t205.5 76q136 0 208 -76t72 -238q0 -161 -73.5 -237.5t-206.5 -76.5q-134 0 -205.5 76t-71.5 238zM450 300q0 54 -8 90t-24 58t-39.5 31.5t-54.5 9.5q-30 0 -53 -9t-39 -31t-24 -58t-8 -90t8 -90.5t24 -58.5t39 -31.5t53 -9.5q31 0 54.5 9.5 t39.5 31t24 58t8 90.5z" />
<glyph horiz-adv-x="372" d="M298 0h-158v417l-78 -53l-59 126l191 116h104v-606z" />
<glyph horiz-adv-x="549" d="M43 0l-1 102l197 176q48 43 74 75.5t26 70.5q0 35 -22.5 50t-57.5 15q-43 0 -69.5 -20.5t-49.5 -64.5l-108 68q38 76 97 109t145 33q48 0 89 -9.5t71 -29.5t47 -52t17 -77q0 -32 -9.5 -60.5t-28 -57t-45.5 -58t-63 -62.5l-101 -95l260 5v-118h-468z" />
<glyph horiz-adv-x="603" d="M285 -115q-91 0 -155 31.5t-106 105.5l110 74q26 -48 59 -68.5t82 -20.5q58 0 91 24.5t33 75.5q0 44 -27 66.5t-86 22.5h-79v118h78q46 0 71.5 21.5t25.5 63.5q0 45 -28.5 67.5t-80.5 22.5q-47 0 -74.5 -20.5t-50.5 -64.5l-110 65q40 78 100.5 111.5t151.5 33.5 q121 0 184.5 -51t63.5 -145q0 -54 -24 -92.5t-67 -63.5q50 -21 78 -59t28 -100q0 -49 -17 -89t-51 -68.5t-84 -44.5t-116 -16z" />
<glyph horiz-adv-x="657" d="M33 52v107l203 441h155l-198 -419h211v272h148v-272h85v-129h-85v-152h-148v152h-371z" />
<glyph horiz-adv-x="588" d="M210 475l-14 -149q26 14 59 20.5t68 6.5q54 0 97.5 -13.5t74 -41.5t47.5 -69.5t17 -98.5q0 -115 -69.5 -179.5t-204.5 -64.5q-87 0 -155 29t-110 95l108 81q26 -45 61 -65t86 -20q61 0 94.5 32.5t33.5 88.5q0 60 -33 86t-90 26q-40 0 -71 -12.5t-55 -35.5l-101 48l32 361 h445v-125h-320z" />
<glyph horiz-adv-x="662" d="M361 -14q-71 0 -127 21.5t-94.5 65.5t-59 112.5t-20.5 161.5q0 183 75 275t228 92q86 0 149.5 -28.5t92.5 -88.5l-99 -83q-18 34 -48.5 56t-85.5 22q-39 0 -68.5 -13t-49.5 -41.5t-30.5 -74.5t-10.5 -112v-22q20 51 67 81t114 30q101 0 160.5 -55t59.5 -163 q0 -52 -15.5 -95t-47 -74.5t-79 -49t-111.5 -17.5zM236 215q0 -48 29.5 -78.5t82.5 -30.5q52 0 83 28t31 83q0 51 -27 81t-85 30q-49 0 -81.5 -29.5t-32.5 -83.5z" />
<glyph horiz-adv-x="524" d="M140 -100q0 85 15.5 165.5t44 153t68.5 135t89 111.5l-333 -4v139h500v-112q-101 -104 -157 -247t-57 -341h-170z" />
<glyph horiz-adv-x="647" d="M323 -14q-132 0 -200.5 53.5t-68.5 155.5q0 68 31.5 110t86.5 60q-44 20 -69 58.5t-25 94.5q0 101 62 148.5t183 47.5t183.5 -47.5t62.5 -147.5q0 -57 -25 -95.5t-69 -58.5q54 -18 86 -59.5t32 -110.5q0 -102 -68 -155.5t-202 -53.5zM426 511q0 43 -26.5 66t-74.5 23 q-51 0 -78 -23t-27 -66q0 -42 26.5 -66t76.5 -24q51 0 77 24t26 66zM439 198q0 48 -31 73.5t-83 25.5q-54 0 -85.5 -25.5t-31.5 -73.5q0 -50 30.5 -74.5t84.5 -24.5t85 24.5t31 74.5z" />
<glyph horiz-adv-x="661" d="M427 382q0 49 -30 79.5t-83 30.5q-51 0 -81 -28.5t-30 -85.5q0 -51 26 -80.5t82 -29.5q50 0 83 30t33 84zM301 -114q-87 0 -152 26.5t-97 83.5l97 84q43 -72 144 -72q38 0 67.5 12.5t50 41t31 74t10.5 111.5v21q-20 -52 -67 -83.5t-114 -31.5q-101 0 -161 57.5t-60 167.5 q0 52 15.5 95.5t47 74.5t79.5 48.5t112 17.5q70 0 126 -21.5t95 -65.5t59.5 -112.5t20.5 -161.5q0 -182 -75 -274.5t-229 -92.5z" />
<glyph horiz-adv-x="445" d="M32 0zM32 3q0 110 45 164t144 54q100 0 145 -54t45 -164q0 -109 -45 -162.5t-145 -53.5q-99 0 -144 53.5t-45 162.5zM296 3q0 73 -19.5 100.5t-55.5 27.5t-55.5 -27.5t-19.5 -99.5q0 -73 19.5 -100.5t55.5 -27.5t55.5 27.5t19.5 99.5z" />
<glyph horiz-adv-x="264" d="M7 0zM210 -200h-116v282l-44 -26l-43 87l127 70h76v-413z" />
<glyph horiz-adv-x="384" d="M12 0zM27 -200v79l138 118q29 25 44.5 45t15.5 43q0 24 -15 33t-38 9q-32 0 -49.5 -13t-33.5 -40l-77 54q29 51 71.5 71.5t102.5 20.5q32 0 60.5 -6t50 -20.5t34 -37.5t12.5 -56q0 -44 -23.5 -80t-67.5 -75l-60 -54l166 4v-95h-331z" />
<glyph horiz-adv-x="384" d="M16 0zM184 -213q-57 0 -99.5 19t-68.5 64l80 53q16 -27 35 -37t46 -10q29 0 46 11t17 34q0 42 -62 42h-43v81h43q52 0 52 43q0 41 -56 41q-26 0 -41.5 -10.5t-29.5 -34.5l-80 46q26 50 66 70.5t97 20.5q78 0 118.5 -31.5t40.5 -88.5q0 -31 -14.5 -54t-40.5 -38 q29 -13 45.5 -34.5t16.5 -57.5q0 -59 -43.5 -94t-124.5 -35z" />
<glyph horiz-adv-x="424" d="M22 0zM22 -119v76l122 252h113l-118 -235h111v136h108v-136h47v-93h-47v-81h-108v81h-228z" />
<glyph horiz-adv-x="376" d="M11 0zM143 121l-8 -67q33 11 71 11q72 0 111 -33t39 -99q0 -69 -44.5 -107t-130.5 -38q-54 0 -98.5 17t-71.5 57q0 1 12.5 9.5t26.5 19l26 19.5l13 9q30 -43 85 -43q32 0 49.5 15t17.5 41q0 29 -18.5 42t-47.5 13q-42 0 -68 -25l-74 34l18 212h288v-88z" />
<glyph horiz-adv-x="416" d="M31 0zM223 -212q-93 0 -142.5 51.5t-49.5 162.5q0 106 46.5 162t146.5 56q54 0 94.5 -18t59.5 -54l-69 -59q-9 17 -26.5 30.5t-50.5 13.5q-45 0 -67.5 -28.5t-21.5 -97.5v-5q13 24 39.5 40t64.5 16q62 0 98.5 -33t36.5 -97q0 -61 -39 -100.5t-120 -39.5zM155 -73 q0 -23 15 -38t44 -15q26 0 42.5 13.5t16.5 39.5q0 23 -14 37t-44 14q-26 0 -43 -13t-17 -38z" />
<glyph horiz-adv-x="342" d="M16 0zM212 -200h-127q0 98 36 179t93 135l-198 -3v97h320v-76q-32 -35 -55.5 -70.5t-38.5 -76t-22.5 -86t-7.5 -99.5z" />
<glyph horiz-adv-x="410" d="M31 0zM203 -212q-84 0 -128 31t-44 94q0 39 17.5 63.5t49.5 36.5q-23 14 -37.5 36t-14.5 52q0 61 40 90t117 29q78 0 118 -29t40 -90q0 -30 -14.5 -52t-38.5 -36q67 -24 67 -100q0 -125 -172 -125zM258 96q0 20 -14.5 31t-39.5 11q-26 0 -40.5 -11t-14.5 -31 q0 -22 14 -33.5t40 -11.5t40.5 11.5t14.5 33.5zM263 -85q0 23 -15.5 35.5t-42.5 12.5q-29 0 -45.5 -12.5t-16.5 -35.5t16 -35.5t44 -12.5q29 0 44.5 12.5t15.5 35.5z" />
<glyph horiz-adv-x="414" d="M27 0zM254 78q0 26 -16 40t-44 14q-26 0 -41.5 -13.5t-15.5 -39.5q0 -24 13.5 -39t43.5 -15q25 0 42.5 13.5t17.5 39.5zM184 -212q-50 0 -93.5 15.5t-63.5 48.5l68 62q11 -19 32.5 -29t50.5 -10q52 0 71.5 34t17.5 92q-12 -25 -39 -40.5t-65 -15.5q-61 0 -98.5 34 t-37.5 98q0 63 39 103t124 40q89 0 139 -51.5t50 -162.5q0 -106 -47 -162t-148 -56z" />
<glyph horiz-adv-x="315" d="M28 0zM200 -142h-85v88h-87v70h87v89h85v-89h87v-70h-87v-88z" />
<glyph horiz-adv-x="315" d="M28 0zM287 16v-70h-259v70h259z" />
<glyph horiz-adv-x="315" d="M28 0zM287 64v-72h-259v72h259zM287 -33v-72h-259v72h259z" />
<glyph horiz-adv-x="232" d="M24 0zM213 -206l-9 -87q-93 8 -136.5 73t-43.5 186q0 119 43 183.5t134 72.5l12 -86q-50 -6 -75.5 -43t-25.5 -127q0 -46 6.5 -77.5t19 -51.5t31.5 -30t44 -13z" />
<glyph horiz-adv-x="232" d="M18 0zM28 -293l-10 87q25 3 44 13t32 30t19.5 51.5t6.5 77.5q0 90 -26 127t-76 43l13 86q91 -8 134 -72.5t43 -183.5q0 -121 -43.5 -186t-136.5 -73z" />
<glyph horiz-adv-x="298" d="M58 643q0 43 23.5 62.5t67.5 19.5t67.5 -19.5t23.5 -62.5q0 -42 -23.5 -61.5t-67.5 -19.5t-67.5 19.5t-23.5 61.5zM70 497h158v-497h-158v497z" />
<glyph horiz-adv-x="588" d="M69 0zM260 -333l-28 58q32 8 53 27.5t28 46.5h-2q-38 0 -60.5 18t-22.5 53q0 38 22 56.5t62 18.5q41 0 64 -24t23 -75q0 -34 -10 -64t-28 -53.5t-43.5 -39.5t-57.5 -22zM69 0v700h158l-4 -438l182 235h163l-198 -248l210 -249h-175l-181 218l1 -218h-156z" />
<glyph horiz-adv-x="753" d="M468 907h97q0 -40 -11.5 -67t-33.5 -43t-54 -22.5t-72 -6.5q-41 0 -72.5 6.5t-53.5 22.5t-33.5 43t-11.5 67h97q0 -36 17.5 -49t55.5 -13t56.5 13t18.5 49zM388 -14q-168 0 -249.5 89.5t-81.5 275.5q0 190 85.5 276.5t255.5 86.5q103 0 170.5 -35.5t102.5 -113.5 l-132 -70q-23 47 -55.5 65.5t-86.5 18.5q-43 0 -75.5 -11t-54.5 -37t-33.5 -70t-11.5 -111t11.5 -112t34 -72t55 -38.5t75.5 -11.5q60 0 101 32.5t45 107.5h-144v122h294v-91q0 -87 -24 -144.5t-65.5 -92.5t-97 -49.5t-119.5 -14.5z" />
<glyph horiz-adv-x="753" d="M393 832l-61 -57h-125v3l123 130h131l125 -130v-3h-132zM388 -14q-168 0 -249.5 89.5t-81.5 275.5q0 190 85.5 276.5t255.5 86.5q103 0 170.5 -35.5t102.5 -113.5l-132 -70q-23 47 -55.5 65.5t-86.5 18.5q-43 0 -75.5 -11t-54.5 -37t-33.5 -70t-11.5 -111t11.5 -112 t34 -72t55 -38.5t75.5 -11.5q60 0 101 32.5t45 107.5h-144v122h294v-91q0 -87 -24 -144.5t-65.5 -92.5t-97 -49.5t-119.5 -14.5z" />
<glyph horiz-adv-x="753" d="M388 -14q-168 0 -249.5 89.5t-81.5 275.5q0 190 85.5 276.5t255.5 86.5q103 0 170.5 -35.5t102.5 -113.5l-132 -70q-23 47 -55.5 65.5t-86.5 18.5q-43 0 -75.5 -11t-54.5 -37t-33.5 -70t-11.5 -111t11.5 -112t34 -72t55 -38.5t75.5 -11.5q60 0 101 32.5t45 107.5h-144 v122h294v-91q0 -87 -24 -144.5t-65.5 -92.5t-97 -49.5t-119.5 -14.5zM331 -333l-28 58q32 8 53 27.5t28 46.5h-2q-39 0 -61 18t-22 53q0 38 22 56.5t62 18.5q41 0 64 -24t23 -75q0 -34 -10 -64t-28 -53.5t-43.5 -39.5t-57.5 -22z" />
<glyph horiz-adv-x="753" d="M307 848q0 39 23 57.5t65 18.5q41 0 63.5 -18.5t22.5 -57.5q0 -38 -22.5 -56.5t-63.5 -18.5q-42 0 -65 18.5t-23 56.5zM388 -14q-168 0 -249.5 89.5t-81.5 275.5q0 190 85.5 276.5t255.5 86.5q103 0 170.5 -35.5t102.5 -113.5l-132 -70q-23 47 -55.5 65.5t-86.5 18.5 q-43 0 -75.5 -11t-54.5 -37t-33.5 -70t-11.5 -111t11.5 -112t34 -72t55 -38.5t75.5 -11.5q60 0 101 32.5t45 107.5h-144v122h294v-91q0 -87 -24 -144.5t-65.5 -92.5t-97 -49.5t-119.5 -14.5z" />
<glyph horiz-adv-x="721" d="M92 0zM329 -333l-28 58q32 8 53 27.5t28 46.5h-2q-38 0 -60.5 18t-22.5 53q0 38 22 56.5t62 18.5q41 0 64 -24t23 -75q0 -34 -10 -64t-28 -53.5t-43.5 -39.5t-57.5 -22zM512 0l-254 328v-328h-166v700h166v-353l260 353h188l-267 -350l279 -350h-206z" />
<glyph horiz-adv-x="477" d="M428 412v-123h-378v123h378z" />
<glyph horiz-adv-x="589" d="M541 412v-123h-491v123h491z" />
<glyph horiz-adv-x="789" d="M740 412v-123h-690v123h690z" />
<glyph horiz-adv-x="589" d="M541 412v-123h-491v123h491z" />
<glyph horiz-adv-x="298" d="M228 700v-700h-158v700h158z" />
<glyph horiz-adv-x="696" d="M97 0v382h-81v115h81v38q0 102 52 148.5t137 46.5q35 0 64 -8.5t47 -20.5l-27 -103q-12 6 -25.5 10t-28.5 4q-32 0 -48.5 -17.5t-16.5 -62.5v-35h130v-115h-130v-382h-154zM620 700v-700h-158v700h158z" />
<glyph horiz-adv-x="696" d="M0 0z" />
</font>
</defs>
</svg>
