<?xml version="1.0" encoding="UTF-8" standalone="no"?>
<svg width="200px" height="57px" viewBox="0 0 200 57" version="1.1" xmlns="http://www.w3.org/2000/svg" xmlns:xlink="http://www.w3.org/1999/xlink">
    <!-- Generator: Sketch 42 (36781) - http://www.bohemiancoding.com/sketch -->
    <title>Honeywell-Logo-Red</title>
    <desc>Created with Sketch.</desc>
    <defs>
        <polygon id="path-1" points="0.2673485 30.6542929 78.809665 30.6542929 78.809665 0.47758566 0.2673485 0.47758566"></polygon>
        <polygon id="path-3" points="0.2673485 30.6542929 78.809665 30.6542929 78.809665 0.47758566 0.2673485 0.47758566"></polygon>
    </defs>
    <g id="Page-1" stroke="none" stroke-width="1" fill="none" fill-rule="evenodd">
        <g id="Honeywell-Logo-Red">
            <g id="honeywell-logo-red">
                <polyline id="Fill-1" fill="#CF292A" fill-rule="nonzero" points="16.02 12.2022222 9.01166667 12.2022222 9.01166667 0.0172727273 0 0.0172727273 0 29.2755934 9.01166667 29.2755934 9.01166667 15.9268939 16.02 15.9268939 16.02 29.2755934 24.955 29.2755934 24.955 0.0172727273 16.02 0.0172727273 16.02 12.2022222"></polyline>
                <path d="M42.5033333,22.7196338 C42.4416667,23.4249369 42.1383333,25.8128914 40.815,26.9313005 C40.3516667,27.3225758 39.8233333,27.4871465 39.3116667,27.4149369 C38.685,27.3242551 38.0933333,26.8977146 37.6416667,26.2159217 C36.8183333,24.9698864 36.4866667,23.8262879 36.5516667,19.9739899 C36.5666667,19.1326641 36.5666667,18.3517929 36.5683333,17.6263384 C36.5716667,15.1141162 36.575,13.3004798 37.1033333,12.1384091 C37.7083333,10.8084091 38.3683333,10.0661616 39.0666667,9.93349747 C39.2233333,9.9032702 39.3716667,9.88815657 39.5133333,9.88815657 C40.8133333,9.88815657 41.585,11.117399 42.015,12.2089394 C42.2516667,12.8151641 42.5116667,14.0494444 42.53,15.7018687 C42.5616667,18.5835354 42.565,22.0092929 42.5033333,22.7196338 Z M44.43,7.97376263 C42.0933333,7.05015152 39.19,7.21808081 39.19,7.21808081 C39.065,7.21808081 38.1833333,7.18785354 36.8483333,7.42799242 C35.3516667,7.69164141 32.1,8.32137626 29.5216667,11.7672854 C26.945,15.2148737 27.3283333,19.5759975 27.9533333,22.0143308 C28.5783333,24.4509848 29.955,26.2528662 32,27.8918561 C34.0433333,29.530846 37.0883333,30.0581439 39.4666667,30.0581439 C41.8433333,30.0581439 44.2633333,29.6215278 45.8066667,28.780202 C47.3516667,27.9405556 49.665,26.3066035 50.8133333,22.9866414 C51.96,19.665 51.7716667,15.577601 50.145,12.7614268 C48.5183333,9.94525253 46.7666667,8.89905303 44.43,7.97376263 L44.43,7.97376263 Z" id="Fill-2" fill="#CF292A" fill-rule="nonzero"></path>
                <path d="M72.815,8.01070707 C69.8183333,6.72772727 66.88,7.49180556 65.1833333,8.30962121 C63.485,9.12743687 62.385,10.8168056 62.3333333,10.8050505 L62.3333333,7.92842172 L53.9716667,7.92842172 L53.9716667,29.2755934 L62.3333333,29.2772727 L62.3333333,13.9285354 C62.3333333,13.622904 63.3383333,12.4910606 64.48,11.8730808 C65.6216667,11.2584596 66.9816667,11.6043939 67.4533333,12.1770328 C68.125,12.9898106 68.125,13.9083838 68.125,14.4222475 L68.125,29.2755934 L76.3766667,29.2755934 L76.3633333,13.0250758 C76.3033333,11.9973485 75.81,9.29368687 72.815,8.01070707" id="Fill-3" fill="#CF292A" fill-rule="nonzero"></path>
                <path d="M94.04,16.8924874 L87.83,16.8924874 C87.8233333,16.2593939 87.815,14.0931061 88.0133333,12.9797348 C88.2466667,11.6648485 88.9633333,10.630404 89.5683333,10.1870707 C90.33,9.63458333 91.815,9.60771465 92.5916667,10.4036995 C93.385,11.2198359 93.5833333,11.8898737 93.7016667,12.2912247 L93.7216667,12.3583965 C93.845,12.7647854 94.065,13.9973864 94.05,15.1443434 C94.035,16.17375 94.035,16.6573864 94.04,16.8924874 Z M91.34,7.21304293 C86.1116667,6.94603535 81.8683333,9.63794192 80.205,13.0116414 C78.5433333,16.3870202 78.7583333,20.370303 79.4766667,22.4140025 C80.0583333,24.0664268 80.9466667,25.8615909 82.9183333,27.5156944 C86.29,30.345303 90.4683333,30.2596591 93.4216667,29.9540278 C96.3766667,29.6500758 99.015,28.1773359 100.503333,26.7482576 C101.991667,25.3225379 102.035,23.1612879 102.035,23.1612879 L98.45,23.1596086 C98.3583333,23.1596086 98.485,26.4258333 93.9516667,27.1479293 C89.865,27.7994949 88.66,26.0244823 88.32,25.5660354 C87.9783333,25.1092677 87.8266667,24.2309975 87.8266667,24.2309975 L87.8266667,19.8967424 L102.741667,19.8967424 C102.768333,19.8967424 102.991667,15.9604798 101.411667,12.9360732 C99.57,9.40116162 96.565,7.48005051 91.34,7.21304293 L91.34,7.21304293 Z" id="Fill-4" fill="#CF292A" fill-rule="nonzero"></path>
                <g id="Fill-5-Clipped" transform="translate(100.000000, 6.717172)">
                    <mask id="mask-2" fill="white">
                        <use xlink:href="#path-1"></use>
                    </mask>
                    <g id="path-1"></g>
                    <path d="M70.1016667,10.1753157 L63.8883333,10.1753157 C63.8816667,9.54222222 63.875,7.37593434 64.0733333,6.26256313 C64.3083333,4.94599747 65.025,3.91155303 65.63,3.46989899 C66.3916667,2.91573232 67.8766667,2.88886364 68.65,3.68652778 C69.445,4.50266414 69.6433333,5.17438131 69.7616667,5.57573232 L69.7816667,5.64122475 C69.9033333,6.04593434 70.125,7.27853535 70.1083333,8.42717172 C70.0966667,9.45657828 70.0966667,9.94021465 70.1016667,10.1753157 Z M67.3983333,0.495871212 C62.175,0.228863636 57.9266667,2.9207702 56.2666667,6.2944697 C54.6033333,9.66984848 54.8183333,13.6531313 55.5366667,15.6968308 C56.1166667,17.3492551 57.005,19.1444192 58.9783333,20.7985227 C62.35,23.6281313 66.5266667,23.5424874 69.4816667,23.2368561 C72.435,22.932904 75.075,21.4601641 76.5633333,20.0310859 C78.0533333,18.6053662 78.095,16.4441162 78.095,16.4441162 L74.5116667,16.4424369 C74.42,16.4424369 74.545,19.7069823 70.0133333,20.4307576 C65.925,21.0823232 64.7166667,19.3073106 64.3783333,18.8488636 C64.0366667,18.392096 63.8866667,17.5138258 63.8866667,17.5138258 L63.8866667,13.1795707 L78.78,13.1795707 C78.8083333,13.1795707 79.05,9.24330808 77.4733333,6.21890152 C75.6283333,2.6839899 72.6233333,0.762878788 67.3983333,0.495871212 L67.3983333,0.495871212 Z" id="Fill-5" fill="#CF292A" fill-rule="nonzero" mask="url(#mask-2)"></path>
                </g>
                <g id="Fill-7-Clipped" transform="translate(100.000000, 6.717172)">
                    <mask id="mask-4" fill="white">
                        <use xlink:href="#path-3"></use>
                    </mask>
                    <g id="path-1"></g>
                    <path d="M51.685,1.21125 L48.47,13.1795707 L44.8716667,1.21125 L37.565,1.21125 L34.3183333,13.1795707 L30.6216667,1.21125 L19.1716667,1.21125 L15.01,11.3760101 L11.1166667,1.21125 L2.00833333,1.21125 L10.4683333,23.0806818 C10.4683333,23.0806818 10.4683333,23.2889141 10.29,23.9119318 C10.1133333,24.5366288 9.525,26.0815783 8.49333333,27.1798359 C7.46166667,28.2780934 6.34166667,27.9825379 6.34166667,27.9825379 C6.34166667,27.9825379 6.78333333,27.5946212 7.04833333,26.9716035 C7.315,26.3485859 7.22666667,25.248649 6.755,24.2679419 C6.28333333,23.2889141 4.98333333,22.5164394 2.98166667,22.9009975 C0.975,23.2889141 0.09,25.1294192 0.296666667,26.882601 C0.503333333,28.6341035 1.625,30.1202778 4.45333333,30.6257449 C7.285,31.1312121 8.99333333,30.0900505 10.5566667,28.6928788 C12.1183333,27.2973864 13.385,23.7322475 13.385,23.7322475 L22.2,1.96021465 L28.465,22.5584217 L35.54,22.5584217 L38.9166667,10.1753157 L42.7383333,22.5584217 L49.6316667,22.5584217 L55.4583333,1.21125 L51.685,1.21125" id="Fill-7" fill="#CF292A" fill-rule="nonzero" mask="url(#mask-4)"></path>
                </g>
                <polyline id="Fill-9" fill="#CF292A" fill-rule="nonzero" points="181.283333 29.2755934 189.31 29.2755934 189.31 0.0172727273 181.281667 0.0172727273 181.283333 29.2755934"></polyline>
                <polygon id="Fill-10" fill="#CF292A" fill-rule="nonzero" points="191.816667 29.2755934 199.843333 29.2755934 199.843333 0.0172727273 191.816667 0.0172727273"></polygon>
            </g>
            <path d="M0.169,46.9 L0.169,47.537 L3.302,47.537 L3.302,56 L4.043,56 L4.043,47.537 L7.176,47.537 L7.176,46.9 L0.169,46.9 Z M15.975,56 L16.729,56 L16.729,46.9 L15.975,46.9 L15.975,51.099 L10.294,51.099 L10.294,46.9 L9.53999999,46.9 L9.53999999,56 L10.294,56 L10.294,51.749 L15.975,51.749 L15.975,56 Z M20.419,56 L26.919,56 L26.919,55.363 L21.147,55.363 L21.147,51.749 L26.087,51.749 L26.087,51.099 L21.147,51.099 L21.147,47.537 L26.789,47.537 L26.789,46.9 L20.419,46.9 L20.419,56 Z M33.298,56 L33.298,46.9 L36.743,46.9 C38.849,46.9 39.785,47.875 39.785,49.708 C39.785,51.502 38.823,52.646 36.717,52.646 L34.052,52.646 L34.052,56 L33.298,56 Z M36.756,47.537 L34.052,47.537 L34.052,52.009 L36.808,52.009 C38.186,52.009 39.031,51.242 39.031,49.734 C39.031,48.239 38.303,47.537 36.756,47.537 Z M46.1789999,56.143 C43.5659999,56.143 42.2139999,54.804 42.2139999,51.45 C42.2139999,48.083 43.5919999,46.757 46.1789999,46.757 C48.8439999,46.757 50.1699999,48.083 50.1699999,51.45 C50.1699999,54.804 48.7789999,56.143 46.1789999,56.143 Z M46.1789999,47.381 C44.1379999,47.381 42.9679999,48.33 42.9679999,51.45 C42.9679999,54.518 44.1379999,55.519 46.1789999,55.519 C48.2329999,55.519 49.4159999,54.544 49.4159999,51.437 C49.4159999,48.369 48.2329999,47.381 46.1789999,47.381 Z M57.3959999,46.965 L55.1469999,54.96 L52.8069999,46.9 L52.0399999,46.9 L54.7699999,56 L55.5239999,56 L57.7469999,48.044 L59.9959999,56 L60.7369999,56 L63.5059999,46.9 L62.7779999,46.9 L60.3859999,54.921 L58.1369999,46.965 L57.3959999,46.965 Z M65.8569999,56 L72.3569999,56 L72.3569999,55.363 L66.5849999,55.363 L66.5849999,51.749 L71.5249999,51.749 L71.5249999,51.099 L66.5849999,51.099 L66.5849999,47.537 L72.2269999,47.537 L72.2269999,46.9 L65.8569999,46.9 L65.8569999,56 Z M78.4909999,47.537 L75.7999999,47.537 L75.7999999,51.736 L78.5429999,51.736 C79.9079999,51.736 80.7399999,51.034 80.7399999,49.604 C80.7399999,48.213 80.0119999,47.537 78.4909999,47.537 Z M75.0459999,56 L75.0459999,46.9 L78.4779999,46.9 C80.5579999,46.9 81.4809999,47.823 81.4809999,49.578 C81.4809999,50.943 80.8699999,51.918 79.5699999,52.256 L81.6109999,56 L80.7919999,56 L78.8029999,52.373 C78.7379999,52.386 78.6729999,52.386 78.5949999,52.386 L75.7999999,52.386 L75.7999999,56 L75.0459999,56 Z M91.5649999,56.143 C88.9519999,56.143 87.5999999,54.804 87.5999999,51.45 C87.5999999,48.083 88.9779999,46.757 91.5649999,46.757 C94.2299999,46.757 95.5559999,48.083 95.5559999,51.45 C95.5559999,54.804 94.1649999,56.143 91.5649999,56.143 Z M91.5649999,47.381 C89.5239999,47.381 88.3539999,48.33 88.3539999,51.45 C88.3539999,54.518 89.5239999,55.519 91.5649999,55.519 C93.6189999,55.519 94.8019999,54.544 94.8019999,51.437 C94.8019999,48.369 93.6189999,47.381 91.5649999,47.381 Z M98.7649999,56 L99.5189999,56 L99.5189999,51.827 L104.381,51.827 L104.381,51.177 L99.5189999,51.177 L99.5189999,47.537 L104.94,47.537 L104.94,46.9 L98.7649999,46.9 L98.7649999,56 Z" id="THE-POWER-OF-Copy" fill="#303030"></path>
            <path d="M115.109,56.182 C117.033,56.182 118.242,55.454 118.905,54.037 L117.202,53.192 C116.786,54.115 116.11,54.479 115.174,54.479 C113.718,54.479 112.886,53.777 112.886,51.463 C112.886,49.123 113.718,48.473 115.161,48.473 C116.136,48.473 116.669,48.746 117.085,49.656 L118.788,48.772 C118.177,47.316 116.994,46.718 115.174,46.718 C112.223,46.718 110.741,48.122 110.741,51.437 C110.741,54.687 112.145,56.182 115.109,56.182 Z M124.965,56.182 C121.897,56.182 120.558,54.648 120.558,51.437 C120.558,48.226 121.988,46.718 124.978,46.718 C128.085,46.718 129.385,48.239 129.385,51.45 C129.385,54.661 127.955,56.182 124.965,56.182 Z M124.965,48.46 C123.47,48.46 122.703,49.188 122.703,51.463 C122.703,53.686 123.47,54.453 124.965,54.453 C126.46,54.453 127.227,53.699 127.227,51.437 C127.227,49.214 126.46,48.46 124.965,48.46 Z M138.162,56 L140.034,56 L140.034,46.9 L138.006,46.9 L138.058,52.971 L133.612,46.9 L131.935,46.9 L131.935,56 L133.95,56 L133.898,50.228 L138.162,56 Z M149.266,56 L151.138,56 L151.138,46.9 L149.11,46.9 L149.162,52.971 L144.716,46.9 L143.039,46.9 L143.039,56 L145.054,56 L145.002,50.228 L149.266,56 Z M154.143,56 L161.254,56 L161.254,54.323 L156.223,54.323 L156.223,52.256 L160.461,52.256 L160.461,50.566 L156.223,50.566 L156.223,48.577 L161.124,48.577 L161.124,46.9 L154.143,46.9 L154.143,56 Z M167.405,56.182 C169.329,56.182 170.538,55.454 171.201,54.037 L169.498,53.192 C169.082,54.115 168.406,54.479 167.47,54.479 C166.014,54.479 165.182,53.777 165.182,51.463 C165.182,49.123 166.014,48.473 167.457,48.473 C168.432,48.473 168.965,48.746 169.381,49.656 L171.084,48.772 C170.473,47.316 169.29,46.718 167.47,46.718 C164.519,46.718 163.037,48.122 163.037,51.437 C163.037,54.687 164.441,56.182 167.405,56.182 Z M172.62,46.9 L172.62,48.694 L175.402,48.694 L175.402,56 L177.534,56 L177.534,48.694 L180.316,48.694 L180.316,46.9 L172.62,46.9 Z M182.307,56 L189.418,56 L189.418,54.323 L184.387,54.323 L184.387,52.256 L188.625,52.256 L188.625,50.566 L184.387,50.566 L184.387,48.577 L189.288,48.577 L189.288,46.9 L182.307,46.9 L182.307,56 Z M195.569,56 L191.799,56 L191.799,46.9 L195.712,46.9 C198.533,46.9 199.846,48.304 199.846,51.385 C199.846,54.44 198.468,56 195.569,56 Z M193.931,54.284 L195.413,54.284 C196.817,54.284 197.701,53.569 197.701,51.424 C197.701,49.435 196.96,48.616 195.595,48.616 L193.931,48.616 L193.931,54.284 Z" id="CONNECTED-Copy" fill="#303030"></path>
        </g>
    </g>
</svg>