<?xml version="1.0" encoding="UTF-8" standalone="no"?>
<svg width="144px" height="27px" viewBox="0 0 144 27" version="1.1" xmlns="http://www.w3.org/2000/svg" xmlns:xlink="http://www.w3.org/1999/xlink">
    <!-- Generator: Sketch 3.8.3 (29802) - http://www.bohemiancoding.com/sketch -->
    <title>Honeywell Logo</title>
    <desc>Created with Sketch.</desc>
    <defs></defs>
    <g id="DLS-/-Contents-/-Layout-/-Headers" stroke="none" stroke-width="1" fill="none" fill-rule="evenodd">
        <g id="DLS-/-COMPONENTS-/-INPUTS-/-Textfields" transform="translate(-30.000000, -36.000000)" fill="#FFFFFF">
            <g id="Side-Navigation" transform="translate(0.000000, 36.000000)">
                <path d="M168.215856,0.160430233 L174,0.160430233 L174,20.9298349 L168.215856,20.9298349 L168.215856,0.160430233 L168.215856,0.160430233 L168.215856,0.160430233 Z M160.625547,0.136569767 L166.409753,0.136569767 L166.409753,20.9066651 L160.625547,20.9066651 L160.625547,0.136569767 L160.625547,0.136569767 L160.625547,0.136569767 Z M118.796894,5.80060465 L125.037729,5.80104419 L127.69293,14.2627814 L130.031454,5.78019767 L135.299667,5.78019767 L137.891583,14.136886 L140.206523,5.78019767 L142.925197,5.78019767 L138.719588,20.8974349 L133.770355,20.8974349 L131.007312,12.0794233 L128.56549,20.8974349 L123.487321,20.8974349 L118.959246,6.31366744 L118.796894,5.80060465 L118.796894,5.80060465 Z M118.049724,6.31366744 L111.701297,21.6950023 C111.701297,21.6950023 110.788974,24.2149814 109.663022,25.2015488 C108.537195,26.1891209 107.305705,26.9241488 105.265128,26.5670581 C103.226854,26.2100302 102.41926,25.159793 102.270349,23.9218116 C102.1215,22.6825744 102.758776,21.3806721 104.20489,21.1072186 C105.647519,20.8348953 106.58324,21.3806721 106.923377,22.0729395 C107.263577,22.7660233 107.326738,23.5438116 107.134516,23.9843512 C106.944472,24.4248907 106.625554,24.6984698 106.625554,24.6984698 C106.625554,24.6984698 107.432339,24.9082535 108.175962,24.1315326 C108.919399,23.3548744 109.344042,22.263007 109.470738,21.8212116 C109.599674,21.3806721 109.599674,21.2334907 109.599674,21.2334907 L103.503581,5.78019767 L103.503581,5.78019767 L110.066446,5.78019767 L112.871679,12.9608791 L115.867143,5.78019767 L118.25688,5.77247442 L118.049724,6.31366744 L118.049724,6.31366744 Z M143.206032,9.08066512 C142.00746,11.465707 142.162283,14.2819326 142.680579,15.7263698 C143.098191,16.8947791 143.738454,18.1630256 145.159987,19.3325651 C147.589924,21.3322605 150.599265,21.2719814 152.729077,21.0564209 C154.856524,20.8407349 156.75883,19.7998535 157.830768,18.7901791 C158.90507,17.7816349 158.935562,16.2548163 158.935562,16.2548163 L156.353042,16.2526814 C156.287267,16.2526814 156.376502,18.5605535 153.111405,19.0717953 C150.165474,19.5332442 149.180282,18.277807 148.936225,17.9543721 C148.689927,17.6308744 148.582086,17.0107535 148.582086,17.0107535 L148.582086,13.9359558 L159.425793,13.9654674 C159.446826,13.9654674 159.622807,11.164814 158.487521,9.02666512 C157.157587,6.52803488 154.992678,5.17006047 151.227953,4.98106047 C147.463291,4.79212326 144.402238,6.69549767 143.206032,9.08066512 L143.206032,9.08066512 Z M148.570387,11.951393 C148.570387,11.951393 148.532863,9.98076977 148.704115,9.03539302 C148.875241,8.0905814 149.405485,7.31693721 149.876799,6.97962558 C150.444566,6.57374651 151.593791,6.51359302 152.222542,7.14702558 C152.851043,7.78052093 152.984771,8.30633023 153.069214,8.58154186 C153.153658,8.85625116 153.322668,9.74084651 153.310783,10.5887093 C153.299084,11.4373256 153.299084,11.915414 153.310783,11.951393 L148.570387,11.951393 L148.570387,11.951393 Z M87.792782,9.08066512 C86.5948329,11.465707 86.7502782,14.2819326 87.2680764,15.7263698 C87.6866212,16.8947791 88.3269462,18.1630256 89.7484178,19.3325651 C92.1772968,21.3322605 95.1878198,21.2719814 97.3164491,21.0564209 C99.4451407,20.8407349 101.346265,19.7998535 102.41926,18.7901791 C103.491758,17.7816349 103.522312,16.2548163 103.522312,16.2548163 L100.939792,16.2665581 C100.873582,16.2665581 100.965057,18.5617465 97.6982794,19.0717953 C94.7532824,19.5332442 93.7687128,18.277807 93.5230993,17.9543721 C93.2772991,17.6308744 93.1683381,17.0107535 93.1683381,17.0107535 L93.1683381,13.9359558 L104.028971,13.9654674 C104.047764,13.9654674 104.211859,11.164814 103.073649,9.02666512 C101.746141,6.52803488 99.5811087,5.17006047 95.8158858,4.98106047 C92.0494807,4.79212326 88.9908555,6.69549767 87.792782,9.08066512 L87.792782,9.08066512 Z M93.1589417,11.951393 C93.1589417,11.951393 93.1202982,9.98076977 93.2914249,9.03539302 C93.4627382,8.0905814 93.9933554,7.31693721 94.4642339,6.97962558 C95.0329968,6.57374651 96.1817858,6.51359302 96.8104119,7.14702558 C97.4389136,7.78052093 97.5722057,8.30633023 97.6565868,8.58154186 C97.7410922,8.85625116 97.9104765,9.74084651 97.8982176,10.5887093 C97.8863321,11.4373256 97.8863321,11.915414 97.8982176,11.951393 L93.1589417,11.951393 L93.1589417,11.951393 Z M74.9150317,10.0165605 L74.9150317,20.8834953 L68.8903765,20.8801047 L68.8903765,5.77561395 L74.9442788,5.77561395 L74.9442788,7.80883953 C74.9524307,7.81763023 75.7454006,6.6224093 76.9684898,6.04511163 C78.1917656,5.46724884 80.3086339,4.92693488 82.4676927,5.83350698 C84.6262537,6.7405814 84.9810149,8.65098837 85.0243255,9.37772791 L85.0339086,20.8801047 L79.087785,20.8801047 L79.087785,10.3654256 C79.0884072,10.0026209 79.0884072,9.35342791 78.6045854,8.77845349 C78.2643856,8.37326512 77.2846075,8.12875814 76.4619548,8.56402326 C75.6391776,8.99985349 74.7976699,9.90002093 74.9150317,10.0165605 L74.9150317,10.0165605 L74.9150317,10.0165605 Z M30,0.183537209 L36.4931067,0.183537209 L36.4931067,8.79584651 L41.5437711,8.79584651 L41.5437711,0.128469767 L47.9811838,0.128469767 L47.9811838,20.9739767 L41.5437711,20.9739767 L41.5437711,11.4290372 L36.4374128,11.4290372 L36.4374128,20.8649721 L30,20.8649721 L30,0.183537209 L30,0.183537209 L30,0.183537209 Z M57.0380174,4.97421628 C56.9477869,4.97421628 56.3126269,4.95261628 55.3504593,5.12246512 C54.27205,5.30794884 51.9287966,5.75313488 50.071792,8.18972791 C48.2141028,10.6263837 48.4902702,13.7087791 48.941049,15.4325093 C49.3913922,17.1549837 50.3836781,18.429007 51.8567367,19.5870558 C53.329733,20.7462349 55.5234528,21.1183326 57.2368977,21.1183326 C58.9502803,21.1183326 60.6937813,20.8100302 61.806167,20.2154023 C62.9184283,19.6219674 64.5861357,18.4660535 65.4130821,16.1199419 C66.2397796,13.7724488 66.1038117,10.882507 64.932185,8.89166512 C63.759936,6.90126279 62.4973322,6.16234186 60.8139434,5.50850233 C59.1303056,4.85466279 57.0380174,4.97421628 57.0380174,4.97421628 L57.0380174,4.97421628 Z M59.1937158,8.45520698 C59.3778482,8.91483488 59.5613582,9.79754651 59.5744261,10.968907 C59.5965792,13.0185209 59.5993794,15.4382233 59.5543887,15.9424953 C59.4682031,16.9139302 59.1250785,18.3154186 58.2924071,19.0075605 C57.4590512,19.699514 56.446479,19.4119953 55.8136837,18.473086 C55.1815105,17.5329209 54.9609749,16.6461279 55.0068369,13.9875698 C55.0525121,11.3289488 54.9112548,9.48761163 55.4161097,8.39894651 C55.921089,7.31065814 56.4434299,6.85724651 56.924327,6.76795814 C57.9405084,6.56746744 58.7081516,7.24259302 59.1937158,8.45520698 L59.1937158,8.45520698 Z" id="Honeywell-Logo"></path>
            </g>
        </g>
    </g>
</svg>